<svg width="120" height="25" viewBox="0 0 120 25" fill="none" xmlns="http://www.w3.org/2000/svg">
<path d="M5.8529 12.1973L3.14012 14.9077L0.429688 12.1973L3.14012 9.48683L5.8529 12.1973ZM12.4297 5.61579L17.0745 10.2629L19.7849 7.55248L12.4297 0.197266L5.07447 7.55248L7.7849 10.2629L12.4297 5.61579ZM21.7216 9.48683L19.0112 12.1973L21.7216 14.9077L24.4297 12.1973L21.7216 9.48683ZM12.4297 18.7787L7.7849 14.134L5.07447 16.8421L12.4297 24.1973L19.7849 16.8421L17.0745 14.134L12.4297 18.7787ZM12.4297 14.9077L15.1401 12.1973L12.4297 9.48683L9.71925 12.1973L12.4297 14.9077ZM41.0346 15.168V15.1304C41.0346 13.3626 40.0967 12.4786 38.5704 11.8971C39.5082 11.3696 40.3007 10.5419 40.3007 9.05776V9.02024C40.3007 6.95225 38.6454 5.61579 35.9561 5.61579H29.8506V18.7787H36.1108C39.0815 18.7787 41.0393 17.5759 41.0393 15.168H41.0346ZM37.4238 9.54076C37.4238 10.5185 36.6149 10.9335 35.3371 10.9335H32.6712V8.15506H35.5293C36.7509 8.15506 37.4285 8.64275 37.4285 9.50793L37.4238 9.54076ZM38.1577 14.8069C38.1577 15.7846 37.3863 16.2348 36.1061 16.2348H32.6712V13.3438H36.017C37.5035 13.3438 38.1624 13.8901 38.1624 14.7741L38.1577 14.8069ZM47.119 18.7787V5.61579H44.214V18.7787H47.119ZM62.6853 18.7787V5.61579H59.8177V13.7213L53.6513 5.61579H50.9807V18.7787H53.8388V10.4106L60.2116 18.7787H62.6853ZM78.7251 18.7787L73.0745 5.522H70.4039L64.765 18.7787H67.7169L68.9244 15.8268H74.4907L75.6935 18.7787H78.7251ZM73.4613 13.2688H69.9537L71.7028 9.00149L73.4613 13.2688ZM92.5282 18.7787V5.61579H89.6606V13.7213L83.4918 5.61579H80.8236V18.7787H83.6794V10.4106L90.0545 18.7787H92.5282ZM107.475 16.6545L105.635 14.7928C104.601 15.7307 103.679 16.3333 102.174 16.3333C99.9186 16.3333 98.357 14.4575 98.357 12.1973V12.1598C98.357 9.90418 99.9561 8.06127 102.174 8.06127C103.489 8.06127 104.519 8.62399 105.541 9.54545L107.377 7.42118C106.155 6.21837 104.671 5.3907 102.188 5.3907C98.146 5.3907 95.3254 8.45518 95.3254 12.1902V12.2277C95.3254 16.0073 98.2023 18.9968 102.076 18.9968C104.61 19.0038 106.113 18.1011 107.466 16.6545H107.475ZM119.832 18.7787V16.1996H112.676V13.4306H118.882V10.8514H112.676V8.19258H119.729V5.61344H109.799V18.7764L119.832 18.7787Z" fill="#F0B90B"/>
</svg>
