<svg width="174" height="46" viewBox="0 0 174 46" fill="none" xmlns="http://www.w3.org/2000/svg">
<g clip-path="url(#clip0_3001_3436)">
<path d="M28.7488 32.9279L20.8197 36.3785V36.0482C19.2412 36.452 17.626 36.6722 15.9741 36.7456C8.52221 36.6722 2.61208 32.7811 2.53867 28.1558V26.4304C4.96145 29.9912 9.99057 32.3773 15.9741 32.2671C17.9564 32.3406 19.902 32.0836 21.8108 31.5697L22.5083 29.8444C20.3792 30.5051 18.1766 30.8722 15.9741 30.8722C8.52221 30.9089 2.61208 27.0178 2.53867 22.2823V20.8874C4.96145 24.1912 9.95386 26.5406 15.9741 26.4304C18.5804 26.5773 21.1868 26.1001 23.5361 25.0355L23.8665 23.3102C21.407 24.5216 18.6906 25.1456 15.9374 25.0355C8.4855 25.1456 2.57538 21.2545 2.50196 16.4456V15.0507C4.92474 18.4279 9.95386 20.7773 15.9374 20.8874C19.1678 20.7773 22.3615 19.9697 25.2615 18.5013L25.5918 16.4456C23.2058 18.2077 19.6817 19.3823 15.9741 19.5292C8.4855 19.3456 2.57538 15.4545 2.50196 10.5722C2.57538 5.94689 8.4855 2.01904 15.9374 1.98233C20.3792 2.05575 24.4906 3.63423 26.9501 6.13044L27.207 6.49753H28.9323L28.6754 6.09373C26.2159 2.78993 21.3336 0.587402 15.9007 0.587402C7.67791 0.587402 1.07031 5.1393 1.07031 10.5722V28.4861C1.36398 33.8089 7.78803 38.1406 15.9007 38.1406C21.3336 38.1039 26.1425 35.9747 28.7488 32.9279Z" fill="white"/>
<path d="M25.513 45.0794L28.3029 33.2592L20.3003 36.7465L25.1826 16.2263H15.7852L18.2079 6.13135H48.1257L45.7029 16.2263H35.975L33.8826 21.806L44.675 17.2908L25.513 45.0794ZM30.3953 30.7997L29.0003 37.7377L40.4902 20.3377L31.0927 24.5225L35.2776 14.7946H44.675L46.4003 7.48957H19.2725L17.5472 14.7946H26.9446L22.4295 34.2503L30.3953 30.7997Z" fill="#F5C322"/>
<path d="M66.7016 12.8861C66.7016 13.4 66.5547 13.8772 66.3712 14.3177C66.1509 14.7582 65.8573 15.162 65.4902 15.4924C64.6459 16.1532 63.618 16.5203 62.5535 16.4468C61.9661 16.4835 61.3788 16.3734 60.8281 16.1532C60.2775 15.9329 59.8003 15.5658 59.3965 15.1253C58.6256 14.2443 58.2585 12.9962 58.2585 11.4177V10.7937C58.2218 9.87595 58.4054 8.99493 58.7724 8.15063C59.1028 7.41645 59.6167 6.82911 60.2775 6.3886C61.0851 5.9481 62.0028 5.72785 62.9205 5.80127C63.8383 5.87468 64.7193 6.20506 65.4535 6.75569C66.2243 7.45316 66.6648 8.4443 66.7383 9.47215H64.6092C64.6092 8.92152 64.4256 8.4076 64.0585 8.0038C63.6547 7.67342 63.1041 7.52658 62.5902 7.56329C62.2965 7.52658 61.9661 7.6 61.6724 7.74684C61.3788 7.89367 61.1585 8.07721 60.975 8.33418C60.6079 8.8481 60.4243 9.65569 60.4243 10.7203V11.4911C60.4243 12.6291 60.6079 13.4367 60.9383 13.9506C61.1218 14.2076 61.3421 14.4278 61.6357 14.538C61.9294 14.6848 62.2231 14.7215 62.5535 14.7215C63.1041 14.7582 63.618 14.6114 64.0218 14.281C64.3889 13.9139 64.5724 13.4 64.5724 12.8861H66.7016Z" fill="#F5C322"/>
<path d="M76.6535 11.3781C76.6902 12.2958 76.5067 13.2135 76.1029 14.0578C75.7725 14.792 75.2219 15.4161 74.5611 15.8566C73.8637 16.2604 73.0561 16.4806 72.2485 16.4806C71.4409 16.4806 70.6333 16.2604 69.9358 15.8566C69.2384 15.4161 68.6877 14.8287 68.3573 14.0945C67.9903 13.2502 67.77 12.3692 67.8067 11.4515V10.9376C67.77 10.0199 67.9903 9.10213 68.3573 8.22112C68.6877 7.48694 69.2384 6.8629 69.9358 6.42239C70.6333 6.01859 71.4409 5.79834 72.2485 5.79834C73.0561 5.79834 73.8637 6.01859 74.5611 6.42239C75.2586 6.8629 75.7725 7.48694 76.1396 8.22112C76.5067 9.06543 76.727 9.98315 76.6903 10.9009V11.3781H76.6535ZM74.4877 10.9009C74.4877 9.7996 74.3042 8.99201 73.9004 8.40467C73.7168 8.1477 73.4599 7.92745 73.1662 7.78062C72.8725 7.63378 72.5421 7.56037 72.2485 7.56037C71.9181 7.56037 71.5877 7.63378 71.3308 7.78062C71.0371 7.92745 70.7801 8.1477 70.5966 8.40467C70.1928 8.9553 70.0092 9.79961 70.0092 10.8642V11.3781C69.9725 12.2224 70.1561 13.1034 70.5966 13.8376C70.7801 14.0945 71.0371 14.3148 71.3308 14.4616C71.6244 14.6085 71.9548 14.6819 72.2852 14.6819C72.6156 14.6819 72.946 14.6085 73.2396 14.4616C73.5333 14.3148 73.7903 14.0945 73.9738 13.8376C74.3409 13.2869 74.5611 12.4426 74.5611 11.3781V10.9009H74.4877Z" fill="#F5C322"/>
<path d="M80.4631 16.2997H78.334V5.91113H80.4631V16.2997Z" fill="#F5C322"/>
<path d="M90.8927 16.2997H88.7635L84.6154 9.47189V16.2997H82.4863V5.91113H84.6154L88.8002 12.739V5.91113H90.9294V16.2997H90.8927Z" fill="#F5C322"/>
<path d="M100.365 7.67356H97.1716V16.3369H95.0792V7.67356H91.959V5.94824H100.402V7.67356H100.365Z" fill="#F5C322"/>
<path d="M107.853 11.8217H103.742V14.6115H108.551V16.3369H101.576V5.94824H108.514V7.67356H103.705V10.1331H107.817V11.8217H107.853Z" fill="#F5C322"/>
<path d="M111.961 14.5744H116.513V16.2997H109.832V5.91113H111.961V14.5744Z" fill="#F5C322"/>
<path d="M123.969 11.8217H119.857V14.6115H124.666V16.3369H117.691V5.94824H124.629V7.67356H119.821V10.1331H123.932V11.8217H123.969Z" fill="#F5C322"/>
<path d="M134.172 15.0135C133.732 15.5275 133.181 15.8946 132.557 16.0781C131.823 16.3351 131.015 16.4819 130.208 16.4452C129.363 16.4819 128.556 16.2616 127.858 15.8578C127.161 15.454 126.61 14.8667 126.28 14.1325C125.876 13.3249 125.693 12.4072 125.729 11.4895V10.792C125.693 9.8743 125.876 8.95658 126.243 8.11227C126.574 7.3781 127.087 6.79075 127.748 6.38695C128.446 5.98316 129.253 5.76291 130.061 5.79961C131.309 5.79961 132.263 6.09328 132.961 6.68063C133.695 7.34138 134.136 8.25911 134.209 9.25025H132.117C132.08 8.73632 131.86 8.29582 131.493 7.92873C131.125 7.63506 130.648 7.48822 130.134 7.52493C129.804 7.52493 129.474 7.56164 129.18 7.70847C128.886 7.85531 128.629 8.07556 128.446 8.33252C128.079 8.88316 127.858 9.69075 127.858 10.7553V11.4161C127.858 12.5173 128.079 13.3249 128.482 13.8756C128.703 14.1692 128.96 14.3895 129.29 14.5363C129.62 14.6832 129.951 14.7566 130.318 14.7199C131.125 14.7199 131.676 14.5363 132.043 14.2059V12.4072H130.098V10.8287H134.172V15.0135Z" fill="#F5C322"/>
<path d="M139.714 12.5191H138.026V16.3369H135.896V5.94824H139.751C140.962 5.94824 141.917 6.2052 142.577 6.75584C142.908 7.04951 143.165 7.37989 143.348 7.78369C143.532 8.18748 143.605 8.62799 143.569 9.0685C143.605 9.69255 143.422 10.3166 143.091 10.8305C142.761 11.3444 142.247 11.7115 141.696 11.9685L143.936 16.2267V16.3369H141.623L139.714 12.5191ZM138.026 10.7571H139.751C140.191 10.7938 140.669 10.647 140.999 10.3533C141.146 10.2065 141.256 10.0229 141.329 9.83938C141.403 9.65584 141.44 9.43559 141.44 9.21533C141.44 8.99508 141.403 8.81153 141.366 8.59128C141.293 8.40773 141.183 8.22419 141.036 8.04065C140.852 7.89381 140.669 7.78369 140.448 7.71027C140.228 7.63685 140.008 7.60014 139.751 7.63685H138.026V10.7571Z" fill="#F5C322"/>
<path d="M151.06 14.1706H147.315L146.618 16.2997H144.342L148.196 5.91113H150.179L154.07 16.2997H151.794L151.06 14.1706ZM147.903 12.4453H150.509L149.187 8.55417L147.903 12.4453Z" fill="#F5C322"/>
<path d="M157.186 12.666V16.3369H155.057V5.94824H159.095C159.792 5.94824 160.49 6.09508 161.15 6.38875C161.701 6.64571 162.178 7.08622 162.509 7.60014C162.839 8.15077 162.986 8.77483 162.986 9.39888C163.022 9.83938 162.912 10.3166 162.729 10.7204C162.545 11.1242 162.288 11.4913 161.921 11.785C161.224 12.3723 160.269 12.666 159.021 12.666H157.186ZM157.186 10.9039H159.095C159.572 10.9406 160.012 10.7938 160.379 10.5001C160.526 10.3533 160.636 10.1698 160.747 9.98622C160.82 9.80267 160.857 9.58242 160.857 9.36217C160.857 9.14191 160.82 8.92166 160.747 8.70141C160.673 8.48115 160.563 8.29761 160.416 8.11407C160.269 7.96723 160.049 7.8204 159.829 7.74698C159.609 7.67356 159.388 7.63685 159.168 7.63685H157.222V10.9039H157.186Z" fill="#F5C322"/>
<path d="M172.902 16.2997H170.773V11.858H166.588V16.2997H164.459V5.91113H166.588V10.1327H170.773V5.91113H172.902V16.2997Z" fill="#F5C322"/>
<path d="M64.9387 27.4204H62.2957V34.6154H60.497V27.4204H57.8906V25.9888H64.9387V27.4204Z" fill="white"/>
<path d="M67.5105 28.8886C67.7307 28.6317 67.9877 28.4114 68.2814 28.2646C68.575 28.1177 68.9054 28.0443 69.2358 28.0443C70.6307 28.0443 71.3282 28.8519 71.3649 30.4671V34.5785H69.6396V30.5038C69.6763 30.2101 69.5662 29.9165 69.4193 29.6962C69.3092 29.5861 69.1991 29.5127 69.0522 29.476C68.9054 29.4393 68.7586 29.4025 68.6117 29.4393C68.3915 29.4393 68.1712 29.476 67.9877 29.5861C67.8041 29.6962 67.6206 29.8431 67.5105 30.0266V34.5785H65.7852V25.438H67.5105V28.8886Z" fill="white"/>
<path d="M75.5839 34.765C75.1434 34.765 74.7396 34.7283 74.3358 34.5814C73.932 34.4346 73.5649 34.2143 73.2712 33.9207C72.9776 33.627 72.7206 33.2599 72.5738 32.8561C72.4269 32.4523 72.3535 32.0485 72.3535 31.608V31.4245C72.3535 30.8371 72.4636 30.2498 72.7206 29.6992C72.9409 29.2219 73.3079 28.8181 73.7852 28.5245C74.2624 28.2308 74.813 28.084 75.3636 28.1207C75.7674 28.084 76.1345 28.1574 76.5016 28.3042C76.8687 28.4511 77.1991 28.6713 77.456 28.965C77.97 29.5156 78.2269 30.3232 78.2269 31.3144V32.0118H74.1522C74.189 32.4156 74.3725 32.746 74.6662 33.0397C74.9598 33.2966 75.3269 33.4435 75.7307 33.4068C76.0244 33.4068 76.3181 33.37 76.6117 33.2232C76.8687 33.1131 77.1257 32.8928 77.3092 32.6726L78.1535 33.627C77.8965 33.9941 77.5295 34.2878 77.1257 34.4713C76.6117 34.6549 76.0978 34.765 75.5839 34.765ZM75.4003 29.4789C75.2535 29.4789 75.1067 29.5156 74.9598 29.5523C74.813 29.6257 74.7029 29.6992 74.5928 29.8093C74.3725 30.103 74.2257 30.4333 74.189 30.8004H76.575V30.6536C76.575 30.3232 76.4649 30.0295 76.2814 29.7726C76.1712 29.6625 76.0244 29.589 75.8776 29.5156C75.694 29.4789 75.5472 29.4789 75.4003 29.4789Z" fill="white"/>
<path d="M82.7044 34.6149V29.439H81.75V28.1909H82.7044V27.6403C82.6677 27.3466 82.7411 27.0162 82.8513 26.7225C82.9614 26.4289 83.1082 26.1719 83.3285 25.9517C83.8057 25.5479 84.4297 25.3276 85.0538 25.3643C85.3475 25.3643 85.6411 25.401 85.9348 25.4744V26.796C85.7513 26.7592 85.6044 26.7225 85.4209 26.7592C84.7601 26.7592 84.4665 27.0529 84.4665 27.677V28.1909H85.7513V29.439H84.4297V34.6149H82.7044Z" fill="white"/>
<path d="M90.4528 33.9916C90.2325 34.2485 89.9756 34.4688 89.6819 34.5789C89.3882 34.7257 89.0578 34.7624 88.7275 34.7624C88.4338 34.7992 88.1401 34.7257 87.8831 34.6523C87.6262 34.5422 87.3692 34.3954 87.149 34.1751C86.7452 33.6979 86.5616 33.0738 86.5983 32.4498V28.2283H88.3237V32.3764C88.3237 33.0371 88.6173 33.3675 89.2414 33.3675C89.4616 33.4042 89.7186 33.3308 89.9388 33.2574C90.1591 33.1473 90.3426 33.0004 90.4528 32.7802V28.2283H92.1781V34.6523H90.5629L90.4528 33.9916Z" fill="white"/>
<path d="M95.4794 26.6143V28.1927H96.5806V29.4408H95.4794V32.6345C95.4794 32.8181 95.5161 33.0016 95.6262 33.1484C95.6996 33.2219 95.7731 33.2586 95.8832 33.2953C95.9566 33.332 96.0667 33.332 96.1768 33.332C96.3604 33.332 96.5072 33.332 96.6908 33.2953V34.5801C96.3604 34.6902 95.9933 34.7269 95.6629 34.7269C94.4515 34.7269 93.8275 34.1029 93.8275 32.8915V29.4408H92.873V28.1927H93.8275V26.6143H95.4794Z" fill="white"/>
<path d="M101.39 33.9916C101.17 34.2485 100.913 34.4688 100.619 34.5789C100.326 34.7257 99.9953 34.7624 99.6649 34.7624C99.3713 34.7992 99.0776 34.7257 98.8206 34.6523C98.5637 34.5422 98.3067 34.3954 98.0865 34.1751C97.6827 33.6979 97.4991 33.0738 97.5358 32.4498V28.2283H99.2611V32.3764C99.2611 33.0371 99.5548 33.3675 100.179 33.3675C100.399 33.4042 100.656 33.3308 100.876 33.2574C101.097 33.1473 101.28 33.0004 101.39 32.7802V28.2283H103.116V34.6523H101.5L101.39 33.9916Z" fill="white"/>
<path d="M107.964 29.807C107.744 29.7703 107.56 29.7703 107.34 29.7703C106.679 29.7703 106.276 29.9906 106.055 30.4311V34.6526H104.33V28.2286H105.945L105.982 28.9995C106.129 28.7425 106.312 28.5222 106.569 28.3387C106.826 28.1919 107.12 28.0817 107.414 28.1184C107.597 28.1184 107.781 28.1552 107.964 28.1919V29.807Z" fill="white"/>
<path d="M111.637 34.765C111.196 34.765 110.792 34.7283 110.389 34.5814C109.985 34.4346 109.618 34.2143 109.324 33.9207C109.03 33.627 108.773 33.2599 108.627 32.8561C108.48 32.4523 108.406 32.0485 108.406 31.608V31.4245C108.406 30.8371 108.516 30.2498 108.773 29.6992C108.994 29.2219 109.361 28.8181 109.838 28.5245C110.315 28.2308 110.866 28.084 111.416 28.1207C111.82 28.084 112.187 28.1574 112.554 28.3042C112.921 28.4511 113.252 28.6713 113.509 28.965C114.023 29.5156 114.28 30.3232 114.28 31.3144V32.0118H110.168C110.205 32.4156 110.389 32.746 110.682 33.0397C110.976 33.2966 111.343 33.4435 111.747 33.4068C112.04 33.4068 112.334 33.37 112.628 33.2232C112.885 33.1131 113.142 32.8928 113.325 32.6726L114.17 33.627C113.913 33.9941 113.545 34.2878 113.142 34.4713C112.628 34.6549 112.151 34.765 111.637 34.765ZM111.416 29.4789C111.27 29.4789 111.123 29.5156 110.976 29.5523C110.829 29.6257 110.719 29.6992 110.609 29.8093C110.389 30.103 110.242 30.4333 110.205 30.8004H112.591V30.6536C112.591 30.3232 112.481 30.0295 112.297 29.7726C112.187 29.6625 112.04 29.589 111.894 29.5156C111.747 29.4789 111.6 29.4789 111.416 29.4789Z" fill="white"/>
<path d="M118.02 31.3494C118.02 30.762 118.13 30.1747 118.387 29.6608C118.607 29.1835 118.974 28.7797 119.451 28.4861C119.928 28.1924 120.479 28.0823 121.066 28.0823C121.47 28.0823 121.837 28.119 122.204 28.2658C122.571 28.4127 122.902 28.5962 123.195 28.8899C123.783 29.4772 124.076 30.2481 124.113 31.0557V31.4962C124.15 32.3772 123.856 33.2215 123.306 33.8823C122.718 34.4696 121.911 34.7633 121.103 34.7633C120.259 34.7633 119.488 34.4329 118.901 33.8823C118.313 33.2215 118.02 32.3405 118.056 31.4595V31.3494H118.02ZM119.708 31.4962C119.671 31.9734 119.782 32.4873 120.039 32.8911C120.149 33.038 120.295 33.1481 120.479 33.2582C120.663 33.3316 120.846 33.3684 121.03 33.4051C121.213 33.4051 121.397 33.3684 121.58 33.2949C121.764 33.2215 121.911 33.0747 122.021 32.9278C122.278 32.4506 122.425 31.9367 122.388 31.3861C122.425 30.9089 122.278 30.3949 122.021 29.9911C121.911 29.8443 121.764 29.6975 121.58 29.624C121.397 29.5506 121.213 29.5139 121.03 29.5139C120.846 29.5139 120.663 29.5506 120.479 29.624C120.295 29.6975 120.149 29.8443 120.039 29.9911C119.818 30.4316 119.671 30.9456 119.708 31.4962Z" fill="white"/>
<path d="M125.617 34.6149V29.439H124.662V28.1909H125.617V27.6403C125.58 27.3466 125.653 27.0162 125.763 26.7225C125.874 26.4289 126.02 26.1719 126.241 25.9517C126.718 25.5479 127.342 25.3276 127.966 25.3643C128.26 25.3643 128.553 25.401 128.847 25.4744V26.796C128.663 26.7592 128.517 26.7225 128.333 26.7592C127.672 26.7592 127.379 27.0529 127.379 27.677V28.1909H128.663V29.439H127.379V34.6149H125.617Z" fill="white"/>
<path d="M134.171 28.1941L134.208 28.9283C134.428 28.6713 134.722 28.4511 135.015 28.3042C135.346 28.1574 135.676 28.084 136.043 28.1207C136.41 28.084 136.741 28.1574 137.034 28.3409C137.328 28.5245 137.585 28.7814 137.732 29.1118C137.952 28.7814 138.246 28.5245 138.576 28.3776C138.906 28.1941 139.274 28.1207 139.677 28.1574C139.971 28.1207 140.265 28.1941 140.522 28.2675C140.779 28.3776 141.036 28.5245 141.219 28.7447C141.586 29.2954 141.77 29.9194 141.733 30.5802V34.6916H140.008V30.5802C140.044 30.2865 139.971 30.0295 139.787 29.7726C139.677 29.6625 139.567 29.589 139.42 29.5523C139.274 29.5156 139.163 29.4789 139.017 29.5156C138.796 29.5156 138.539 29.5523 138.356 29.6992C138.172 29.846 138.025 30.0295 137.952 30.2498V34.6549H136.227V30.5435C136.263 30.2498 136.19 29.9561 136.006 29.7359C135.896 29.6257 135.786 29.589 135.676 29.5156C135.529 29.4789 135.419 29.4422 135.272 29.4789C135.052 29.4789 134.832 29.5156 134.648 29.6257C134.465 29.7359 134.318 29.8827 134.208 30.103V34.6549H132.482V28.2308H134.171V28.1941Z" fill="white"/>
<path d="M142.797 31.3494C142.797 30.762 142.907 30.1747 143.164 29.6608C143.384 29.1835 143.751 28.7797 144.229 28.4861C144.706 28.1924 145.256 28.0823 145.844 28.0823C146.248 28.0823 146.615 28.119 146.982 28.2658C147.349 28.4127 147.679 28.5962 147.973 28.8899C148.56 29.4772 148.854 30.2481 148.891 31.0557V31.4962C148.927 32.3772 148.634 33.2215 148.083 33.8823C147.496 34.4696 146.688 34.7633 145.88 34.7633C145.073 34.7633 144.265 34.4329 143.678 33.8823C143.091 33.2215 142.797 32.3405 142.834 31.4595V31.3494H142.797ZM144.522 31.4962C144.485 31.9734 144.596 32.4873 144.853 32.8911C144.963 33.038 145.11 33.1481 145.293 33.2582C145.477 33.3316 145.66 33.3684 145.844 33.4051C146.027 33.4418 146.211 33.3684 146.394 33.2949C146.578 33.2215 146.725 33.0747 146.835 32.9278C147.092 32.4506 147.239 31.9367 147.202 31.3861C147.239 30.9089 147.092 30.3949 146.835 29.9911C146.725 29.8443 146.578 29.6975 146.394 29.624C146.211 29.5506 146.027 29.5139 145.844 29.5139C145.66 29.5139 145.477 29.5506 145.293 29.624C145.11 29.6975 144.963 29.8443 144.853 29.9911C144.596 30.4316 144.485 30.9456 144.522 31.4962Z" fill="white"/>
<path d="M151.537 28.193L151.574 28.9272C151.794 28.6335 152.088 28.4132 152.382 28.2664C152.712 28.1196 153.043 28.0461 153.41 28.0461C153.703 28.0094 153.96 28.0829 154.254 28.1563C154.511 28.2664 154.768 28.4132 154.951 28.6335C155.318 29.1474 155.502 29.7715 155.465 30.4322V34.5803H153.74V30.4689C153.777 30.1753 153.667 29.8816 153.52 29.6613C153.41 29.5879 153.299 29.5145 153.153 29.4411C153.006 29.4044 152.859 29.3677 152.749 29.4044C152.529 29.4044 152.308 29.4411 152.125 29.5512C151.941 29.6613 151.758 29.8082 151.684 30.0284V34.5803H149.959V28.1563H151.537V28.193Z" fill="white"/>
<path d="M159.758 34.765C159.317 34.765 158.913 34.7283 158.51 34.5814C158.106 34.4346 157.739 34.2143 157.445 33.9207C157.151 33.627 156.894 33.2599 156.748 32.8561C156.601 32.4523 156.527 32.0485 156.527 31.608V31.4245C156.527 30.8371 156.637 30.2498 156.894 29.6992C157.115 29.2219 157.482 28.8181 157.959 28.5245C158.436 28.2308 158.987 28.084 159.537 28.1207C159.941 28.084 160.308 28.1574 160.675 28.3042C161.043 28.4511 161.373 28.6713 161.63 28.965C162.144 29.5156 162.401 30.3232 162.401 31.3144V32.0118H158.289C158.326 32.4156 158.51 32.746 158.803 33.0397C159.097 33.2966 159.464 33.4435 159.868 33.4068C160.162 33.4068 160.455 33.37 160.749 33.2232C161.006 33.1131 161.263 32.8928 161.446 32.6726L162.291 33.627C162.034 33.9941 161.667 34.2878 161.263 34.4713C160.749 34.6549 160.235 34.765 159.758 34.765ZM159.537 29.4789C159.391 29.4789 159.244 29.5156 159.097 29.5523C158.95 29.6257 158.84 29.6992 158.73 29.8093C158.51 30.103 158.363 30.4333 158.326 30.8004H160.712V30.6536C160.712 30.3232 160.602 30.0295 160.418 29.7726C160.308 29.6625 160.162 29.589 160.015 29.5156C159.868 29.4789 159.684 29.4789 159.537 29.4789Z" fill="white"/>
<path d="M165.67 32.1919L166.845 28.1907H168.68L166.111 35.6059L165.964 35.9362C165.817 36.3033 165.56 36.6337 165.23 36.854C164.899 37.0742 164.496 37.1843 164.092 37.1843C163.835 37.1843 163.578 37.1476 163.321 37.0742V35.7894H163.578C163.835 35.7894 164.092 35.7527 164.312 35.6426C164.496 35.5324 164.606 35.3489 164.679 35.1654L164.899 34.6514L162.66 28.1907H164.496L165.67 32.1919Z" fill="white"/>
</g>
<defs>
<clipPath id="clip0_3001_3436">
<rect width="174" height="45.519" fill="white"/>
</clipPath>
</defs>
</svg>
