<svg width="188" height="33" viewBox="0 0 188 33" fill="none" xmlns="http://www.w3.org/2000/svg">
<g clip-path="url(#clip0_4191_29692)">
<path d="M28.3849 19.2371C27.8247 19.5793 27.1713 19.6417 26.6733 19.3615C26.051 18.9881 25.6775 18.1478 25.6775 16.9964V13.4799C25.6775 11.7994 25.024 10.5857 23.9037 10.2745C22.0053 9.71436 20.5738 12.0484 20.0448 12.9197L16.6838 18.3034V11.675C16.6528 10.1501 16.1548 9.24758 15.2213 8.96752C14.5989 8.78081 13.6652 8.87417 12.7628 10.2435L5.2629 22.2557C4.26706 20.3574 3.73802 18.2412 3.73802 16.0939C3.73802 8.84305 9.55743 2.96139 16.6838 2.96139C23.8103 2.96139 29.6297 8.84305 29.6297 16.0939V16.1251V16.1562C29.692 17.5566 29.2562 18.6769 28.3849 19.2371ZM32.4928 16.0939V16.0629V16.0317C32.4616 7.2248 25.3663 0.0361328 16.6838 0.0361328C7.97032 0.0361328 0.875 7.22481 0.875 16.0939C0.875 24.932 7.97032 32.1517 16.6838 32.1517C20.6983 32.1517 24.4949 30.6269 27.4202 27.8572C28.0115 27.2971 28.0426 26.3946 27.4825 25.8033C26.9534 25.2121 26.051 25.1809 25.4597 25.7099C25.4597 25.7099 25.4597 25.7099 25.4285 25.7411C23.0634 27.9817 19.8892 29.2577 16.6216 29.2577C12.7939 29.2577 9.37071 27.5772 7.00561 24.9009L13.7586 14.0712V19.0815C13.7586 21.4777 14.6922 22.2557 15.4702 22.4735C16.2482 22.6913 17.4307 22.5357 18.7067 20.513L22.4099 14.5068C22.5344 14.3202 22.6278 14.1334 22.7522 14.0089V17.0587C22.7522 19.2993 23.6547 21.1042 25.2107 21.9756C26.6111 22.7847 28.3849 22.6913 29.8476 21.7889C31.6525 20.6063 32.6172 18.5524 32.4928 16.0939ZM54.5256 10.6169C54.899 10.8347 55.2413 11.3638 55.2413 11.8306C55.2413 12.5774 54.619 13.1999 53.9032 13.1999C53.7164 13.1999 53.5609 13.1375 53.4053 13.1065C52.565 12.4841 51.507 12.0795 50.3866 12.0795C47.7414 12.0795 45.9365 14.2268 45.9365 16.9031C45.9365 19.5793 47.7726 21.6955 50.3866 21.6955C51.6936 21.6955 52.8763 21.1665 53.7476 20.3263C53.9654 20.1707 54.2455 20.0773 54.5256 20.0773C55.2413 20.0773 55.8015 20.6374 55.8015 21.3532C55.8015 21.82 55.5214 22.2245 55.1791 22.4424C53.9032 23.5316 52.1916 24.2474 50.4177 24.2474C46.3722 24.2474 43.0735 20.9176 43.0735 16.8097C43.0735 12.7019 46.3722 9.37211 50.4177 9.37211C51.9115 9.34095 53.343 9.80774 54.5256 10.6169ZM61.9321 13.7289C64.7018 13.7289 67.0046 16.0629 67.0046 18.957C67.0046 21.82 64.6706 24.2784 61.9321 24.2784C59.0379 24.2784 56.6417 21.8511 56.6417 18.957C56.6417 16.0629 59.0379 13.7289 61.9321 13.7289ZM61.901 21.6955C63.1146 21.6955 64.1416 20.5441 64.1416 18.9881C64.1416 17.4321 63.1146 16.4363 61.901 16.4363C60.594 16.4363 59.5047 17.401 59.5047 18.9881C59.5047 20.513 60.594 21.6955 61.901 21.6955ZM68.7473 22.6603V15.316C68.7473 14.5068 69.3697 13.8533 70.1788 13.8533C70.9568 13.8533 71.6103 14.5068 71.6103 15.316V22.6603C71.6103 23.4694 70.9568 24.1228 70.1788 24.1228C69.4008 24.1228 68.7473 23.4382 68.7473 22.6603ZM68.5295 11.0837C68.5295 10.1189 69.2763 9.37211 70.1788 9.37211C71.1124 9.37211 71.8593 10.1501 71.8593 11.0837C71.8593 12.0172 71.1124 12.7641 70.1788 12.7641C69.2453 12.733 68.5295 11.9862 68.5295 11.0837ZM77.0874 18.6769V22.6603C77.0874 23.4694 76.4339 24.1228 75.6559 24.1228C74.8779 24.1228 74.2244 23.4694 74.2244 22.6603V14.9736C74.2244 14.3512 74.7223 13.8533 75.3447 13.8533C75.9671 13.8533 76.4339 14.3824 76.4339 14.9736C77.5854 13.8845 78.6123 13.7289 79.577 13.7289C82.44 13.7289 83.716 15.8761 83.716 18.3346V22.6603C83.716 23.4694 83.0624 24.1228 82.2844 24.1228C81.5065 24.1228 80.8529 23.4694 80.8529 22.6603V18.6769C80.8529 17.4321 80.6973 16.3741 78.8924 16.3741C77.6165 16.3741 77.0874 17.4321 77.0874 18.6769ZM92.9894 20.2018C92.6474 20.2018 92.4292 20.0462 92.2424 19.8283L88.913 16.2185V22.6603C88.913 23.4694 88.2595 24.1228 87.4815 24.1228C86.7034 24.1228 86.05 23.4694 86.05 22.6603V9.90111C86.1433 9.6833 86.3612 9.5277 86.579 9.5277C86.8279 9.5277 87.0458 9.74552 87.2014 9.90111L92.5226 15.8761C92.6788 16.0629 92.8655 16.1562 92.9894 16.1562C93.0828 16.1562 93.301 16.0629 93.4563 15.8761L98.7778 9.90111C98.9331 9.74552 99.1199 9.5277 99.4 9.5277C99.6496 9.5277 99.8669 9.6833 99.9297 9.90111V22.6603C99.9297 23.4694 99.3066 24.1228 98.4977 24.1228C97.7201 24.1228 97.0665 23.4694 97.0665 22.6603V16.2185L93.7364 19.8283C93.4877 20.0462 93.2696 20.2018 92.9894 20.2018ZM106.744 21.6955C108.02 21.6955 109.11 20.5441 109.11 18.9881C109.11 17.4321 107.99 16.4051 106.744 16.4051C105.5 16.4051 104.473 17.4632 104.473 18.9881C104.473 20.4818 105.468 21.6955 106.744 21.6955ZM109.794 23.0025L109.732 22.6603C109.172 23.7494 107.398 24.2474 106.277 24.2474C103.602 24.2474 101.61 21.82 101.61 18.9259C101.61 16.0629 103.632 13.6977 106.434 13.6977C106.901 13.6977 108.518 13.8222 109.763 15.2848L109.826 14.9426C109.826 14.3201 110.293 13.8222 110.915 13.8222C111.537 13.8222 112.035 14.3512 112.035 14.9426V22.9715C112.035 23.5938 111.537 24.0918 110.915 24.0918C110.261 24.1228 109.794 23.5938 109.794 23.0025ZM119.908 16.3741H119.597C117.792 16.4674 117.45 17.4944 117.45 18.6769V22.6603C117.45 23.4694 116.796 24.1228 116.018 24.1228C115.241 24.1228 114.587 23.4694 114.587 22.6603V14.9736C114.587 14.3512 115.084 13.8533 115.707 13.8533C116.33 13.8533 116.796 14.3824 116.796 14.9736C117.854 13.9778 118.726 13.76 119.597 13.7289H119.877C120.562 13.7289 121.184 14.3202 121.184 15.067C121.216 15.7517 120.593 16.3741 119.908 16.3741ZM130.956 21.9756C131.08 22.1935 131.174 22.4113 131.174 22.6603C131.174 23.4071 130.489 24.0918 129.742 24.0918C129.244 24.0918 128.809 23.7183 128.467 23.2826L125.168 19.4549V22.6291C125.168 23.4382 124.514 24.0918 123.736 24.0918C122.958 24.0918 122.305 23.4382 122.305 22.6291V10.9592C122.305 10.1501 122.927 9.49655 123.736 9.49655C124.545 9.49655 125.168 10.1501 125.168 10.9592V18.2412L128.467 14.6002C128.809 14.2268 129.214 13.8222 129.711 13.8222C130.427 13.8222 131.08 14.4758 131.08 15.2226C131.08 15.4404 131.018 15.6894 130.893 15.8761L128.28 18.7391L130.956 21.9756ZM136.557 16.4051C135.779 16.4051 134.504 16.8097 134.504 18.0234H138.643C138.611 16.8097 137.304 16.4051 136.557 16.4051ZM140.292 19.8595H134.504C134.504 21.571 136.153 21.8511 136.869 21.8511C137.397 21.8511 138.144 21.7578 138.736 21.4777C138.923 21.3532 139.203 21.2598 139.483 21.2598C140.105 21.2598 140.634 21.7889 140.634 22.4424C140.634 22.8781 140.354 23.2515 140.012 23.4694C139.14 24.1228 137.989 24.2784 136.9 24.2784C134.005 24.2784 131.609 22.7225 131.609 19.0815C131.609 16.2185 133.072 13.7289 136.495 13.7289C139.265 13.7289 141.35 15.5338 141.412 18.7391C141.412 19.3305 140.914 19.8595 140.292 19.8595ZM148.258 24.2474H147.48C145.302 24.2474 144.026 23.2826 144.026 19.8906V16.3741H143.279C142.595 16.3741 142.003 15.7517 142.003 15.067C142.003 14.3202 142.625 13.7289 143.279 13.7289H144.026V11.0214C144.026 10.2123 144.648 9.55877 145.457 9.55877C146.236 9.55877 146.889 10.2123 146.889 11.0214V13.7289H148.072C148.757 13.7289 149.348 14.3202 149.348 15.067C149.348 15.7517 148.725 16.3741 148.072 16.3741H146.889V19.3305C146.889 21.291 146.983 21.6955 147.854 21.6955H148.258C148.944 21.6955 149.534 22.2557 149.534 22.9715C149.534 23.6561 148.944 24.2474 148.258 24.2474ZM162.107 10.6169C162.48 10.8347 162.822 11.3638 162.822 11.8306C162.822 12.5774 162.2 13.1999 161.484 13.1999C161.298 13.1999 161.142 13.1375 160.986 13.1065C160.146 12.4841 159.088 12.0795 157.968 12.0795C155.323 12.0795 153.518 14.2268 153.518 16.9031C153.518 19.5793 155.354 21.6955 157.968 21.6955C159.275 21.6955 160.457 21.1665 161.329 20.3263C161.546 20.1707 161.827 20.0773 162.107 20.0773C162.822 20.0773 163.383 20.6374 163.383 21.3532C163.383 21.82 163.102 22.2245 162.76 22.4424C161.484 23.5316 159.773 24.2474 157.999 24.2474C153.953 24.2474 150.655 20.9176 150.655 16.8097C150.655 12.7019 153.953 9.37211 157.999 9.37211C159.493 9.34095 160.956 9.80774 162.107 10.6169ZM169.358 21.6955C170.633 21.6955 171.723 20.5441 171.723 18.9881C171.723 17.4321 170.602 16.4051 169.358 16.4051C168.082 16.4051 167.086 17.4632 167.086 18.9881C167.086 20.4818 168.113 21.6955 169.358 21.6955ZM172.408 23.0025L172.346 22.6603C171.785 23.7494 170.011 24.2474 168.891 24.2474C166.214 24.2474 164.223 21.82 164.223 18.9259C164.223 16.0629 166.246 13.6977 169.046 13.6977C169.513 13.6977 171.132 13.8222 172.376 15.2848L172.438 14.9426C172.438 14.3201 172.905 13.8222 173.528 13.8222C174.15 13.8222 174.648 14.3512 174.648 14.9426V22.9715C174.648 23.5938 174.15 24.0918 173.528 24.0918C172.874 24.1228 172.408 23.5938 172.408 23.0025ZM182.459 21.6955C183.735 21.6955 184.731 20.4818 184.731 18.9881C184.731 17.4321 183.704 16.4051 182.459 16.4051C181.183 16.4051 180.094 17.4321 180.094 18.9881C180.094 20.5441 181.183 21.6955 182.459 21.6955ZM180.094 23.4071V27.0482C180.094 27.8572 179.44 28.5107 178.663 28.5107C177.884 28.5107 177.231 27.8572 177.231 27.0482V14.9736C177.231 14.3512 177.729 13.8533 178.351 13.8533C178.973 13.8533 179.44 14.3824 179.44 15.0981C180.499 14.0089 181.805 13.7289 182.802 13.7289C185.571 13.7289 187.625 16.0629 187.625 18.957C187.625 21.82 185.664 24.2784 182.957 24.2784C182.117 24.2474 180.872 23.9984 180.094 23.4071Z" fill="white"/>
</g>
<defs>
<clipPath id="clip0_4191_29692">
<rect width="186.75" height="32.3221" fill="white" transform="translate(0.875 0.0361328)"/>
</clipPath>
</defs>
</svg>
