<svg width="161" height="28" viewBox="0 0 161 28" fill="none" xmlns="http://www.w3.org/2000/svg">
<g clip-path="url(#clip0_3001_3482)">
<path d="M-0.519531 26.4836L1.88697 25.7658V4.5036C1.88697 3.01358 0.908336 1.70048 -0.519531 1.27463V1.0957H18.8008V8.42174H18.6219L18.262 7.4889C16.718 3.46802 14.0964 1.82549 9.21301 1.82549C9.21301 13.0731 8.93513 12.9982 8.88 22.0674C8.86783 24.0688 10.1511 25.8504 12.0498 26.4836V26.6625H-0.519531V26.4836Z" fill="white"/>
<path d="M16.0678 11.5312C15.2332 14.2634 10.9821 14.9579 8.96094 14.9637V15.4785C14.2292 15.2726 15.894 17.7383 16.0678 18.9967H16.4264V11.5312H16.0678Z" fill="white"/>
<path d="M20.7266 26.486L23.1317 25.7678V2.00621L20.7266 1.28797V1.10889H32.8597V1.28797L30.4546 2.00621V25.7678L32.8597 26.486V26.6651H20.7266V26.486Z" fill="white"/>
<path d="M37.0665 4.3477L37.0433 9.29064C37.3668 21.7818 40.3592 25.2633 45.5274 26.3762L46.03 26.4841V26.6632H33.9336V26.4841L36.3386 25.7658V3.693L33.9336 1.25138V1.10889H43.9119L58.9409 16.6771L58.9044 13.421C58.8331 4.91381 56.4377 1.89837 52.8831 1.36114L52.4171 1.28989V1.11081H62.0719L63.6297 2.01968L59.6669 2.00813V27.5643H59.559L37.0665 4.3477Z" fill="white"/>
<path d="M61.1934 26.8345L63.6312 26.1067V2.01776L61.1934 1.28989V1.10889H73.0915C80.9151 1.10889 83.3529 3.36566 83.3529 5.73026C83.3529 8.27779 80.478 10.3208 76.7674 10.8658V10.9755C80.6975 11.4126 85.6462 13.3729 85.6462 18.7933C85.6462 23.3781 82.1532 27.0175 74.9843 27.0175H61.1934V26.8365V26.8345ZM72.7295 12.4544C74.9497 12.4544 76.9503 11.222 76.9503 7.11089C76.9503 2.9998 74.9497 1.8406 72.6563 1.8406H70.983V12.4544H72.7295ZM73.2013 26.2838C76.3669 26.2838 78.331 24.4699 78.331 20.1759C78.331 15.3735 75.6756 13.1899 72.8007 13.1899H70.9811V26.2838H73.2013Z" fill="white"/>
<path d="M88.0039 14.499C88.0039 6.23837 93.9713 0.563721 103.578 0.563721C112.637 0.563721 118.641 5.54902 118.641 13.5902C118.641 21.6313 112.711 27.5621 103.067 27.5621C93.9713 27.5621 88.0039 22.5768 88.0039 14.499ZM104.125 26.7572C107.581 26.7572 110.529 23.6339 110.529 15.3001C110.529 5.62026 106.489 1.3686 102.524 1.3686C99.0683 1.3686 96.1202 4.52847 96.1202 12.7891C96.1202 22.5402 100.16 26.7572 104.125 26.7572Z" fill="white"/>
<path d="M158.058 27.0598L119.117 27.0155V26.8345L121.555 26.1067V2.01776L119.117 1.28989V1.10889H131.78V1.28989L128.978 2.01776V24.8251L148.082 24.8559H151.574L151.547 27.0637L158.058 27.0598Z" fill="white"/>
<path d="M134.236 21.8654L136.677 21.3208V1.77601L134.236 1.23141V1.0957H148.009C154.798 1.0957 159.32 5.72033 159.32 11.5663C159.32 17.4122 155.269 21.9993 149.467 21.9993H134.236V21.8636V21.8654ZM145.203 21.3922C149.286 21.3922 152.841 18.9442 152.841 11.8377C152.841 4.73112 149.104 1.7028 144.112 1.7028V21.3922H145.205H145.203Z" fill="white"/>
<path d="M159.84 27.0877L150.047 27.0504L150.099 24.8607C151.387 24.8607 154.766 25.0547 157.519 23.0011C159.851 21.2625 160.472 19.423 160.806 18.5829C160.899 18.3493 161.198 17.658 161.198 17.658H161.41L159.84 27.0915V27.0877Z" fill="white"/>
</g>
<defs>
<clipPath id="clip0_3001_3482">
<rect width="161" height="28" fill="white"/>
</clipPath>
</defs>
</svg>
