<svg width="177" height="47" viewBox="0 0 177 47" fill="none" xmlns="http://www.w3.org/2000/svg">
<path d="M136.837 23.4999C136.837 22.4749 136.813 21.4999 136.789 20.5999C136.773 19.753 136.693 18.9086 136.549 18.0749C136.423 17.3128 136.196 16.5724 135.875 15.8749C135.533 15.1593 135.078 14.5085 134.528 13.9499C133.757 13.1182 132.833 12.4553 131.811 11.9999C130.704 11.5346 129.518 11.305 128.324 11.3249C127.122 11.3051 125.928 11.5346 124.813 11.9999C123.787 12.461 122.856 13.123 122.071 13.9499C121.529 14.5092 121.081 15.1601 120.748 15.8749C120.427 16.5724 120.201 17.3128 120.075 18.0749C119.931 18.9086 119.85 19.753 119.835 20.5999C119.811 21.4999 119.811 22.4749 119.811 23.4999C119.811 24.5249 119.811 25.4999 119.835 26.3999C119.85 27.2469 119.931 28.0912 120.075 28.9249C120.201 29.6871 120.427 30.4274 120.748 31.1249C121.081 31.8397 121.529 32.4906 122.071 33.0499C122.856 33.8768 123.787 34.5389 124.813 34.9999C125.928 35.4653 127.122 35.6948 128.324 35.6749C129.518 35.6948 130.704 35.4653 131.811 34.9999C132.833 34.5446 133.757 33.8816 134.528 33.0499C135.078 32.4913 135.533 31.8406 135.875 31.1249C136.196 30.4274 136.423 29.6871 136.549 28.9249C136.693 28.0912 136.773 27.2469 136.789 26.3999C136.813 25.4999 136.837 24.5249 136.837 23.4999ZM132.34 23.4999C132.34 24.6499 132.316 25.5999 132.268 26.3499C132.247 26.9778 132.191 27.6039 132.1 28.2249C132.026 28.6306 131.905 29.0252 131.739 29.3999C131.591 29.6995 131.405 29.977 131.186 30.2249C130.86 30.627 130.448 30.9439 129.983 31.1499C129.46 31.3857 128.894 31.5049 128.324 31.4999C127.746 31.5047 127.172 31.3856 126.64 31.1499C126.165 30.9508 125.744 30.6331 125.414 30.2249C125.195 29.977 125.009 29.6995 124.861 29.3999C124.704 29.0238 124.59 28.6292 124.524 28.2249C124.433 27.6039 124.377 26.9778 124.356 26.3499C124.332 25.5999 124.308 24.6499 124.308 23.4999C124.308 22.3499 124.332 21.3999 124.356 20.6499C124.377 20.022 124.433 19.396 124.524 18.7749C124.59 18.3706 124.704 17.9761 124.861 17.5999C125.009 17.3004 125.195 17.0229 125.414 16.7749C125.744 16.3667 126.165 16.049 126.64 15.8499C127.172 15.6143 127.746 15.4951 128.324 15.4999C128.894 15.4949 129.46 15.6142 129.983 15.8499C130.448 16.0559 130.86 16.3728 131.186 16.7749C131.405 17.0229 131.591 17.3004 131.739 17.5999C131.905 17.9746 132.026 18.3693 132.1 18.7749C132.191 19.396 132.247 20.022 132.268 20.6499C132.316 21.3999 132.34 22.3499 132.34 23.4999Z" fill="#23AF91"/>
<path d="M172.671 11.95C172.674 11.8954 172.667 11.8407 172.649 11.7893C172.631 11.7378 172.603 11.6907 172.567 11.6509C172.531 11.611 172.487 11.5793 172.439 11.5577C172.391 11.536 172.339 11.5249 172.286 11.525H168.558C168.454 11.5314 168.356 11.579 168.285 11.658C168.213 11.737 168.173 11.8415 168.174 11.95V26.2L159.131 11.65C159.104 11.6046 159.064 11.5686 159.017 11.5464C158.97 11.5242 158.918 11.5167 158.867 11.525H155.428C155.377 11.525 155.327 11.5354 155.28 11.5555C155.234 11.5756 155.191 11.605 155.156 11.6422C155.12 11.6793 155.092 11.7234 155.072 11.7719C155.053 11.8205 155.043 11.8725 155.043 11.925V35.075C155.043 35.1811 155.084 35.2828 155.156 35.3579C155.228 35.4329 155.326 35.475 155.428 35.475H159.131C159.236 35.4752 159.336 35.4339 159.412 35.3595C159.488 35.2851 159.534 35.1833 159.54 35.075V20.775L168.583 35.35C168.61 35.3954 168.65 35.4314 168.697 35.4537C168.744 35.4759 168.796 35.4833 168.847 35.475H172.286C172.388 35.475 172.486 35.4329 172.558 35.3579C172.63 35.2828 172.671 35.1811 172.671 35.075V11.95Z" fill="#23AF91"/>
<path d="M147.804 11.9499C147.804 11.8372 147.761 11.7291 147.684 11.6494C147.607 11.5697 147.503 11.5249 147.395 11.5249H143.691C143.587 11.5313 143.489 11.5789 143.418 11.6579C143.346 11.7369 143.306 11.8414 143.307 11.9499V35.0499C143.306 35.1584 143.346 35.2629 143.418 35.3419C143.489 35.4209 143.587 35.4685 143.691 35.4749H147.395C147.503 35.4749 147.607 35.4301 147.684 35.3504C147.761 35.2707 147.804 35.1626 147.804 35.0499V11.9499Z" fill="#23AF91"/>
<path d="M103.411 23.5C103.411 22.35 103.411 21.4 103.459 20.625C103.479 20.0054 103.535 19.3875 103.628 18.775C103.964 16.7 105.479 15.5 107.427 15.5C108.678 15.5 109.832 16 110.554 17.1C110.904 17.6094 111.149 18.188 111.275 18.8C111.299 18.85 111.323 18.9 111.395 18.9H115.772C115.845 18.9 115.869 18.85 115.845 18.775C115.364 15.975 113.921 13.45 111.395 12.2C110.135 11.6061 108.763 11.3074 107.379 11.325C106.227 11.2993 105.083 11.5189 104.016 11.9703C102.949 12.4218 101.982 13.0955 101.175 13.95C100.213 14.9251 99.5594 16.1804 99.2989 17.55C99.0584 18.9 98.9141 20.875 98.9141 23.5C98.9141 26.125 99.0584 28.1 99.2989 29.45C99.5594 30.8197 100.213 32.075 101.175 33.05C101.982 33.9046 102.949 34.5783 104.016 35.0298C105.083 35.4812 106.227 35.7008 107.379 35.675C108.763 35.6926 110.135 35.3939 111.395 34.8C113.921 33.55 115.364 31.025 115.845 28.225C115.869 28.15 115.845 28.1 115.772 28.1H111.395C111.323 28.1 111.299 28.15 111.275 28.2C111.149 28.812 110.904 29.3906 110.554 29.9C109.832 31 108.678 31.5 107.427 31.5C105.479 31.5 103.964 30.3 103.628 28.225C103.535 27.6126 103.479 26.9947 103.459 26.375C103.411 25.6 103.411 24.65 103.411 23.5Z" fill="#23AF91"/>
<path d="M57.3077 11.925C57.3077 11.8725 57.2978 11.8205 57.2784 11.7719C57.2591 11.7234 57.2307 11.6793 57.195 11.6422C57.1593 11.605 57.1169 11.5756 57.0702 11.5555C57.0235 11.5354 56.9735 11.525 56.9229 11.525H53.2194C53.115 11.5248 53.0145 11.5662 52.9385 11.6405C52.8625 11.7149 52.8167 11.8167 52.8105 11.925V35.075C52.8167 35.1833 52.8625 35.2851 52.9385 35.3595C53.0145 35.4339 53.115 35.4752 53.2194 35.475H56.9229C56.9735 35.475 57.0235 35.4647 57.0702 35.4446C57.1169 35.4245 57.1593 35.395 57.195 35.3579C57.2307 35.3207 57.2591 35.2766 57.2784 35.2281C57.2978 35.1796 57.3077 35.1275 57.3077 35.075V28.275L60.2898 24.575L66.3982 35.35C66.4217 35.3876 66.4538 35.4187 66.4915 35.4405C66.5292 35.4622 66.5715 35.4741 66.6146 35.475H71.1358C71.3282 35.475 71.3763 35.325 71.2561 35.15L63.2718 21.05L70.6067 11.9C70.751 11.7 70.7029 11.525 70.4625 11.525H65.5324C65.5043 11.524 65.4763 11.5303 65.4511 11.5434C65.4259 11.5565 65.4042 11.576 65.3881 11.6L57.3077 21.675V11.925Z" fill="#23AF91"/>
<path d="M84.3148 31.4999C82.2466 31.4999 80.3467 29.4999 80.3467 27.0999V11.9249C80.3467 11.8188 80.3062 11.7171 80.234 11.6421C80.1619 11.567 80.064 11.5249 79.962 11.5249H76.2344C76.1323 11.5249 76.0345 11.567 75.9623 11.6421C75.8901 11.7171 75.8496 11.8188 75.8496 11.9249V27.0499C75.8496 32.3249 79.6493 35.6749 84.3148 35.6749C88.9803 35.6749 92.8041 32.3249 92.8041 27.0499V11.9249C92.798 11.8166 92.7522 11.7148 92.6762 11.6404C92.6001 11.566 92.4996 11.5247 92.3953 11.5249H88.6917C88.5897 11.5249 88.4918 11.567 88.4196 11.6421C88.3475 11.7171 88.3069 11.8188 88.3069 11.9249V27.0999C88.3069 29.4999 86.4071 31.4999 84.3148 31.4999Z" fill="#23AF91"/>
<path fill-rule="evenodd" clip-rule="evenodd" d="M15.5352 23.5001L27.0547 35.4751L34.3174 27.9251C34.9329 27.2853 35.7677 26.9258 36.6381 26.9258C37.5086 26.9258 38.3434 27.2853 38.9589 27.9251C39.5744 28.5649 39.9201 29.4327 39.9201 30.3376C39.9201 31.2424 39.5744 32.1102 38.9589 32.7501L29.3874 42.7251C28.7632 43.3573 27.9261 43.7111 27.0547 43.7111C26.1832 43.7111 25.3461 43.3573 24.7219 42.7251L10.8938 28.3251V36.8751C10.9327 37.3478 10.8768 37.8237 10.7295 38.2728C10.5822 38.7218 10.3468 39.1341 10.0382 39.4836C9.72958 39.8331 9.35448 40.1121 8.93667 40.303C8.51887 40.4939 8.06748 40.5924 7.61111 40.5924C7.15473 40.5924 6.70334 40.4939 6.28554 40.303C5.86773 40.1121 5.49263 39.8331 5.18401 39.4836C4.87538 39.1341 4.63998 38.7218 4.4927 38.2728C4.34541 37.8237 4.28948 37.3478 4.32843 36.8751V10.1251C4.28948 9.6524 4.34541 9.17645 4.4927 8.72742C4.63998 8.27838 4.87538 7.86604 5.18401 7.51656C5.49263 7.16707 5.86773 6.88804 6.28554 6.69717C6.70334 6.50629 7.15473 6.40773 7.61111 6.40773C8.06748 6.40773 8.51887 6.50629 8.93667 6.69717C9.35448 6.88804 9.72958 7.16707 10.0382 7.51656C10.3468 7.86604 10.5822 8.27838 10.7295 8.72742C10.8768 9.17645 10.9327 9.6524 10.8938 10.1251V18.6751L24.7219 4.27509C25.3461 3.64287 26.1832 3.28906 27.0547 3.28906C27.9261 3.28906 28.7632 3.64287 29.3874 4.27509L38.9589 14.2501C39.5744 14.8899 39.9201 15.7577 39.9201 16.6626C39.9201 17.5674 39.5744 18.4352 38.9589 19.0751C38.3434 19.7149 37.5086 20.0744 36.6381 20.0744C35.7677 20.0744 34.9329 19.7149 34.3174 19.0751L27.0547 11.5251L15.5352 23.5001ZM27.0547 20.0751C26.403 20.0751 25.766 20.276 25.2242 20.6523C24.6824 21.0286 24.2601 21.5636 24.0107 22.1894C23.7614 22.8152 23.6961 23.5039 23.8233 24.1683C23.9504 24.8327 24.2642 25.4429 24.7249 25.9219C25.1857 26.4009 25.7728 26.7271 26.4119 26.8593C27.051 26.9914 27.7135 26.9236 28.3155 26.6644C28.9175 26.4051 29.4321 25.9661 29.7941 25.4029C30.1561 24.8397 30.3494 24.1775 30.3494 23.5001C30.3494 22.5917 30.0022 21.7206 29.3844 21.0782C28.7665 20.4359 27.9285 20.0751 27.0547 20.0751Z" fill="#23AF91"/>
</svg>
