<svg width="217" height="30" viewBox="0 0 217 30" fill="none" xmlns="http://www.w3.org/2000/svg">
<path d="M163.799 15.4282V7.75488H171.472H179.145V15.4282V23.1014H171.472H163.799V15.4282ZM176.064 15.3985V10.7768H171.472H166.88V15.3985V20.0203H171.472H176.064V15.3985Z" fill="#00FF02" stroke="#00FF02" stroke-width="0.75844"/>
<path d="M145.371 15.4292V7.75488H153.044H160.718V15.4282V23.1014H159.177H157.636V16.9391V10.7768H153.045H148.453L148.438 16.9243L148.423 23.0718L146.897 23.0876L145.371 23.1035V15.4292Z" fill="#00FF02" stroke="#00FF02" stroke-width="0.75844"/>
<path d="M108.516 15.4282V7.75488H116.189H123.862V9.26584V10.7768H117.729H111.597V12.3174V13.858H114.648H117.7V15.3985V16.9391H114.648H111.597V18.4797V20.0203H117.729H123.862V21.5609V23.1014H116.189H108.516V15.4282Z" fill="#00FF02" stroke="#00FF02" stroke-width="0.75844"/>
<path d="M34.7441 15.4282V7.75488H36.2847H37.8253V10.8064V13.858H42.4111C46.5381 13.858 47.0005 13.8486 47.0328 13.7642C47.0526 13.7127 47.0688 12.3395 47.0688 10.7127V7.75488H48.6094H50.15V15.4282V23.1014H48.6094H47.0688L47.0679 20.0943C47.0674 18.4404 47.0457 17.0538 47.0197 17.0128C46.9823 16.9539 46.0215 16.9415 42.4137 16.9536L37.8549 16.9687L37.8396 20.0351L37.8242 23.1014H36.2842H34.7441V15.4282Z" fill="#00FF02" stroke="#00FF02" stroke-width="0.75844"/>
<path d="M90.0879 15.4282V7.75488H91.5983H93.1087L93.1241 10.7916L93.1394 13.8283L96.2058 13.8437L99.2721 13.859V12.3179V10.7768H100.813H102.353V9.26584V7.75488H103.894H105.434V9.26584V10.7768H103.894H102.353V12.3164V13.8559L100.828 13.8718L99.3018 13.8876L99.2859 15.4134L99.2701 16.9391H100.812H102.353V18.4797V20.0203H103.894H105.434V21.5609V23.1014H103.894H102.353V21.5609V20.0203H100.813H99.2721V18.4792V16.9381L96.2058 16.9534L93.1394 16.9687L93.1241 20.0351L93.1087 23.1014H91.5983H90.0879V15.4282Z" fill="#00FF02"/>
<path d="M102.353 10.7768H100.813H99.2721V12.3179V13.859L96.2058 13.8437L93.1394 13.8283L93.1241 10.7916L93.1087 7.75488H91.5983H90.0879V15.4282V23.1014H91.5983H93.1087L93.1241 20.0351L93.1394 16.9687L96.2058 16.9534L99.2721 16.9381V18.4792V20.0203H100.813H102.353M102.353 10.7768V9.26584V7.75488H103.894H105.434V9.26584V10.7768H103.894H102.353ZM102.353 10.7768V12.3164V13.8559L100.828 13.8718L99.3018 13.8876L99.2859 15.4134L99.2701 16.9391H100.812H102.353V18.4797V20.0203M102.353 20.0203H103.894H105.434V21.5609V23.1014H103.894H102.353V21.5609V20.0203Z" stroke="#00FF02" stroke-width="0.75844"/>
<path d="M182.227 15.4282V7.75488H189.9H197.573V15.4282V23.1014H189.9H182.227V15.4282ZM194.492 15.3985V10.7768H189.9H185.308V15.3985V20.0203H189.9H194.492V15.3985Z" fill="#00FF02" stroke="#00FF02" stroke-width="0.75844"/>
<path d="M126.943 15.4292V7.75488H134.617H142.29V12.347V16.9391H140.749H139.209V18.4797V20.0203H140.749H142.29V21.5609V23.1014H140.749H139.209V21.5609V20.0203H137.668H136.128V18.4797V16.9391H133.077H130.026L130.01 20.0055L129.995 23.0718L128.469 23.0876L126.943 23.1035V15.4292ZM139.209 12.3174V10.7768H134.617H130.025V12.3174V13.858H134.617H139.209V12.3174Z" fill="#00FF02"/>
<path d="M139.209 20.0203V18.4797V16.9391H140.749H142.29V12.347V7.75488H134.617H126.943V15.4292V23.1035L128.469 23.0876L129.995 23.0718L130.01 20.0055L130.026 16.9391H133.077H136.128V18.4797V20.0203H137.668H139.209ZM139.209 20.0203H140.749H142.29V21.5609V23.1014H140.749H139.209V21.5609V20.0203ZM139.209 12.3174V10.7768H134.617H130.025V12.3174V13.858H134.617H139.209V12.3174Z" stroke="#00FF02" stroke-width="0.75844"/>
<path d="M53.1719 15.4282V7.75488H60.8452H68.5184V15.4282V23.1014H67.0075H65.4965V20.0203V16.9391H60.8748H56.253V20.0203V23.1014H54.7125H53.1719V15.4282ZM65.4965 12.317V10.7761L60.8896 10.7912L56.2827 10.8064L56.2668 12.3322L56.251 13.858H60.8738H65.4965V12.317Z" fill="#00FF02" stroke="#00FF02" stroke-width="0.75844"/>
<path d="M71.6602 15.4282V7.75488H79.3334H87.0067V9.26554V10.7763L80.8592 10.7913L74.7117 10.8064L74.6965 15.4134L74.6814 20.0203H80.844H87.0067V21.5609V23.1014H79.3334H71.6602V15.4282Z" fill="#00FF02" stroke="#00FF02" stroke-width="0.75844"/>
<path d="M200.654 15.4282V7.75488H208.328H216.001V15.4282V23.1014H214.46H212.92V16.9391V10.7768H208.328H203.735V16.9391V23.1014H202.195H200.654V15.4282Z" fill="#00FF02" stroke="#00FF02" stroke-width="0.75844"/>
<path d="M5.41436 26.1534V22.8649H4.31818H3.22199V20.6738V18.4828L2.111 18.4666L1 18.4505V15.2212V11.9919L2.111 11.9758L3.22199 11.9597V9.76863V7.57757H4.31818H5.41436V4.28879V1L13.0432 1.01505L20.672 1.0301L20.6873 4.30384L20.7027 7.57757H21.7983H22.894V9.76857V11.9596L23.9754 11.9758L25.0568 11.9919L25.073 13.0733L25.0891 14.1547H26.1543H27.2195V15.2212V16.2878H26.153H25.0864V17.2902C25.0864 17.8416 25.0702 18.3349 25.0504 18.3864C25.0195 18.4671 24.8664 18.4802 23.9543 18.4802H22.894V20.6725V22.8649H21.7979H20.7017V26.1534V29.442H13.058H5.41436V26.1534ZM16.3169 23.9611V22.8649H18.4797H20.6424V20.6725V18.4802H21.7386H22.8348V15.2212V11.9623H21.7386H20.6424V9.76994V7.57757H18.4797H16.3169V6.48139V5.38521H15.2208H14.1246V10.8365V16.2878H13.0284H11.9322V10.8365V5.38521H10.836H9.73984V6.48139V7.57757H7.5771H5.41436V9.76994V11.9623H4.31818H3.22199V15.2212V18.4802H4.31818H5.41436V20.6725V22.8649H7.5771H9.73984V23.9611V25.0572H13.0284H16.3169V23.9611Z" fill="#00FF02"/>
<path d="M5.41436 22.8649V26.1534V29.442H13.058H20.7017V26.1534V22.8649H21.7979H22.894V20.6725V18.4801H23.9543C24.8664 18.4801 25.0195 18.4671 25.0504 18.3864C25.0702 18.3349 25.0864 17.8416 25.0864 17.2902V16.2878H26.153H27.2195V15.2212V14.1547H26.1543H25.0891L25.073 13.0733L25.0568 11.9919L23.9754 11.9758L22.894 11.9596V9.76857V7.57757H21.7983H20.7027L20.6873 4.30384L20.672 1.0301L13.0432 1.01505L5.41436 1V4.28879V7.57757M5.41436 22.8649H4.31818H3.22199V20.6738V18.4828L2.111 18.4666L1 18.4505V15.2212V11.9919L2.111 11.9758L3.22199 11.9597V9.76863V7.57757H4.31818H5.41436M5.41436 22.8649V20.6725V18.4801H4.31818H3.22199V15.2212V11.9623H4.31818H5.41436V9.76994V7.57757M5.41436 22.8649H7.5771H9.73984V23.9611V25.0572H13.0284H16.3169V23.9611V22.8649H18.4797H20.6424V20.6725V18.4801H21.7386H22.8348V15.2212V11.9623H21.7386H20.6424V9.76994V7.57757H18.4797H16.3169V6.48139V5.38521H15.2208H14.1246V10.8365V16.2878H13.0284H11.9322V10.8365V5.38521H10.836H9.73984V6.48139V7.57757H7.5771H5.41436" stroke="#00FF02" stroke-width="0.75844"/>
<path d="M9.7405 23.9606V22.8644H7.57776H5.41502V20.6721V18.4797H4.31884H3.22266V15.2208V11.9619H4.31884H5.41502V9.7695V7.57713H7.57776H9.7405V6.48095V5.38477H10.8367H11.9329V10.8361V16.2873H13.029H14.1252V10.8361V5.38477H15.2214H16.3176V6.48095V7.57713H18.4803H20.6431V9.7695V11.9619H21.7393H22.8354V15.2208V18.4797H21.7393H20.6431V20.6721V22.8644H18.4803H16.3176V23.9606V25.0568H13.029H9.7405V23.9606Z" fill="white" stroke="white" stroke-width="0.75844"/>
</svg>
