<svg width="176" height="54" viewBox="0 0 176 54" fill="none" xmlns="http://www.w3.org/2000/svg">
<path d="M116.059 53.3721C112.323 52.992 109.478 51.627 107.669 49.3461C106.904 48.3813 106.291 47.1464 106.039 46.0617C105.94 45.6323 105.812 44.649 105.812 44.3078V44.0345L109.231 44.0473L112.648 44.0602L112.71 44.4277C112.949 45.8565 113.861 46.9772 115.205 47.4947C116.672 48.0598 118.93 48.0082 120.431 47.3752C121.631 46.8688 122.464 45.7816 122.804 44.2785C122.898 43.8648 122.914 43.5902 122.942 41.9432C122.959 40.9167 122.97 40.0769 122.968 40.0769C122.965 40.077 122.694 40.3423 122.366 40.6665C121.244 41.7768 119.905 42.5213 118.382 42.8816C116.736 43.271 114.709 43.2032 112.952 42.6999C109.599 41.7394 106.702 38.75 105.58 35.0917C105.183 33.7987 105.014 32.7348 104.976 31.2838C104.882 27.6947 105.658 24.931 107.427 22.5523C108.822 20.6765 110.75 19.3607 112.948 18.7846C114.061 18.493 114.378 18.4586 115.933 18.461C117.275 18.4631 117.403 18.4714 118.049 18.598C120.048 18.9902 121.638 19.833 123.022 21.2343C123.242 21.4568 123.433 21.6389 123.448 21.6389C123.462 21.6389 123.467 21.0189 123.458 20.2611L123.443 18.8832H126.751H130.06L130.045 31.3715C130.028 44.9856 130.045 44.1428 129.755 45.4847C129.166 48.2008 127.409 50.4881 124.851 51.8668C123.945 52.3551 122.524 52.8547 121.401 53.0792C120.155 53.3284 119.721 53.3663 117.963 53.3796C117.026 53.3867 116.169 53.3834 116.059 53.3721ZM118.965 36.8725C119.43 36.7445 120.08 36.4514 120.426 36.2131C120.815 35.9459 121.465 35.2922 121.745 34.8875C122.222 34.1973 122.598 33.2515 122.779 32.2859C122.908 31.5965 122.907 30.0009 122.778 29.2797C122.424 27.313 121.426 25.8415 119.942 25.0971C119.048 24.6485 118.211 24.4705 117.186 24.5101C116.307 24.5441 115.732 24.6914 114.968 25.0775C113.478 25.8305 112.405 27.5872 112.171 29.6542C112.087 30.4071 112.139 31.9983 112.269 32.6006C112.469 33.5321 112.825 34.3696 113.309 35.0473C113.857 35.8158 114.816 36.5316 115.652 36.7976C116.263 36.9919 116.485 37.0152 117.562 36.9982C118.406 36.985 118.627 36.9653 118.965 36.8725Z" fill="#03AAC1" stroke="#03AAC1" stroke-width="0.626293"/>
<path d="M96.8073 44.056C95.7513 43.9021 94.667 43.5623 94.0624 43.196C92.6809 42.3594 91.8444 41.1149 91.3919 39.2239C91.0091 37.6235 91.0175 37.7996 90.9956 30.9944L90.9762 24.9444H88.774H86.5719V23.0486C86.5719 22.006 86.557 20.6419 86.5388 20.0174L86.5059 18.8819H88.7434H90.981V14.6482V10.4144H94.434C96.3331 10.4144 97.9227 10.4008 97.9663 10.3841C98.0383 10.3564 98.0456 10.7499 98.0456 14.6178V18.8819H100.626H103.206V21.9132V24.9444H100.649H98.0921L98.1074 30.6437C98.1225 36.3165 98.1231 36.3447 98.2314 36.7272C98.3836 37.2656 98.4986 37.4666 98.8259 37.7656C99.42 38.3085 99.6808 38.3696 101.567 38.4074L103.01 38.4364L102.995 41.2522L102.981 44.068L100.851 44.1009C98.0485 44.1443 97.361 44.1367 96.8073 44.056Z" fill="#03AAC1" stroke="#03AAC1" stroke-width="0.626293"/>
<path d="M143.915 44.4555C143.832 44.4435 143.483 44.399 143.138 44.3567C140.691 44.0562 138.715 43.3199 137.063 42.093C134.426 40.1356 132.852 37.3964 132.278 33.7671C132.158 33.0058 132.147 32.8123 132.146 31.4096C132.146 29.6954 132.207 29.1305 132.541 27.7771C133.046 25.7262 134.063 23.845 135.467 22.3649C137.263 20.4703 139.442 19.2567 142.02 18.714C143.283 18.4483 145.087 18.3552 146.47 18.4843C151.803 18.9825 155.93 22.4426 157.225 27.5015C157.508 28.6074 157.571 29.0814 157.603 30.3608C157.631 31.4602 157.593 32.1493 157.458 32.9753L157.403 33.3135H148.417C143.474 33.3135 139.43 33.325 139.43 33.339C139.43 33.4918 139.615 34.4401 139.712 34.7915C140.365 37.1331 141.796 38.5774 143.789 38.9048C144.35 38.9969 145.548 38.9942 146.132 38.8995C146.648 38.8158 147.45 38.5741 147.804 38.3953C148.103 38.2445 148.765 37.7425 149.034 37.4638C149.369 37.1152 149.632 36.7357 149.862 36.2651L150.077 35.8259L153.672 35.8223C155.701 35.8202 157.267 35.8378 157.267 35.8626C157.267 35.8867 157.165 36.2081 157.039 36.5765C156.603 37.8606 155.812 39.2856 154.981 40.2852C153.489 42.0789 151.363 43.397 148.973 44.0115C147.772 44.3201 146.74 44.4478 145.318 44.4635C144.629 44.4711 143.997 44.4675 143.915 44.4555ZM149.876 28.3658C149.722 27.0293 149.288 26.0264 148.493 25.1755C147.686 24.3113 146.692 23.8333 145.405 23.6897C144.606 23.6005 143.469 23.759 142.763 24.0582C141.613 24.5448 140.586 25.64 140.092 26.9056C139.906 27.3825 139.691 28.0861 139.607 28.491L139.573 28.6539H144.741H149.909L149.876 28.3658Z" fill="#03AAC1" stroke="#03AAC1" stroke-width="0.626293"/>
<path d="M77.0527 31.4829V18.8818H80.6351H84.2175V31.4829V44.0839H80.6351H77.0527V31.4829Z" fill="#03AAC1" stroke="#03AAC1" stroke-width="0.626293"/>
<path d="M168.893 44.0989C167.322 43.9483 166.273 43.6396 165.402 43.0711C164.659 42.5856 163.931 41.7711 163.531 40.9752C163.145 40.2086 162.828 39.1394 162.683 38.1193C162.526 37.0033 162.513 36.5511 162.484 30.8042L162.454 24.9171L160.262 24.9372L158.07 24.9573V21.9185V18.8796H160.275H162.479V14.6459V10.4121H166.037H169.594V14.6459V18.8796H172.174H174.755V21.9109V24.9421H172.173H169.591L169.606 30.5913L169.621 36.2404L169.733 36.6413C169.962 37.4521 170.241 37.8375 170.803 38.1137C171.29 38.3532 171.813 38.418 173.264 38.419L174.504 38.4199V41.2427V44.0655L173.114 44.0985C171.739 44.1312 169.232 44.1313 168.893 44.0989Z" fill="#03AAC1" stroke="#03AAC1" stroke-width="0.626293"/>
<path d="M16.7692 42.7239C20.0112 39.5325 22.4172 37.1474 26.5077 33.0706C28.8966 30.6894 30.8807 28.7229 30.9168 28.7005C30.9631 28.6716 30.3439 28.0197 28.7946 26.4662C27.5914 25.2598 24.8713 22.5254 22.7499 20.3898L18.893 16.5068L24.222 16.4939L29.551 16.4812L30.6173 17.547C31.2038 18.1332 33.7128 20.6313 36.1929 23.0983C41.1347 28.0137 40.9489 27.8066 41.0109 28.47C41.0482 28.8699 40.9331 29.3338 40.7181 29.6496C40.6301 29.7788 38.4473 32.0038 35.8675 34.5941C33.2878 37.1845 30.1072 40.3802 28.7998 41.6959L26.4227 44.0881L20.9027 44.0883L15.3828 44.0887L16.7692 42.7239Z" fill="#03AAC1" stroke="#03AAC1" stroke-width="0.626293"/>
<path d="M6.87561 23.0575L1.2565 17.459L1.12112 17.0939C1.00458 16.7797 0.988551 16.6717 1.00589 16.3173C1.02032 16.0207 1.059 15.8358 1.14417 15.6553C1.27644 15.375 1.91717 14.7216 10.5389 6.07398L15.5977 1H21.0648C24.0717 1 26.5459 1.01393 26.5631 1.03106C26.5801 1.0482 26.2288 1.41325 25.7822 1.84244C24.9182 2.67285 21.9895 5.57485 15.2354 12.2936L11.0618 16.4454L11.5027 16.9017C11.7451 17.1528 14.1637 19.5904 16.8774 22.3187C19.591 25.047 22.1164 27.5871 22.4892 27.9634L23.1672 28.6475L17.8309 28.6518L12.4946 28.6562L6.87561 23.0575Z" fill="#03AAC1" stroke="#03AAC1" stroke-width="0.626293"/>
<path d="M48.5125 44.0061C48.5293 43.9625 48.5429 36.386 48.5429 27.1695V10.4121L56.121 10.4295C63.5338 10.4466 63.7145 10.4492 64.4006 10.5528C66.2337 10.8296 67.6312 11.2444 68.91 11.8918C70.9227 12.9106 72.1874 14.2444 72.9376 16.1397C73.305 17.0678 73.4482 17.8583 73.4803 19.1338C73.5026 20.0262 73.4921 20.2416 73.4009 20.7757C73.2693 21.5456 73.1187 22.0032 72.7462 22.7663C72.4044 23.4663 71.8897 24.1788 71.2721 24.8071C70.823 25.2642 69.9192 25.9673 69.4201 26.2481C69.2599 26.3383 69.1471 26.4295 69.1696 26.4505C69.1921 26.4717 69.3797 26.5602 69.5863 26.6469C71.8096 27.5819 73.5272 29.3267 74.1939 31.3279C74.4741 32.1693 74.5556 32.7214 74.5832 33.969C74.6145 35.3851 74.5231 36.1638 74.2107 37.146C73.7768 38.5091 73.1537 39.5494 72.143 40.5968C70.6371 42.1577 68.543 43.2168 66.004 43.7017C64.0548 44.074 63.7545 44.085 55.6398 44.0852C49.1334 44.0853 48.4848 44.0781 48.5125 44.0061ZM63.0164 37.8962C64.7185 37.6513 65.8494 37.078 66.5619 36.0987C66.7933 35.7808 67.0456 35.2243 67.1632 34.7727C67.4325 33.7391 67.1758 32.3086 66.5908 31.5824C65.8995 30.7245 64.802 30.1463 63.3485 29.8745C62.8885 29.7885 62.5516 29.7808 59.24 29.7808H55.6325L55.6171 33.5636C55.6087 35.6442 55.6162 37.4873 55.6336 37.6596L55.6656 37.9727H59.0747C61.8684 37.9727 62.5801 37.9589 63.0164 37.8962ZM62.7472 23.5232C64.5498 23.176 65.6341 22.3241 66.0065 20.9626C66.0517 20.7973 66.0998 20.4365 66.1137 20.1609C66.1947 18.5325 65.2963 17.3685 63.5238 16.8059C62.5844 16.5077 62.6777 16.5141 59.002 16.4925L55.6075 16.4725V20.0616V23.6505L58.9519 23.6303C61.861 23.6127 62.355 23.5987 62.7472 23.5232Z" fill="#03AAC1" stroke="#03AAC1" stroke-width="0.626293"/>
<path d="M76.9023 13.4383V10.3945L80.6193 10.4081C82.6636 10.4154 84.3378 10.4267 84.3395 10.4331C84.3413 10.4394 84.3355 11.8031 84.3267 13.4634L84.3106 16.4821H80.6065H76.9023V13.4383Z" fill="#03AAC1" stroke="#03AAC1" stroke-width="0.626293"/>
</svg>
