<svg width="26" height="18" viewBox="0 0 26 18" fill="none" xmlns="http://www.w3.org/2000/svg">
<path d="M21.8845 0.922852H4.15101C2.13774 0.922852 0.5 2.56059 0.5 4.57386V13.9622C0.5 15.9755 2.13774 17.6132 4.15101 17.6132H21.8845C23.8978 17.6132 25.5355 15.9755 25.5355 13.9622V4.57386C25.5355 2.56059 23.8978 0.922852 21.8845 0.922852Z" fill="white" fill-opacity="0.4"/>
<path d="M9.88761 14.4842C7.01165 14.4842 4.67188 12.1444 4.67188 9.26847C4.67188 6.39251 7.01165 4.05273 9.88761 4.05273C12.7636 4.05273 15.1033 6.39251 15.1033 9.26847C15.1033 12.1444 12.7636 14.4842 9.88761 14.4842Z" fill="#EE2C3C"/>
<path d="M16.1532 4.05273C14.456 4.05273 12.9602 4.87995 12.0078 6.13903H14.0409C14.286 6.4624 14.504 6.80664 14.6688 7.18217H11.3808C11.2315 7.51683 11.1186 7.86655 11.0439 8.22532H15.0058C15.0736 8.56226 15.1101 8.91171 15.1101 9.26847H10.9375C10.9375 9.62522 10.974 9.97468 11.0429 10.3116H15.0047C14.9301 10.6704 14.8171 11.0201 14.6678 11.3548H11.3798C11.5446 11.7303 11.7626 12.0745 12.0078 12.3979H14.0409C13.7501 12.7817 13.4079 13.1236 13.0238 13.4139C13.9213 14.1043 15.0209 14.4804 16.1532 14.4842C19.0292 14.4842 21.369 12.1444 21.369 9.26847C21.369 6.39251 19.0292 4.05273 16.1532 4.05273Z" fill="#F99D3C"/>
</svg>
