<svg width="26" height="26" viewBox="0 0 26 26" fill="none" xmlns="http://www.w3.org/2000/svg">
<path fill-rule="evenodd" clip-rule="evenodd" d="M0 12.7907C0 9.39839 1.34759 6.14503 3.74631 3.74631C6.14503 1.34759 9.39839 0 12.7907 0C16.183 0 19.4364 1.34759 21.8351 3.74631C24.2338 6.14503 25.5814 9.39839 25.5814 12.7907C25.5814 16.183 24.2338 19.4364 21.8351 21.8351C19.4364 24.2338 16.183 25.5814 12.7907 25.5814C9.39839 25.5814 6.14503 24.2338 3.74631 21.8351C1.34759 19.4364 0 16.183 0 12.7907ZM12.0608 18.2651L19.4248 9.05923L18.0946 7.99504L11.8152 15.8417L7.36744 12.1358L6.27597 13.4456L12.0608 18.2651Z" fill="#E6AE00"/>
</svg>
