<svg width="53" height="52" viewBox="0 0 53 52" fill="none" xmlns="http://www.w3.org/2000/svg">
<path d="M9.17565 25.9366C9.17565 16.2201 17.0315 8.36426 26.748 8.36426C36.4644 8.36426 44.3203 16.2201 44.3203 25.9366C44.3203 35.653 36.4644 43.5089 26.748 43.5089C17.0315 43.5089 9.17565 35.653 9.17565 25.9366ZM42.253 25.9366C42.253 17.3572 35.3274 10.4316 26.748 10.4316C18.1685 10.4316 11.243 17.3572 11.243 25.9366C11.243 34.516 18.1685 41.4416 26.748 41.4416C35.3274 41.4416 42.253 34.516 42.253 25.9366Z" fill="#D0D0D0"/>
<path d="M24.995 34.5152L33.5745 25.9357L24.9951 17.3563L26.4422 15.9092L36.4687 25.9357L26.4422 35.9623L24.995 34.5152Z" fill="#D0D0D0"/>
<path d="M35.0156 24.9033L35.0156 26.9707L17.4433 26.9707L17.4433 24.9033L35.0156 24.9033Z" fill="#D0D0D0"/>
</svg>
