<svg width="168" height="40" viewBox="0 0 168 40" fill="none" xmlns="http://www.w3.org/2000/svg">
<g clip-path="url(#clip0_4426_12201)">
<path d="M34.4898 6.12162L34.6939 7.38693C34.6939 7.46856 34.9388 8.8155 34.9388 10.9788C34.9388 13.0196 34.7347 15.7543 34 18.8155C33.2653 21.7135 32 25.1828 29.6327 28.5706C27.2653 31.9584 23.8367 35.3053 18.8571 37.9584L18.2449 38.2849L17.6735 37.9584C12.6939 35.3053 9.26531 31.9584 6.93878 28.5706C4.57143 25.1828 3.26531 21.7135 2.57143 18.8155C1.83673 15.7543 1.63265 13.0196 1.63265 10.9788C1.63265 8.8155 1.83673 7.46856 1.87755 7.38693L2.04082 6.12162C2.12245 5.67264 1.83673 5.26448 1.38776 5.22366C0.938776 5.14203 0.530612 5.42774 0.489796 5.87672L0.285714 7.14203C0.244898 7.26448 0 8.73386 0 10.9788C0 13.1012 0.204082 15.9992 0.979592 19.1828C1.71429 22.2441 3.10204 25.8767 5.59184 29.4686C8.08163 33.0604 11.6735 36.5706 16.898 39.3869L17.8776 39.9175C18.1224 40.04 18.4082 40.04 18.6531 39.9175L19.6327 39.3869C24.8163 36.5706 28.449 33.0604 30.9388 29.4686C33.4286 25.8767 34.8163 22.2441 35.551 19.1828C36.3265 15.9992 36.5306 13.1012 36.5306 10.9379C36.5306 8.69305 36.2857 7.26448 36.2857 7.10121L36.0816 5.83591C36 5.38693 35.5918 5.10121 35.1837 5.18284C34.7347 5.26448 34.4082 5.67264 34.4898 6.12162Z" fill="white"/>
<path d="M6.41141 5.26487L18.289 1.63221L30.4114 5.3465C30.8196 5.46895 31.2686 5.22405 31.391 4.81589C31.5135 4.40773 31.2686 3.95875 30.8604 3.8363L18.493 0.0403779C18.3706 -0.000438456 18.2073 -0.000438456 18.0441 0.0403779L5.92162 3.71385C5.51345 3.8363 5.26856 4.28528 5.391 4.69344C5.51345 5.14242 5.96243 5.38732 6.41141 5.26487Z" fill="white"/>
<path d="M0.533172 6.36716L17.5536 39.5508C17.676 39.7957 17.9617 39.9998 18.2475 39.9998C18.5332 39.9998 18.8189 39.8365 18.9413 39.5916L29.3087 20.2039V20.1631L35.9617 6.36716C36.1658 5.95899 36.0026 5.51001 35.5944 5.30593C35.1862 5.10185 34.7373 5.26511 34.5332 5.67328L27.9209 19.4284L18.2883 37.4692L1.96174 5.63246C1.75766 5.2243 1.26787 5.10185 0.900519 5.30593C0.492356 5.4692 0.329091 5.95899 0.533172 6.36716Z" fill="white"/>
<path d="M8.69133 21.1424H27.6301C28.0791 21.1424 28.4464 20.7751 28.4464 20.3261C28.4464 19.8771 28.0791 19.5098 27.6301 19.5098H8.69133C8.24235 19.5098 7.875 19.8771 7.875 20.3261C7.875 20.7751 8.24235 21.1424 8.69133 21.1424Z" fill="white"/>
<path d="M61.4726 14.2448H49.146C48.942 14.2448 48.7379 14.3264 48.5746 14.4897C48.4114 14.6529 48.3297 14.8162 48.3297 15.0611V24.9386C48.3297 25.1427 48.4114 25.3468 48.5746 25.5101C48.7379 25.6733 48.9011 25.755 49.146 25.755H61.4726V27.4284H49.146C48.4522 27.4284 47.8807 27.1835 47.3909 26.6937C46.9011 26.2039 46.6562 25.6325 46.6562 24.9386V15.0611C46.6562 14.3672 46.9011 13.7958 47.3909 13.306C47.8807 12.8162 48.4522 12.5713 49.146 12.5713H61.4726V14.2448Z" fill="white"/>
<path d="M84.5727 12.5713V14.2448H72.736V19.1427H82.2462V20.8162H72.736V25.7141H84.5727V27.3876H71.0625V12.5713H84.5727Z" fill="white"/>
<path d="M108.98 15.0613V19.3878C108.98 20.0817 108.735 20.6531 108.246 21.1429C107.756 21.6327 107.184 21.8776 106.491 21.8776H104.246L108.899 27.3878H106.695L102.082 21.8776H96.6539C96.5314 21.8776 96.2457 21.8368 95.8375 21.796V27.3878H94.1641V12.6123H106.531C107.225 12.6123 107.797 12.8572 108.287 13.347C108.735 13.796 108.98 14.4082 108.98 15.0613ZM96.613 20.2041H106.531C106.735 20.2041 106.94 20.1225 107.103 19.9592C107.266 19.796 107.348 19.6327 107.348 19.3878V15.0613C107.348 14.8572 107.266 14.6531 107.103 14.4899C106.94 14.3266 106.776 14.245 106.531 14.245H96.6539C96.4498 14.245 96.2457 14.3266 96.0824 14.4899C95.9192 14.6531 95.8375 14.8164 95.8375 15.0613V19.3878C95.8375 19.5919 95.9192 19.796 96.0824 19.9592C96.2049 20.1225 96.409 20.2041 96.613 20.2041Z" fill="white"/>
<path d="M117.836 12.5713H132.652V14.2448H126.081V27.3876H124.407V14.2448H117.836V12.5713Z" fill="white"/>
<path d="M141.641 27.4284V12.5713H143.314V27.3876H141.641V27.4284Z" fill="white"/>
<path d="M165.555 12.5713H167.677L161.473 19.9999L167.677 27.4284H165.514L160.004 20.857H155.228V27.4284H153.555V12.5713H155.228V19.1427H160.004L165.555 12.5713Z" fill="white"/>
</g>
<defs>
<clipPath id="clip0_4426_12201">
<rect width="167.714" height="40" fill="white"/>
</clipPath>
</defs>
</svg>
