<svg width="164" height="43" viewBox="0 0 164 43" fill="none" xmlns="http://www.w3.org/2000/svg">
<mask id="mask0_4426_12168" style="mask-type:luminance" maskUnits="userSpaceOnUse" x="0" y="0" width="164" height="43">
<path d="M0.5625 0.349609H163.302V42.3735H0.5625V0.349609Z" fill="white"/>
</mask>
<g mask="url(#mask0_4426_12168)">
<path d="M59.1812 33.1983C57.7504 33.1983 56.4555 32.9695 55.2964 32.5119C54.1643 32.0418 53.1544 31.3189 52.3439 30.3985C51.5358 29.4646 50.9148 28.3136 50.481 26.9455C50.0449 25.5552 49.8274 23.9478 49.8286 22.1233C49.8286 20.2987 50.0461 18.6814 50.481 17.2712C50.916 15.8401 51.5369 14.6477 52.3439 13.694C53.1441 12.7392 54.1548 11.9834 55.2964 11.4859C56.4555 10.9887 57.7499 10.74 59.1795 10.74C61.128 10.74 62.7442 11.1544 64.0281 11.9832C65.3119 12.812 66.3369 14.0669 67.1031 15.7479L63.5925 17.6127C63.2812 16.6391 62.7739 15.8617 62.0708 15.2804C61.3653 14.6792 60.4015 14.3786 59.1795 14.3786C57.6472 14.3786 56.4252 14.8969 55.5133 15.9335C54.6224 16.9701 54.177 18.4216 54.177 20.2882V23.7097C54.177 25.5972 54.6224 27.0488 55.5133 28.0644C56.4252 29.0601 57.6472 29.558 59.1795 29.558C60.4039 29.558 61.3985 29.2259 62.1635 28.5617C62.9506 27.8998 63.5202 27.0809 63.8724 26.105L67.1958 28.0661C66.4098 29.6829 65.3638 30.9471 64.0578 31.8588C62.753 32.7518 61.1274 33.1995 59.1812 33.1983ZM76.2703 33.1983C75.11 33.1983 74.064 33.001 73.1323 32.6065C72.2285 32.2182 71.422 31.6339 70.771 30.8957C70.1072 30.1077 69.6007 29.1994 69.279 28.2202C68.9268 27.1626 68.7507 25.9807 68.7507 24.6745C68.7507 23.3682 68.9268 22.1962 69.279 21.1585C69.5956 20.1869 70.1022 19.2881 70.7692 18.5144C71.4204 17.777 72.2269 17.1933 73.1306 16.8055C74.0634 16.4109 75.11 16.2136 76.2703 16.2136C77.4305 16.2136 78.4765 16.4109 79.4082 16.8055C80.3399 17.2 81.127 17.7697 81.7695 18.5144C82.4342 19.2405 82.9415 20.1219 83.2913 21.1585C83.6446 22.1974 83.8213 23.3694 83.8213 24.6745C83.8213 25.9807 83.6452 27.1626 83.293 28.2202C82.9708 29.2055 82.4532 30.1155 81.7713 30.8957C81.1282 31.6432 80.3188 32.2292 79.4082 32.6065C78.4753 32.9999 77.4294 33.1983 76.2703 33.1983ZM76.2703 29.9922C77.3267 29.9922 78.1547 29.6706 78.754 29.0274C79.3557 28.3854 79.6566 27.4416 79.6566 26.1961V23.1826C79.6566 21.9592 79.3563 21.026 78.7558 20.3828C78.1552 19.7396 77.3267 19.4185 76.2703 19.4197C75.2348 19.4197 74.4162 19.7407 73.8145 20.3828C73.2128 21.0248 72.9125 21.9587 72.9137 23.1844V26.1996C72.9137 27.4439 73.214 28.3877 73.8145 29.0309C74.4162 29.673 75.2348 29.9922 76.2703 29.9922ZM88.6996 14.2228C87.8705 14.2228 87.27 14.036 86.898 13.6624C86.5447 13.2889 86.368 12.812 86.368 12.2319V11.6103C86.368 11.0289 86.5441 10.5521 86.8963 10.1797C87.2694 9.80616 87.8699 9.61939 88.6979 9.61939C89.506 9.61939 90.0966 9.80616 90.4697 10.1797C90.8429 10.5533 91.0295 11.0301 91.0295 11.6103V12.2319C91.0295 12.8132 90.8429 13.2901 90.4697 13.6624C90.0978 14.036 89.5089 14.2228 88.6996 14.2228ZM86.7073 16.5866H90.6849V32.8236H86.7073V16.5866ZM94.6659 32.8236V16.5866H98.6417V19.2936H98.7974C99.1285 18.4216 99.6463 17.6956 100.351 17.1154C101.076 16.5142 102.071 16.2136 103.335 16.2136C105.013 16.2136 106.296 16.7629 107.186 17.8613C108.077 18.961 108.523 20.5269 108.523 22.5592V32.8236H104.545V22.9637C104.545 21.8034 104.338 20.9326 103.924 20.3512C103.509 19.7699 102.826 19.4792 101.874 19.4792C101.459 19.4792 101.055 19.5417 100.662 19.6666C100.289 19.7705 99.9471 19.9363 99.6369 20.1639C99.3414 20.3769 99.097 20.6533 98.9216 20.9728C98.7255 21.3129 98.6286 21.7011 98.6417 22.0935V32.8236H94.6659ZM117.627 33.1983C116.074 33.1983 114.769 32.9386 113.712 32.4191C112.646 31.871 111.696 31.1212 110.915 30.2111L113.34 27.8473C113.939 28.5301 114.592 29.0695 115.299 29.4652C116.022 29.8586 116.85 30.0553 117.782 30.0553C118.736 30.0553 119.42 29.8895 119.834 29.558C120.269 29.2265 120.487 28.77 120.487 28.1887C120.487 27.7124 120.331 27.3389 120.02 27.0681C119.729 26.7786 119.222 26.5819 118.498 26.478L116.882 26.2609C115.121 26.0321 113.774 25.5342 112.841 24.7673C111.932 23.9793 111.477 22.8388 111.477 21.3458C111.477 20.5579 111.621 19.8528 111.911 19.2306C112.201 18.5886 112.615 18.0493 113.152 17.6127C113.691 17.1574 114.334 16.8154 115.08 16.5866C115.904 16.3292 116.764 16.2033 117.627 16.2136C118.414 16.2136 119.108 16.2761 119.708 16.401C120.331 16.5049 120.891 16.6706 121.387 16.8983C121.885 17.1049 122.341 17.3745 122.753 17.7072C123.167 18.0177 123.572 18.3703 123.966 18.7648L121.638 21.0972C121.144 20.5868 120.566 20.1661 119.929 19.854C119.253 19.5185 118.507 19.3475 117.753 19.3549C116.883 19.3549 116.251 19.5108 115.858 19.8224C115.678 19.9677 115.534 20.1527 115.437 20.3628C115.34 20.573 115.293 20.8027 115.299 21.0341C115.299 21.5734 115.454 21.9884 115.764 22.2791C116.096 22.5487 116.646 22.746 117.412 22.8709L119.059 23.0881C122.56 23.5853 124.31 25.1822 124.31 27.8788C124.31 28.6667 124.144 29.3922 123.812 30.0553C123.496 30.7074 123.041 31.2815 122.477 31.7362C121.896 32.1915 121.192 32.5539 120.364 32.8236C119.476 33.0839 118.554 33.2096 117.629 33.1966M136.89 30.1166H136.736C136.59 30.5345 136.391 30.9322 136.145 31.3002C135.9 31.6686 135.595 31.994 135.244 32.2633C134.892 32.5539 134.457 32.7822 133.939 32.9479C133.376 33.122 132.788 33.206 132.199 33.1966C130.521 33.1966 129.236 32.6473 128.345 31.5489C127.456 30.4492 127.011 28.8833 127.011 26.8509V16.5866H130.987V26.4482C130.987 27.5665 131.204 28.4268 131.639 29.0292C132.075 29.6093 132.769 29.8994 133.721 29.8994C134.116 29.8994 134.5 29.8481 134.871 29.7453C135.264 29.6403 135.606 29.4844 135.896 29.2778C136.187 29.0502 136.425 28.7805 136.612 28.4689C136.798 28.1362 136.892 27.7527 136.892 27.3185V16.5866H140.868V32.8236H136.892L136.89 30.1166ZM148.824 32.8236C147.458 32.8236 146.452 32.4816 145.809 31.7975C145.167 31.1135 144.847 30.1492 144.847 28.9049V9.80499H148.824V29.649H150.967V32.8218L148.824 32.8236ZM158.27 32.8236C156.902 32.8236 155.856 32.4711 155.132 31.766C154.427 31.0422 154.075 30.0156 154.075 28.686V19.7594H151.682V16.5866H152.924C153.526 16.5866 153.93 16.4524 154.136 16.1839C154.364 15.892 154.478 15.466 154.479 14.9056V12.1391H158.053V16.5866H161.376V19.7594H158.053V29.6525H161.128V32.8236H158.27ZM14.2355 0.349609H42.5417V28.686C42.5417 30.4836 42.188 32.2636 41.5008 33.9244C40.8135 35.5851 39.8062 37.0941 38.5364 38.3652C37.2665 39.6362 35.759 40.6444 34.0999 41.3321C32.4409 42.0199 30.6627 42.3738 28.867 42.3735H0.5625V14.0371C0.5625 10.407 2.00304 6.92551 4.56722 4.3586C7.1314 1.79169 10.6092 0.349609 14.2355 0.349609Z" fill="#AFAFAF"/>
<path d="M33.7352 16.886L28.9583 19.0782L28.8708 19.1167L26.1597 20.3424C26.1597 20.3319 26.1573 20.3214 26.1527 20.3109C25.9928 19.6436 25.6842 19.021 25.2501 18.4899L25 17.9418L32.5335 14.4854C32.6909 14.7305 32.8373 14.9815 32.9726 15.2383L33.7124 16.8527L33.7352 16.886Z" fill="#020B10"/>
<path d="M34.1858 24.3082C33.9778 25.1947 33.6758 26.0564 33.285 26.8787L24.5078 25.3781L24.59 24.8931C25.2302 24.373 25.7165 23.6866 25.9963 22.9092L34.1858 24.3082Z" fill="#020B10"/>
<path d="M18.3644 25.7056L12.281 30.0183C11.6756 29.3567 11.1415 28.633 10.6875 27.8594L16.813 23.5151L18.3644 25.7056Z" fill="#020B10"/>
<path d="M18.7074 14.6642L17.6107 17.1156L11.1074 14.1984C11.6322 13.421 12.2339 12.7101 12.9125 12.0657L18.7074 14.6642Z" fill="#020B10"/>
<path d="M31.1508 23.7904C30.6644 25.6783 29.6234 27.3767 28.1622 28.6658C26.7011 29.9549 24.8871 30.7754 22.9551 31.0212C21.023 31.2669 19.0617 30.9266 17.3249 30.0442C15.5882 29.1619 14.1559 27.7781 13.2134 26.0719L10.6929 27.8632C11.9874 30.0708 13.9129 31.8396 16.221 32.9415C18.5291 34.0434 21.1141 34.4279 23.6425 34.0454C26.171 33.6629 28.527 32.5309 30.4067 30.7954C32.2865 29.06 33.6039 26.8006 34.189 24.3087L31.1508 23.7904Z" fill="#020B10"/>
<path d="M16.0348 13.4647C17.2654 12.5771 18.6862 11.9896 20.1838 11.749C21.6814 11.5084 23.2145 11.6213 24.6608 12.0788C26.1071 12.5363 27.4267 13.3257 28.5142 14.3841C29.6018 15.4425 30.4274 16.7406 30.9251 18.1749L33.7307 16.8879L33.7167 16.8494L32.9769 15.2332C31.9238 13.3011 30.3917 11.6727 28.5281 10.5048C26.6645 9.33693 24.532 8.66878 22.3357 8.56466C20.1395 8.46053 17.9535 8.92394 15.9879 9.9103C14.0224 10.8967 12.3435 12.3728 11.1127 14.1967L13.9743 15.4819C14.5585 14.7114 15.2511 14.0321 16.0348 13.4665" fill="#020B10"/>
<path d="M12.1779 19.5004C12.285 18.9477 12.4395 18.4052 12.6397 17.879L9.82883 16.6183C8.72167 19.4083 8.62513 22.4984 9.55596 25.3523L12.2234 23.4612C11.9368 22.1581 11.9213 20.8098 12.1779 19.5004Z" fill="#020B10"/>
<path d="M30.7835 17.7985L28.8489 18.772L28.7649 18.8158L26.1098 20.1483" fill="#020B10"/>
<path d="M16.6924 23.5855L14.9783 24.7989C14.5444 23.9486 14.2761 23.0234 14.1877 22.0726L15.1427 21.3968L16.6924 23.5855Z" fill="#020B10"/>
<path d="M17.978 17.3309L16.8813 19.7823L14.611 18.7597C14.9188 17.907 15.3806 17.1173 15.97 16.4274L17.978 17.3309Z" fill="#020B10"/>
<path d="M29.0168 23.4262C28.7079 24.5163 28.1588 25.5233 27.4099 26.373C26.6611 27.2228 25.7314 27.8937 24.6894 28.3364C23.6474 28.7791 22.5195 28.9823 21.3887 28.9312C20.2579 28.88 19.1529 28.5758 18.155 28.0408C17.1571 27.5058 16.2917 26.7538 15.6224 25.8399C14.9532 24.926 14.497 23.8735 14.2876 22.7599C14.0781 21.6463 14.1207 20.4999 14.4122 19.4049C14.7036 18.3099 15.2366 17.2943 15.9718 16.4327L16.0068 16.3942C16.6669 15.6322 17.4722 15.0097 18.3757 14.5632C19.2791 14.1167 20.2625 13.8551 21.2682 13.7938C22.2739 13.7325 23.2817 13.8726 24.2325 14.2061C25.1834 14.5396 26.0583 15.0596 26.8059 15.7358C27.8063 16.6395 28.5478 17.794 28.9539 19.0802L28.8664 19.1187L26.157 20.3427C26.157 20.3321 26.1547 20.3216 26.15 20.3111C25.8976 19.2474 25.2713 18.3101 24.3855 17.6705C23.4997 17.031 22.4135 16.7319 21.3256 16.828C20.2376 16.9241 19.2206 17.409 18.4603 18.1939C17.7 18.9789 17.2473 20.0115 17.185 21.103C17.1226 22.1946 17.4547 23.2721 18.1206 24.1387C18.7865 25.0054 19.7417 25.6031 20.8116 25.8228C21.8815 26.0424 22.9946 25.8693 23.9475 25.3351C24.9004 24.8008 25.6294 23.9411 26.0013 22.9131L29.0168 23.4262Z" fill="#020B10"/>
</g>
</svg>
