<svg width="52" height="16" viewBox="0 0 52 16" fill="none" xmlns="http://www.w3.org/2000/svg">
<g clip-path="url(#clip0_3080_3418)">
<path d="M15.2506 0H0.34736C0.25376 0 0.1664 0.0384 0.10192 0.104533C0.03744 0.170667 0 0.2624 0 0.356267V15.6437C0 15.7376 0.03744 15.8293 0.10192 15.8955C0.1664 15.9616 0.25584 16 0.34736 16H15.2526C15.3442 16 15.4336 15.9616 15.4981 15.8955C15.5626 15.8293 15.6 15.7376 15.6 15.6437V0.356267C15.6 0.2624 15.5626 0.170667 15.4981 0.104533C15.4315 0.0384 15.3442 0 15.2506 0ZM10.3979 10.3104C10.3979 10.4043 10.3605 10.496 10.296 10.5621C10.2315 10.6283 10.1421 10.6667 10.0506 10.6667H5.54528C5.45376 10.6667 5.36432 10.6283 5.29984 10.5621C5.23536 10.496 5.19792 10.4043 5.19792 10.3104V5.6896C5.19792 5.59573 5.23536 5.504 5.29984 5.43787C5.36432 5.37173 5.45376 5.33333 5.54528 5.33333H10.0506C10.1421 5.33333 10.2315 5.37173 10.296 5.43787C10.3605 5.504 10.3979 5.59573 10.3979 5.6896V10.3104Z" fill="white"/>
<path d="M46.4562 5.33337H41.9509C41.7595 5.33337 41.6035 5.49337 41.6035 5.68964V10.3104C41.6035 10.5067 41.7595 10.6667 41.9509 10.6667H46.4562C46.6475 10.6667 46.8035 10.5067 46.8035 10.3104V5.68964C46.8014 5.49337 46.6475 5.33337 46.4562 5.33337Z" fill="white"/>
<path d="M41.255 0.0020752H36.7497C36.5583 0.0020752 36.4023 0.162075 36.4023 0.358342V4.97914C36.4023 5.17541 36.5583 5.33541 36.7497 5.33541H41.255C41.4463 5.33541 41.6023 5.17541 41.6023 4.97914V0.356209C41.6023 0.159942 41.4463 0.0020752 41.255 0.0020752Z" fill="white"/>
<path d="M51.6534 0.0020752H47.1481C46.9568 0.0020752 46.8008 0.162075 46.8008 0.358342V4.97914C46.8008 5.17541 46.9568 5.33541 47.1481 5.33541H51.6534C51.8448 5.33541 52.0008 5.17541 52.0008 4.97914V0.356209C52.0008 0.159942 51.8448 0.0020752 51.6534 0.0020752Z" fill="white"/>
<path d="M41.255 10.6666H36.7497C36.5583 10.6666 36.4023 10.8266 36.4023 11.0229V15.6437C36.4023 15.84 36.5583 16 36.7497 16H41.255C41.4463 16 41.6023 15.84 41.6023 15.6437V11.0229C41.6023 10.8245 41.4463 10.6666 41.255 10.6666Z" fill="white"/>
<path d="M51.6534 10.6666H47.1481C46.9568 10.6666 46.8008 10.8266 46.8008 11.0229V15.6437C46.8008 15.84 46.9568 16 47.1481 16H51.6534C51.8448 16 52.0008 15.84 52.0008 15.6437V11.0229C52.0008 10.8245 51.8448 10.6666 51.6534 10.6666Z" fill="white"/>
<path d="M33.4483 0.0020752H28.9431C28.7517 0.0020752 28.5957 0.162075 28.5957 0.358342V4.97914C28.5957 5.17541 28.7517 5.33541 28.9431 5.33541H33.4483C33.6397 5.33541 33.7957 5.17541 33.7957 4.97914V0.356209C33.7957 0.159942 33.6397 0.0020752 33.4483 0.0020752Z" fill="white"/>
<path d="M33.4483 10.6666H28.9431C28.7517 10.6666 28.5957 10.8266 28.5957 11.0229V15.6437C28.5957 15.84 28.7517 16 28.9431 16H33.4483C33.6397 16 33.7957 15.84 33.7957 15.6437V11.0229C33.7957 10.8245 33.6397 10.6666 33.4483 10.6666Z" fill="white"/>
<path d="M28.5952 5.68533C28.5952 5.59147 28.5577 5.49973 28.4933 5.4336C28.4288 5.36747 28.3393 5.32907 28.2478 5.32907H23.3952V0.356267C23.3952 0.2624 23.3577 0.170667 23.2933 0.104533C23.2288 0.0384 23.1393 0 23.0478 0H18.5446C18.4531 0 18.3637 0.0384 18.2992 0.104533C18.2347 0.170667 18.1973 0.2624 18.1973 0.356267V15.6352C18.1973 15.7291 18.2347 15.8208 18.2992 15.8869C18.3637 15.9531 18.4531 15.9915 18.5446 15.9915H23.0499C23.1414 15.9915 23.2309 15.9531 23.2953 15.8869C23.3598 15.8208 23.3973 15.7291 23.3973 15.6352V10.6624H28.2499C28.3414 10.6624 28.4309 10.624 28.4953 10.5579C28.5598 10.4917 28.5973 10.4 28.5973 10.3061L28.5952 5.68533Z" fill="white"/>
</g>
<defs>
<clipPath id="clip0_3080_3418">
<rect width="52" height="16" fill="white"/>
</clipPath>
</defs>
</svg>
