<svg width="54" height="54" viewBox="0 0 54 54" fill="none" xmlns="http://www.w3.org/2000/svg">
<rect x="0.5" y="0.181396" width="53" height="53" rx="26.5" fill="url(#paint0_linear_3536_50283)"/>
<rect x="0.736607" y="0.418004" width="52.5268" height="52.5268" rx="26.2634" stroke="white" stroke-opacity="0.15" stroke-width="0.473214"/>
<mask id="mask0_3536_50283" style="mask-type:luminance" maskUnits="userSpaceOnUse" x="17" y="14" width="25" height="22">
<path d="M17.6328 14.8949H41.9005V35.3728H17.6328V14.8949Z" fill="white"/>
</mask>
<g mask="url(#mask0_3536_50283)">
<path d="M18.8465 22.7594V17.1709C18.8465 16.8869 18.9634 16.6286 19.151 16.4403C19.3386 16.2527 19.5976 16.1358 19.881 16.1358H39.6871C39.9711 16.1358 40.2294 16.2527 40.417 16.4403C40.6046 16.6286 40.7215 16.8869 40.7215 17.1709V33.0915C40.7215 33.3756 40.6046 33.6339 40.417 33.8221C40.2294 34.0097 39.9711 34.126 39.6871 34.126H30.974C30.8723 34.5289 30.7442 34.924 30.5909 35.3091H39.6871C40.2974 35.3091 40.8517 35.0594 41.2533 34.6577C41.6549 34.2561 41.904 33.7019 41.904 33.0915V17.1709C41.904 16.5606 41.6549 16.0057 41.2533 15.6047C40.8517 15.2031 40.2974 14.9534 39.6871 14.9534H19.881C19.2706 14.9534 18.7164 15.2031 18.3147 15.6047C17.9138 16.0057 17.6641 16.5606 17.6641 17.1709V23.2317C18.0472 23.0474 18.4422 22.8902 18.8465 22.7594Z" fill="#E6AE00"/>
</g>
<mask id="mask1_3536_50283" style="mask-type:luminance" maskUnits="userSpaceOnUse" x="17" y="19" width="25" height="3">
<path d="M17.6328 19.8992H41.9005V21.1311H17.6328V19.8992Z" fill="white"/>
</mask>
<g mask="url(#mask1_3536_50283)">
<path d="M18.2553 19.9364C17.929 19.9364 17.6641 20.2013 17.6641 20.5276C17.6641 20.8539 17.929 21.1188 18.2553 21.1188H41.3128C41.6391 21.1188 41.904 20.8539 41.904 20.5276C41.904 20.2013 41.6391 19.9364 41.3128 19.9364H18.2553Z" fill="#E6AE00"/>
</g>
<mask id="mask2_3536_50283" style="mask-type:luminance" maskUnits="userSpaceOnUse" x="21" y="13" width="2" height="5">
<path d="M21.4297 13.4314H22.7826V17.6882H21.4297V13.4314Z" fill="white"/>
</mask>
<g mask="url(#mask2_3536_50283)">
<path d="M22.6824 14.0226C22.6824 13.6963 22.4175 13.4314 22.0912 13.4314C21.7642 13.4314 21.5 13.6963 21.5 14.0226V16.9787C21.5 17.3057 21.7642 17.5706 22.0912 17.5706C22.4175 17.5706 22.6824 17.3057 22.6824 16.9787V14.0226Z" fill="#E6AE00"/>
</g>
<mask id="mask3_3536_50283" style="mask-type:luminance" maskUnits="userSpaceOnUse" x="26" y="13" width="2" height="5">
<path d="M26.5156 13.4314H27.8685V17.6882H26.5156V13.4314Z" fill="white"/>
</mask>
<g mask="url(#mask3_3536_50283)">
<path d="M27.8074 14.0226C27.8074 13.6963 27.5432 13.4314 27.2162 13.4314C26.8899 13.4314 26.625 13.6963 26.625 14.0226V16.9787C26.625 17.3057 26.8899 17.5706 27.2162 17.5706C27.5432 17.5706 27.8074 17.3057 27.8074 16.9787V14.0226Z" fill="#E6AE00"/>
</g>
<mask id="mask4_3536_50283" style="mask-type:luminance" maskUnits="userSpaceOnUse" x="31" y="13" width="2" height="5">
<path d="M31.6016 13.4314H32.9544V17.6882H31.6016V13.4314Z" fill="white"/>
</mask>
<g mask="url(#mask4_3536_50283)">
<path d="M32.9324 14.0226C32.9324 13.6963 32.6675 13.4314 32.3412 13.4314C32.0149 13.4314 31.75 13.6963 31.75 14.0226V16.9787C31.75 17.3057 32.0149 17.5706 32.3412 17.5706C32.6675 17.5706 32.9324 17.3057 32.9324 16.9787V14.0226Z" fill="#E6AE00"/>
</g>
<mask id="mask5_3536_50283" style="mask-type:luminance" maskUnits="userSpaceOnUse" x="36" y="13" width="3" height="5">
<path d="M36.8516 13.4314H38.2044V17.6882H36.8516V13.4314Z" fill="white"/>
</mask>
<g mask="url(#mask5_3536_50283)">
<path d="M38.0652 14.0226C38.0652 13.6963 37.8004 13.4314 37.474 13.4314C37.147 13.4314 36.8828 13.6963 36.8828 14.0226V16.9787C36.8828 17.3057 37.147 17.5706 37.474 17.5706C37.8004 17.5706 38.0652 17.3057 38.0652 16.9787V14.0226Z" fill="#E6AE00"/>
</g>
<mask id="mask6_3536_50283" style="mask-type:luminance" maskUnits="userSpaceOnUse" x="12" y="22" width="19" height="19">
<path d="M12.8516 22.8241H30.7109V40.7H12.8516V22.8241Z" fill="white"/>
</mask>
<g mask="url(#mask6_3536_50283)">
<path d="M21.7555 22.8922C24.2135 22.8922 26.4397 23.8884 28.0508 25.5002C29.662 27.1113 30.6588 29.3375 30.6588 31.7961C30.6588 34.2548 29.662 36.481 28.0508 38.0921C26.4397 39.7033 24.2135 40.7001 21.7555 40.7001V39.5176C23.8878 39.5176 25.818 38.6536 27.2152 37.2565C28.6123 35.8587 29.4763 33.9285 29.4763 31.7961C29.4763 29.6638 28.6123 27.7336 27.2152 26.3358C25.818 24.9387 23.8878 24.0746 21.7555 24.0746V22.8922ZM21.7555 22.8922V24.0746C19.6231 24.0746 17.6929 24.9387 16.2958 26.3358C14.898 27.7336 14.034 29.6638 14.034 31.7961C14.034 33.9285 14.898 35.8587 16.2958 37.2565C17.6929 38.6536 19.6231 39.5176 21.7555 39.5176V40.7001C19.2968 40.7001 17.0707 39.7033 15.4595 38.0921C13.8484 36.481 12.8516 34.2548 12.8516 31.7961C12.8516 29.3375 13.8484 27.1113 15.4595 25.5002C17.0707 23.8884 19.2968 22.8922 21.7555 22.8922Z" fill="#E6AE00"/>
</g>
<path d="M37.6581 22.2921H38.8405C39.0037 22.2921 39.1358 22.4249 39.1358 22.5881V25.019C39.1358 25.1821 39.0037 25.3149 38.8405 25.3149H37.6581V24.7237H38.5446V22.8833H37.6581V22.2921ZM36.4756 22.2921H37.6581V22.8833H36.7716V24.7237H37.6581V25.3149H36.4756C36.3125 25.3149 36.1797 25.1821 36.1797 25.019V22.5881C36.1797 22.4249 36.3125 22.2921 36.4756 22.2921Z" fill="#E6AE00"/>
<path d="M33.0324 22.2921H34.2148C34.378 22.2921 34.5101 22.4249 34.5101 22.5881V25.019C34.5101 25.1821 34.378 25.3149 34.2148 25.3149H33.0324V24.7237H33.9189V22.8833H33.0324V22.2921ZM31.85 22.2921H33.0324V22.8833H32.1459V24.7237H33.0324V25.3149H31.85C31.6868 25.3149 31.5547 25.1821 31.5547 25.019V22.5881C31.5547 22.4249 31.6868 22.2921 31.85 22.2921Z" fill="#E6AE00"/>
<path d="M37.6581 26.0715H38.8405C39.0037 26.0715 39.1358 26.2036 39.1358 26.3675V28.7984C39.1358 28.9616 39.0037 29.0937 38.8405 29.0937H37.6581V28.5025H38.5446V26.6628H37.6581V26.0715ZM36.4756 26.0715H37.6581V26.6628H36.7716V28.5025H37.6581V29.0937H36.4756C36.3125 29.0937 36.1797 28.9616 36.1797 28.7984V26.3675C36.1797 26.2036 36.3125 26.0715 36.4756 26.0715Z" fill="#E6AE00"/>
<path d="M33.0324 26.0715H34.2148C34.378 26.0715 34.5101 26.2036 34.5101 26.3675V28.7984C34.5101 28.9616 34.378 29.0937 34.2148 29.0937H33.0324V28.5025H33.9189V26.6628H33.0324V26.0715ZM31.85 26.0715H33.0324V26.6628H32.1459V28.5025H33.0324V29.0937H31.85C31.6868 29.0937 31.5547 28.9616 31.5547 28.7984V26.3675C31.5547 26.2036 31.6868 26.0715 31.85 26.0715Z" fill="#E6AE00"/>
<path d="M37.6581 29.8505H38.8405C39.0037 29.8505 39.1358 29.9826 39.1358 30.1457V32.5767C39.1358 32.7405 39.0037 32.8726 38.8405 32.8726H37.6581V32.2814H38.5446V30.4417H37.6581V29.8505ZM36.4756 29.8505H37.6581V30.4417H36.7716V32.2814H37.6581V32.8726H36.4756C36.3125 32.8726 36.1797 32.7405 36.1797 32.5767V30.1457C36.1797 29.9826 36.3125 29.8505 36.4756 29.8505Z" fill="#E6AE00"/>
<path d="M33.0324 29.8505H34.2148C34.378 29.8505 34.5101 29.9826 34.5101 30.1457V32.5767C34.5101 32.7405 34.378 32.8726 34.2148 32.8726H33.0324V32.2814H33.9189V30.4417H33.0324V29.8505ZM31.85 29.8505H33.0324V30.4417H32.1459V32.2814H33.0324V32.8726H31.85C31.6868 32.8726 31.5547 32.7405 31.5547 32.5767V30.1457C31.5547 29.9826 31.6868 29.8505 31.85 29.8505Z" fill="#E6AE00"/>
<path d="M22.3934 25.8487C22.3934 25.5217 22.1291 25.2574 21.8022 25.2574C21.4758 25.2574 21.2109 25.5217 21.2109 25.8487V31.7608C21.2109 32.0872 21.4758 32.3521 21.8022 32.3521C22.1291 32.3521 22.3934 32.0872 22.3934 31.7608V25.8487Z" fill="#E6AE00"/>
<path d="M22.1878 31.3042C21.9354 31.0987 21.5642 31.137 21.3587 31.3894C21.1533 31.6424 21.1916 32.013 21.444 32.2184L24.659 34.8251C24.9113 35.0305 25.2826 34.9922 25.488 34.7398C25.6928 34.4875 25.6551 34.1163 25.4021 33.9108L22.1878 31.3042Z" fill="#E6AE00"/>
<defs>
<linearGradient id="paint0_linear_3536_50283" x1="27" y1="0.181396" x2="27" y2="53.1814" gradientUnits="userSpaceOnUse">
<stop stop-color="white" stop-opacity="0"/>
<stop offset="1" stop-color="#E5AE00" stop-opacity="0.2"/>
</linearGradient>
</defs>
</svg>
