<svg width="54" height="54" viewBox="0 0 54 54" fill="none" xmlns="http://www.w3.org/2000/svg">
<rect x="0.5" y="0.181396" width="53" height="53" rx="26.5" fill="url(#paint0_linear_3536_50258)"/>
<rect x="0.736607" y="0.418004" width="52.5268" height="52.5268" rx="26.2634" stroke="white" stroke-opacity="0.15" stroke-width="0.473214"/>
<path d="M35.4102 34.0351C35.3299 34.0351 35.2512 34.0206 35.1733 33.9916L18.0773 27.4123C17.8229 27.3152 17.6562 27.0699 17.6562 26.7978V18.9025C17.6562 18.6304 17.8229 18.3859 18.0773 18.2881L35.1733 11.7088C35.3773 11.6301 35.602 11.6591 35.7824 11.7814C35.9612 11.9037 36.0682 12.1062 36.0682 12.324V33.3771C36.0682 33.5942 35.9612 33.7967 35.7824 33.919C35.6708 33.9954 35.5416 34.0351 35.4102 34.0351ZM18.9715 26.3454L34.7529 32.4188V13.2816L18.9715 19.3557V26.3454Z" fill="#E6AE00"/>
<path d="M20.9493 36.6657H17.0035C16.6764 36.6657 16.399 36.425 16.3532 36.1002L15.0379 26.8896C14.9867 26.5305 15.2366 26.1973 15.5966 26.146C15.9489 26.101 16.2882 26.3448 16.3394 26.7055L17.5744 35.3505H20.2125L19.3344 27.5156C19.2947 27.1548 19.5538 26.83 19.9145 26.788C20.263 26.7498 20.5992 27.0081 20.6413 27.3681L21.6019 35.9344C21.6225 36.1216 21.5637 36.3065 21.4384 36.4464C21.3146 36.5855 21.1373 36.6657 20.9493 36.6657Z" fill="#E6AE00"/>
<path d="M38.056 19.5609C37.8443 19.5609 37.6364 19.4585 37.5088 19.2674C37.3078 18.9663 37.3888 18.5574 37.6914 18.3557L41.6372 15.7244C41.9368 15.5242 42.3456 15.6029 42.5481 15.9071C42.7491 16.2082 42.6681 16.6178 42.3655 16.8188L38.4197 19.4508C38.3082 19.5257 38.1821 19.5609 38.056 19.5609Z" fill="#E6AE00"/>
<path d="M42.0006 31.4033C41.8745 31.4033 41.7484 31.3681 41.6368 31.2932L37.691 28.6612C37.3899 28.4602 37.3074 28.0506 37.5084 27.7494C37.7109 27.4468 38.1213 27.3666 38.4194 27.5668L42.3651 30.1981C42.6662 30.3998 42.7487 30.8087 42.5477 31.1098C42.4201 31.3008 42.2122 31.4033 42.0006 31.4033Z" fill="#E6AE00"/>
<mask id="mask0_3536_50258" style="mask-type:luminance" maskUnits="userSpaceOnUse" x="37" y="22" width="6" height="3">
<path d="M37.3672 22.7787H42.7818V24.3438H37.3672V22.7787Z" fill="white"/>
</mask>
<g mask="url(#mask0_3536_50258)">
<path d="M41.9858 24.167H38.0408C37.6778 24.167 37.3828 23.872 37.3828 23.509C37.3828 23.1452 37.6778 22.851 38.0408 22.851H41.9858C42.3488 22.851 42.6438 23.1452 42.6438 23.509C42.6438 23.872 42.3488 24.167 41.9858 24.167Z" fill="#E6AE00"/>
</g>
<defs>
<linearGradient id="paint0_linear_3536_50258" x1="27" y1="0.181396" x2="27" y2="53.1814" gradientUnits="userSpaceOnUse">
<stop stop-color="white" stop-opacity="0"/>
<stop offset="1" stop-color="#E5AE00" stop-opacity="0.2"/>
</linearGradient>
</defs>
</svg>
