<svg width="54" height="54" viewBox="0 0 54 54" fill="none" xmlns="http://www.w3.org/2000/svg">
<rect x="0.5" y="0.181396" width="53" height="53" rx="26.5" fill="url(#paint0_linear_3536_50246)"/>
<rect x="0.736607" y="0.418004" width="52.5268" height="52.5268" rx="26.2634" stroke="white" stroke-opacity="0.15" stroke-width="0.473214"/>
<mask id="mask0_3536_50246" style="mask-type:luminance" maskUnits="userSpaceOnUse" x="11" y="12" width="32" height="29">
<path d="M11.9766 12.5481H42.8932V40.5277H11.9766V12.5481Z" fill="white"/>
</mask>
<g mask="url(#mask0_3536_50246)">
<path d="M42.4409 28.5855L42.2259 28.4253L42.8241 26.5413C42.903 26.2925 42.8805 26.0284 42.7605 25.7974C42.6413 25.5663 42.4392 25.3948 42.1913 25.3159L41.5689 25.1178V23.4182C41.5689 22.8804 41.1325 22.4432 40.5963 22.4432H36.7189C36.45 22.4432 36.2318 22.6614 36.2318 22.9303C36.2318 23.1992 36.45 23.4182 36.7189 23.4182H37.7164C37.7406 23.5913 37.7808 23.7604 37.8307 23.9263L34.9581 23.01L21.3579 12.8776C20.9272 12.5579 20.3169 12.6473 19.9965 13.0789L12.4469 23.2483C12.2915 23.4577 12.2271 23.7145 12.2649 23.9721C12.3027 24.2298 12.4388 24.4568 12.6473 24.6122L13.5926 25.3159L12.0934 30.0436C12.0145 30.2915 12.0363 30.5564 12.1562 30.7875C12.2762 31.0186 12.4783 31.1901 12.7262 31.269L13.3486 31.467V36.0916C13.3486 36.6295 13.785 37.0666 14.3212 37.0666H26.9721C27.241 37.0666 27.4592 36.8485 27.4592 36.5787C27.4592 36.3098 27.241 36.0916 26.9721 36.0916H17.2019C16.9877 34.6006 15.8099 33.4202 14.3212 33.2061V31.777L28.2031 36.2019L33.7311 40.3201C33.9009 40.4465 34.1022 40.5134 34.3099 40.5134C34.3574 40.5134 34.4049 40.5101 34.4533 40.5021C34.7109 40.4643 34.9379 40.329 35.0917 40.1197L36.1247 38.7284L37.7712 39.2534C37.8654 39.2831 37.962 39.2968 38.0578 39.2968C38.2124 39.2968 38.3661 39.2598 38.5078 39.1865C38.7405 39.0658 38.9112 38.8629 38.9861 38.6189L39.4804 37.0666H40.5963C41.1325 37.0666 41.5689 36.6295 41.5689 36.0916V31.3946L42.6413 29.9494C42.9618 29.5186 42.8716 28.9059 42.4409 28.5855ZM16.2189 36.0916H14.3212V34.1907C15.2728 34.3856 16.0248 35.1384 16.2189 36.0916ZM41.3998 27.8102L40.4377 27.0936C40.3781 26.6701 40.3846 26.183 40.453 25.7845L41.8974 26.245L41.3998 27.8102ZM38.937 35.5691C38.7945 35.5458 38.6503 35.5281 38.5046 35.5232L39.2864 34.4701L38.937 35.5691ZM36.0305 37.222C34.7085 36.5039 33.0604 36.747 32 37.8154L15.5385 25.5526C16.2551 24.2282 16.0136 22.5769 14.9468 21.5141L19.0585 15.9749C19.5666 16.2502 20.1205 16.3887 20.6728 16.3887C21.56 16.3887 22.4352 16.0409 23.089 15.3823L39.5489 27.6451C39.1994 28.2892 39.0634 29.0251 39.1721 29.7634C39.28 30.5017 39.6213 31.1667 40.1414 31.6836L36.0305 37.222ZM40.5963 23.4182V24.8071L39.0972 24.3288C38.9032 24.0535 38.7687 23.7467 38.7027 23.4182H40.5963ZM38.6431 25.208C38.6544 25.212 38.6656 25.2144 38.6777 25.2177L39.5215 25.4874C39.4675 25.7515 39.4361 26.0421 39.4281 26.3408L37.3589 24.799L38.6431 25.208ZM20.7775 13.6601L22.2999 14.7946C21.5753 15.4435 20.5246 15.5981 19.6446 15.185L20.7775 13.6601ZM13.2278 23.8304L14.3598 22.3055C14.6771 22.6582 14.8832 23.0962 14.954 23.576C15.0249 24.0567 14.9524 24.5357 14.7495 24.9657L13.2278 23.8304ZM13.595 28.5283C14.4444 29.0017 14.9339 29.9478 14.83 30.9155L13.0209 30.3399L13.595 28.5283ZM15.7672 31.215C16.0136 29.7288 15.2471 28.2457 13.8929 27.5896L14.4186 25.9318L25.8022 34.4138L15.7672 31.215ZM34.3116 39.5376L32.7891 38.4039C33.5129 37.755 34.5644 37.5996 35.4436 38.0135L34.3116 39.5376ZM38.0626 38.3226L36.739 37.9007L37.7076 36.5956C37.8847 36.5457 38.0642 36.5095 38.2438 36.4998C38.3774 36.4926 38.5078 36.499 38.6375 36.5119L38.0626 38.3226ZM39.7904 36.0916L40.5963 33.5587V36.0916H39.7904ZM40.7292 30.893C40.412 30.5403 40.205 30.1023 40.135 29.6225C40.0641 29.1418 40.1366 28.6628 40.3387 28.2337L41.8612 29.3681L40.7292 30.893Z" fill="#E6AE00"/>
</g>
<path d="M30.4577 22.6881C28.3048 21.0835 25.2502 21.5335 23.6496 23.6905C22.8743 24.7347 22.5506 26.0197 22.7406 27.3087C22.929 28.5969 23.6077 29.7337 24.6504 30.5107C25.499 31.1427 26.5054 31.4744 27.544 31.4744C27.7815 31.4744 28.0214 31.4567 28.2621 31.4221C29.5479 31.232 30.6831 30.5525 31.4577 29.5083C32.2338 28.4632 32.5567 27.1791 32.3683 25.8901C32.1791 24.6019 31.5011 23.465 30.4577 22.6881ZM30.6775 28.9262C30.0576 29.7619 29.1486 30.3053 28.1204 30.4575C27.0915 30.6097 26.0658 30.3496 25.2309 29.7289C24.3967 29.1073 23.8541 28.1967 23.7027 27.1662C23.5514 26.1356 23.8098 25.1083 24.4298 24.2718C25.7107 22.5464 28.1534 22.1865 29.8764 23.4699C31.5994 24.7532 31.9584 27.2008 30.6775 28.9262Z" fill="#E6AE00"/>
<path d="M28.9002 23.9622L28.5573 24.4243C28.352 24.3599 28.1346 24.3374 27.9164 24.3704C27.5307 24.4276 27.1902 24.6313 26.9575 24.9444C26.4913 25.5732 26.604 26.4565 27.2031 26.9476C27.2216 26.9725 27.2377 26.9983 27.2514 27.0265C27.2884 27.1038 27.3045 27.1875 27.2981 27.2745C27.2787 27.5426 27.0388 27.7447 26.7779 27.7253C26.6483 27.7157 26.53 27.6561 26.4454 27.5579C26.3601 27.4596 26.3182 27.3332 26.3279 27.2036C26.3472 26.9355 26.1459 26.702 25.8778 26.6827C25.5993 26.6642 25.377 26.8655 25.3577 27.1336C25.3287 27.5224 25.4543 27.9 25.7096 28.1955C25.7184 28.206 25.7289 28.2124 25.7377 28.2221L25.4165 28.6553C25.2563 28.871 25.3006 29.177 25.5171 29.3372C25.6041 29.4016 25.7063 29.4338 25.807 29.4338C25.9559 29.4338 26.1025 29.3654 26.1975 29.2374L26.6105 28.6802C26.6435 28.685 26.6749 28.6947 26.7087 28.6971C26.7441 28.6995 26.7796 28.7011 26.815 28.7011C27.5718 28.7011 28.2143 28.1118 28.2698 27.3437C28.2884 27.0877 28.2392 26.8308 28.1273 26.5998C28.0766 26.4943 28.0122 26.3961 27.9373 26.3059C27.91 26.2689 27.8769 26.2359 27.8399 26.2077C27.736 26.1304 27.6676 26.0169 27.6483 25.888C27.6298 25.7592 27.662 25.6304 27.7393 25.5257C27.8166 25.4219 27.9309 25.3534 28.0589 25.3349C28.1885 25.3164 28.3165 25.3478 28.4204 25.4259C28.4904 25.4782 28.5428 25.5443 28.5766 25.6232C28.5943 25.6626 28.6056 25.7045 28.612 25.7463C28.6515 26.0128 28.8994 26.1956 29.1643 26.1578C29.43 26.1183 29.6136 25.8711 29.5749 25.6046C29.5564 25.4782 29.521 25.3551 29.4711 25.2375C29.4357 25.1562 29.3849 25.0837 29.3358 25.0113L29.682 24.5435C29.843 24.3277 29.798 24.0226 29.5822 23.8616C29.3656 23.7013 29.0605 23.7456 28.9002 23.9622Z" fill="#E6AE00"/>
<defs>
<linearGradient id="paint0_linear_3536_50246" x1="27" y1="0.181396" x2="27" y2="53.1814" gradientUnits="userSpaceOnUse">
<stop stop-color="white" stop-opacity="0"/>
<stop offset="1" stop-color="#E5AE00" stop-opacity="0.2"/>
</linearGradient>
</defs>
</svg>
