<svg width="54" height="54" viewBox="0 0 54 54" fill="none" xmlns="http://www.w3.org/2000/svg">
<rect x="0.5" y="0.181396" width="53" height="53" rx="26.5" fill="url(#paint0_linear_3536_50275)"/>
<rect x="0.736607" y="0.418004" width="52.5268" height="52.5268" rx="26.2634" stroke="white" stroke-opacity="0.15" stroke-width="0.473214"/>
<g clip-path="url(#clip0_3536_50275)">
<path d="M42.9023 34.5761C42.7398 34.7499 42.575 34.9205 42.2919 34.8135C42.0144 34.7085 41.995 34.4846 41.9954 34.2452C41.9977 32.8151 41.9978 31.3851 41.9957 29.955C41.9956 29.8357 41.9839 29.7164 41.9749 29.5471C41.4058 30.0299 40.897 30.4344 40.9514 31.2315C41.0207 32.2474 40.9771 33.2709 40.9589 34.2907C40.9552 34.4661 40.8816 34.6336 40.7527 34.7596C40.4724 34.9868 40.0796 34.7706 40.0666 34.3929C40.0522 33.9738 40.0625 33.554 40.0624 33.1345C40.0622 32.429 40.0734 31.7233 40.059 31.0181C40.0445 30.7316 40.0971 30.4456 40.213 30.1806C40.3288 29.9156 40.5051 29.6781 40.7291 29.4852C40.9411 29.2977 41.1639 29.1213 41.4161 28.9113L38.6559 27.5973C38.3304 27.9124 37.9858 28.2319 37.6627 28.5698C37.5952 28.6405 37.5853 28.779 37.5851 28.8863C37.5806 30.6501 37.5826 32.4138 37.5803 34.1775C37.5842 34.3009 37.5713 34.4242 37.542 34.5444C37.5206 34.6395 37.4616 34.7232 37.3771 34.7783C37.2925 34.8335 37.1889 34.8558 37.0875 34.8408C36.9851 34.8374 36.8875 34.7983 36.8135 34.7311C36.7395 34.6639 36.6942 34.5732 36.6862 34.4764C36.676 34.3816 36.6727 34.2862 36.6763 34.1909C36.6758 32.4367 36.672 30.6825 36.6811 28.9283C36.6865 28.835 36.6694 28.7418 36.6311 28.6557C36.5927 28.5696 36.5342 28.4929 36.4599 28.4315C36.1603 28.1642 35.881 27.8764 35.5896 27.5936C35.479 27.6443 35.3925 27.6887 35.3021 27.7244C35.2107 27.7684 35.105 27.7775 35.0067 27.75C34.9084 27.7225 34.8249 27.6603 34.7734 27.5763C34.6387 27.3875 34.6364 27.1557 34.8395 27.0395C35.2727 26.7914 35.2402 26.4145 35.2202 26.0331C35.2114 25.9506 35.1735 25.8733 35.1127 25.8137C34.4961 25.224 34.2255 24.5124 34.2569 23.6894C34.263 23.529 34.2867 23.3742 34.0355 23.3275C33.9761 23.3051 33.9235 23.2691 33.8825 23.2228C33.8414 23.1764 33.8131 23.1211 33.8001 23.0618C33.7593 22.3211 33.6861 21.5704 34.0569 20.8743C34.6027 19.8497 35.5056 19.3447 36.6992 19.3195C37.2189 19.3085 37.758 19.2979 38.2574 19.4103C39.6357 19.7204 40.4572 20.7564 40.4832 22.1116C40.4876 22.3404 40.4854 22.5693 40.4837 22.798C40.4809 23.1789 40.4071 23.2759 40.0234 23.4042C40.002 23.6942 39.9941 23.9887 39.9559 24.2796C39.8801 24.8568 39.6036 25.3454 39.1839 25.7654C38.8634 26.0861 38.9841 26.791 39.401 26.9923C40.0813 27.3208 40.7564 27.6617 41.4524 27.9577C42.1832 28.2685 42.7163 28.7212 42.9023 29.4838V34.5761ZM35.1635 23.6934H35.165C35.165 23.7505 35.1633 23.8077 35.1652 23.8648C35.2083 25.1647 36.4607 26.0403 37.7302 25.6365C38.7232 25.3206 39.1763 24.5169 39.0849 23.4675C39.0797 23.4082 38.9483 23.3315 38.8624 23.31C38.1849 23.1407 37.4834 23.0351 36.8318 22.803C36.3988 22.6488 36.0635 22.574 35.7139 22.9078C35.6222 22.9828 35.5136 23.0372 35.3965 23.0668C35.1977 23.1287 35.135 23.2498 35.1614 23.4364C35.1681 23.5219 35.1688 23.6077 35.1635 23.6934ZM39.5486 22.5071C39.6968 21.371 39.1198 20.4316 38.0709 20.2506C37.4474 20.1467 36.8096 20.146 36.1858 20.2486C35.1498 20.42 34.469 21.4947 34.7484 22.4698C35.0874 22.2478 35.4164 22.0538 35.7192 21.8282C36.0603 21.5743 36.1442 21.5552 36.5292 21.746C37.4657 22.2038 38.4959 22.4634 39.5486 22.5071ZM36.1063 26.4235C36.1207 26.6188 36.0707 26.8196 36.1542 26.9126C36.4505 27.2424 36.7924 27.5354 37.1394 27.8636C37.4156 27.5927 37.6519 27.33 37.9228 27.1047C38.1528 26.9134 38.212 26.7152 38.081 26.4387C37.4473 26.6347 36.806 26.6324 36.1063 26.4235Z" fill="#E6AE00"/>
<path d="M33.2856 28.6957C32.8325 29.0938 32.3584 29.4645 31.9515 29.8926C31.8069 30.0447 31.7807 30.3357 31.7776 30.5642C31.7615 31.775 31.7712 32.9861 31.7682 34.1971C31.7679 34.3197 31.7871 34.4778 31.7178 34.5567C31.6084 34.6811 31.4259 34.8326 31.2849 34.8236C31.1436 34.8146 30.9976 34.6362 30.8889 34.5056C30.8379 34.4444 30.8649 34.3213 30.8648 34.2263C30.8637 33.0152 30.8757 31.8041 30.8593 30.5933C30.8465 30.2929 30.9029 29.9934 31.0246 29.7158C31.1463 29.4381 31.3304 29.189 31.5641 28.9856C31.9994 28.593 32.4178 28.1836 32.8834 27.7441C32.7001 27.6263 32.51 27.518 32.3142 27.4198C31.5561 27.0907 30.7904 26.7776 30.0323 26.4485C29.8703 26.3782 29.7688 26.389 29.6401 26.5149C29.1291 27.0149 28.5962 27.4948 28.0917 28.0003C27.9764 28.1232 27.9094 28.28 27.902 28.4443C27.8894 30.3418 27.8941 32.2394 27.8927 34.137C27.8952 34.2607 27.887 34.3844 27.8682 34.5069C27.8492 34.6006 27.7965 34.6851 27.7191 34.7461C27.6417 34.8071 27.5445 34.8408 27.4438 34.8415C27.3431 34.8423 27.2453 34.8099 27.167 34.7501C27.0887 34.6902 27.0346 34.6064 27.0141 34.5131C26.9939 34.3908 26.9853 34.267 26.9882 34.1433C26.9867 32.2457 26.9877 30.3482 26.9911 28.4506C26.9956 28.3617 26.9791 28.2731 26.9429 28.191C26.9067 28.1089 26.8517 28.0355 26.7819 27.9761C26.2612 27.4988 25.749 27.0133 25.245 26.5198C25.121 26.399 25.0226 26.3725 24.8545 26.4457C24.0878 26.7797 23.3121 27.0952 22.5446 27.4276C22.3561 27.5232 22.1738 27.6294 21.9987 27.7456C22.4019 28.1259 22.753 28.4926 23.1433 28.817C23.7875 29.3526 24.0599 29.9983 24.0279 30.8154C23.9839 31.9391 24.0173 33.0655 24.0162 34.1907C24.0197 34.2954 24.0138 34.4003 23.9986 34.5042C23.9585 34.7248 23.7857 34.8644 23.578 34.8319C23.422 34.8076 23.2614 34.6658 23.1578 34.5367C23.0909 34.4534 23.1127 34.2986 23.1125 34.1758C23.1098 32.9743 23.1028 31.7728 23.1155 30.5714C23.1239 30.3908 23.0903 30.2106 23.0172 30.0436C22.9441 29.8766 22.8331 29.7268 22.6921 29.6049C22.3437 29.2906 22.0164 28.9552 21.6799 28.629L21.5953 28.6573V28.9495C21.5953 30.6754 21.5953 32.4014 21.5952 34.1273C21.5952 34.2131 21.5979 34.2991 21.593 34.3847C21.5768 34.6619 21.4102 34.8386 21.1612 34.8468C20.9232 34.8547 20.7287 34.6752 20.6951 34.4105C20.6885 34.3345 20.6866 34.2581 20.6895 34.1819C20.6893 32.4369 20.6944 30.6919 20.6875 28.9469C20.6831 27.813 21.2121 27.0234 22.3179 26.5758C23.0754 26.2691 23.8209 25.9357 24.5798 25.6324C24.9114 25.4999 25.0494 25.2982 25.0573 24.9554C25.0652 24.6126 24.9838 24.3626 24.7057 24.1089C23.9703 23.4381 23.6394 22.5824 23.5909 21.6195C23.5847 21.4968 23.4821 21.3766 23.4171 21.2588C23.3302 21.1014 23.1739 20.9536 23.1558 20.7909C23.0381 19.7317 23.0844 18.692 23.7401 17.7652C24.412 16.8154 25.3467 16.2412 26.5492 16.1378C27.6019 16.0472 28.6686 16.0032 29.6486 16.4995C31.0194 17.1938 31.7158 18.2923 31.7655 19.7591C31.7714 19.8977 31.7463 20.0359 31.6918 20.1646C31.6373 20.2934 31.5547 20.4098 31.4494 20.5061C31.3616 20.5992 31.3067 20.7161 31.2927 20.8403C31.2276 21.4158 31.2323 22.0026 31.1161 22.5676C30.9783 23.2377 30.565 23.7867 30.0375 24.2514C29.6305 24.6099 29.761 25.3945 30.2695 25.6113C31.0573 25.9473 31.8465 26.2806 32.6369 26.6111C33.6808 27.0467 34.1879 27.8121 34.1904 28.8823C34.1946 30.6655 34.1943 32.4486 34.1896 34.2318C34.1894 34.3446 34.2035 34.4938 34.1373 34.5621C34.0206 34.6824 33.8402 34.8334 33.6993 34.8226C33.5577 34.8117 33.4062 34.6355 33.3086 34.4997C33.2511 34.4197 33.2862 34.2775 33.2862 34.1632C33.2854 32.4373 33.2852 30.7114 33.2856 28.9854C33.2856 28.8823 33.2856 28.7791 33.2856 28.6957ZM30.8275 19.866C30.9839 18.7735 30.0601 17.4945 28.9026 17.1267C28.2939 16.9333 27.6737 16.9559 27.052 16.9611C25.0554 16.9781 23.7065 18.5194 24.0696 20.6466C24.2863 20.515 24.4872 20.3985 24.6818 20.2733C24.9545 20.098 25.2169 20.1102 25.3762 20.3136C25.5332 20.5141 25.4794 20.7689 25.2207 20.9571C25.0464 21.084 24.8457 21.1789 24.6747 21.3092C24.5949 21.37 24.5076 21.4815 24.5089 21.5688C24.5203 22.3458 24.8089 23.0257 25.4001 23.5661C26.3854 24.4666 27.7497 24.6178 28.9555 23.9425C30.0892 23.3076 30.5429 22.1422 30.331 20.7844C29.6683 20.7844 28.9916 20.8367 28.3277 20.772C27.358 20.6818 26.4477 20.2876 25.7411 19.6518C25.503 19.4408 25.4808 19.1801 25.6661 18.9963C25.8483 18.8154 26.0967 18.8135 26.3391 19.0131C27.6698 20.1091 29.2216 20.113 30.8275 19.866ZM27.4412 27.3981C27.9877 26.8782 28.5058 26.387 29.0205 25.8927C29.0579 25.8568 29.1009 25.7917 29.0909 25.7514C29.0254 25.4893 28.9461 25.2303 28.8681 24.9595C27.9477 25.2979 26.9272 25.2993 26.0057 24.9635C25.9337 25.2263 25.8622 25.4614 25.809 25.7002C25.8034 25.7342 25.8054 25.769 25.8149 25.8023C25.8244 25.8355 25.8412 25.8665 25.8641 25.8933C26.3762 26.3896 26.8954 26.8795 27.4412 27.3981Z" fill="#E6AE00"/>
<path d="M18.3363 28.973C18.0048 29.2912 17.666 29.6037 17.3467 29.9331C17.2789 30.0226 17.2448 30.131 17.2498 30.2411C17.2436 31.557 17.2458 32.8729 17.2455 34.1888C17.2482 34.2746 17.2462 34.3604 17.2397 34.446C17.2131 34.6919 17.055 34.8336 16.806 34.8423C16.5686 34.8507 16.4084 34.7175 16.3601 34.4923C16.3427 34.3889 16.3362 34.2842 16.3406 34.1795C16.3394 32.8732 16.3454 31.5667 16.3318 30.2605C16.3213 30.1064 16.2578 29.9598 16.151 29.8431C15.868 29.5353 15.5557 29.2516 15.2654 28.9686L13.1996 29.9673C13.5459 30.2895 13.8501 30.5788 14.1616 30.8608C14.3844 31.0549 14.5597 31.2928 14.6752 31.5579C14.7907 31.823 14.8435 32.1088 14.8301 32.3953C14.8154 33.0339 14.829 33.6731 14.8258 34.3119C14.8241 34.6489 14.6529 34.8483 14.377 34.8491C14.101 34.85 13.9246 34.6498 13.9223 34.3144C13.918 33.6851 13.9071 33.0554 13.926 32.4265C13.9388 32.2409 13.9063 32.055 13.831 31.8833C13.7557 31.7115 13.6396 31.5585 13.4918 31.4362C13.3065 31.2763 13.145 31.0916 12.9728 30.9181L12.8926 30.9389V31.1957C12.8926 32.1969 12.8924 33.1982 12.8921 34.1994C12.8969 34.2946 12.8926 34.39 12.8792 34.4845C12.8345 34.7113 12.6743 34.8442 12.4391 34.8439C12.3312 34.8486 12.2255 34.8137 12.1439 34.7466C12.0624 34.6794 12.0112 34.5851 12.0011 34.4832C11.9853 34.3506 11.9807 34.2171 11.9873 34.0838C11.9865 32.9872 11.99 31.8906 11.9858 30.794C11.9827 29.9787 12.3631 29.3917 13.1305 29.0276C13.5888 28.8102 14.0456 28.5898 14.5069 28.3782C14.7706 28.2572 14.8746 28.0734 14.8966 27.7919C14.9378 27.2651 14.8367 26.8518 14.3618 26.4834C13.8469 26.084 13.5774 25.4908 13.4988 24.8579C13.3988 24.0524 13.3512 23.2416 13.6071 22.4484C13.8061 21.8224 14.2161 21.2753 14.7743 20.891C14.9266 20.7838 14.9596 20.6833 14.9308 20.5093C14.805 19.7488 15.092 19.1384 15.7534 18.7035C16.0638 18.5039 16.4307 18.3979 16.8058 18.3996C17.1809 18.4012 17.5467 18.5103 17.8551 18.7126C18.5163 19.1542 18.7888 19.771 18.6594 20.527C18.6302 20.6976 18.6669 20.7801 18.8047 20.8802C19.6627 21.5037 20.1238 22.3308 20.1408 23.358C20.1517 24.0126 20.215 24.6732 19.9846 25.3139C19.7898 25.8894 19.4211 26.398 18.9242 26.7768C18.7583 26.9016 18.6625 27.027 18.6944 27.2305C18.7058 27.3062 18.7059 27.3831 18.6947 27.4589C18.621 27.9665 18.7951 28.3167 19.3341 28.5069C19.6521 28.6191 19.7334 28.8671 19.6135 29.104C19.4963 29.3357 19.25 29.3986 18.942 29.2647C18.7505 29.1815 18.5659 29.0843 18.3363 28.973ZM14.3584 24.319C14.3164 25.5701 15.4335 26.6575 16.8039 26.6507C18.088 26.6444 19.2744 25.575 19.1996 24.4728C17.9681 24.7082 16.8783 24.4267 15.9207 23.6607C15.8818 23.6409 15.8386 23.6298 15.7945 23.6284C15.7504 23.6271 15.7066 23.6353 15.6664 23.6527C15.2412 23.8587 14.824 24.0795 14.3584 24.319ZM19.2152 23.58C19.3574 22.2812 18.2633 21.1542 16.8344 21.0951C15.5538 21.0421 14.3874 22.0913 14.3761 23.402C14.7319 23.1761 15.0585 22.9993 15.3474 22.7782C15.7718 22.4534 15.9339 22.4532 16.3134 22.8204C17.1198 23.6006 18.0802 23.8688 19.2152 23.58ZM17.7726 27.4492H15.8054C15.795 27.6415 15.7785 27.8783 15.7722 28.1154C15.7657 28.1791 15.7828 28.2431 15.8205 28.2962C16.1341 28.6114 16.4563 28.919 16.7805 29.2335C16.873 29.1512 16.925 29.1072 16.9743 29.0607C17.2307 28.8188 17.4895 28.5791 17.7394 28.3314C17.7926 28.2784 17.8237 28.209 17.8271 28.136C17.818 27.8904 17.7896 27.6454 17.7726 27.4492ZM17.7704 20.2927C17.8112 19.8984 17.6385 19.5577 17.2672 19.3752C16.8931 19.1914 16.5257 19.2167 16.1914 19.4609C16.0543 19.5541 15.9462 19.6805 15.8781 19.8268C15.81 19.973 15.7844 20.1339 15.8042 20.2927H17.7704Z" fill="#E6AE00"/>
</g>
<defs>
<linearGradient id="paint0_linear_3536_50275" x1="27" y1="0.181396" x2="27" y2="53.1814" gradientUnits="userSpaceOnUse">
<stop stop-color="white" stop-opacity="0"/>
<stop offset="1" stop-color="#E5AE00" stop-opacity="0.2"/>
</linearGradient>
<clipPath id="clip0_3536_50275">
<rect width="30.9167" height="20.4271" fill="white" transform="translate(11.9844 16.0814)"/>
</clipPath>
</defs>
</svg>
