<svg width="112" height="27" viewBox="0 0 112 27" fill="none" xmlns="http://www.w3.org/2000/svg">
<g clip-path="url(#clip0_78_5487)">
<path d="M23.0228 4.09443L23.1591 4.93906C23.1591 4.99355 23.3225 5.89266 23.3225 7.3367C23.3225 8.699 23.1863 10.5245 22.6959 12.5679C22.2055 14.5024 21.3608 16.8183 19.7806 19.0797C18.2003 21.3411 15.9116 23.5753 12.5876 25.3463L12.1789 25.5642L11.7975 25.3463C8.47349 23.5753 6.18483 21.3411 4.63181 19.0797C3.05155 16.8183 2.17968 14.5024 1.71649 12.5679C1.22607 10.5245 1.08984 8.699 1.08984 7.3367C1.08984 5.89266 1.22607 4.99355 1.25331 4.93906L1.3623 4.09443C1.41679 3.79473 1.22607 3.52227 0.926362 3.49502C0.626657 3.44053 0.354197 3.63125 0.326951 3.93096L0.190722 4.77558C0.163476 4.85732 0 5.83817 0 7.3367C0 8.75349 0.13623 10.688 0.653903 12.8131C1.14433 14.8566 2.07069 17.2815 3.7327 19.6791C5.3947 22.0768 7.79234 24.4199 11.2798 26.2999L11.9337 26.6541C12.0972 26.7358 12.2879 26.7358 12.4514 26.6541L13.1053 26.2999C16.5655 24.4199 18.9904 22.0768 20.6524 19.6791C22.3144 17.2815 23.2408 14.8566 23.7312 12.8131C24.2489 10.688 24.3851 8.75349 24.3851 7.30945C24.3851 5.81093 24.2217 4.85732 24.2217 4.74833L24.0854 3.90371C24.0309 3.604 23.7585 3.41328 23.486 3.46777C23.1863 3.52227 22.9683 3.79473 23.0228 4.09443Z" fill="#AFAFAF"/>
<path d="M4.27453 3.52208L12.2031 1.09719L20.2951 3.57657C20.5676 3.65831 20.8673 3.49483 20.949 3.22237C21.0308 2.94991 20.8673 2.65021 20.5949 2.56847L12.3393 0.0345946C12.2576 0.00734867 12.1486 0.00734867 12.0396 0.0345946L3.94758 2.48673C3.67512 2.56847 3.51164 2.86817 3.59338 3.14063C3.67512 3.44034 3.97482 3.60381 4.27453 3.52208Z" fill="#AFAFAF"/>
<path d="M0.355524 4.25773L11.7171 26.4087C11.7988 26.5722 11.9895 26.7084 12.1803 26.7084C12.371 26.7084 12.5617 26.5994 12.6434 26.4359L19.5639 13.4941V13.4669L24.005 4.25773C24.1412 3.98527 24.0323 3.68556 23.7598 3.54933C23.4873 3.4131 23.1876 3.52209 23.0514 3.79455L18.6376 12.9764L12.2075 25.0191L1.30913 3.7673C1.1729 3.49484 0.845951 3.4131 0.600737 3.54933C0.328278 3.65832 0.219294 3.98527 0.355524 4.25773Z" fill="#AFAFAF"/>
<path d="M5.79883 14.1201H18.4409C18.7407 14.1201 18.9859 13.8749 18.9859 13.5752C18.9859 13.2755 18.7407 13.0303 18.4409 13.0303H5.79883C5.49912 13.0303 5.25391 13.2755 5.25391 13.5752C5.25391 13.8749 5.49912 14.1201 5.79883 14.1201Z" fill="#AFAFAF"/>
<path d="M41.0329 9.51601H32.8046C32.6684 9.51601 32.5321 9.5705 32.4231 9.67949C32.3142 9.78847 32.2597 9.89745 32.2597 10.0609V16.6544C32.2597 16.7907 32.3142 16.9269 32.4231 17.0359C32.5321 17.1449 32.6411 17.1994 32.8046 17.1994H41.0329V18.3165H32.8046C32.3414 18.3165 31.96 18.153 31.633 17.826C31.3061 17.4991 31.1426 17.1176 31.1426 16.6544V10.0609C31.1426 9.59775 31.3061 9.2163 31.633 8.88935C31.96 8.5624 32.3414 8.39893 32.8046 8.39893H41.0329V9.51601Z" fill="#AFAFAF"/>
<path d="M56.452 8.39893V9.51601H48.5507V12.7855H54.899V13.9026H48.5507V17.1721H56.452V18.2892H47.4336V8.39893H56.452Z" fill="#AFAFAF"/>
<path d="M72.7418 10.0608V12.9489C72.7418 13.412 72.5784 13.7935 72.2514 14.1204C71.9245 14.4474 71.543 14.6109 71.0798 14.6109H69.5813L72.6873 18.2891H71.2161L68.1373 14.6109H64.5136C64.4318 14.6109 64.2411 14.5836 63.9686 14.5564V18.2891H62.8516V8.42603H71.1071C71.5703 8.42603 71.9517 8.5895 72.2787 8.91645C72.5784 9.21616 72.7418 9.62485 72.7418 10.0608ZM64.4863 13.4938H71.1071C71.2433 13.4938 71.3795 13.4393 71.4885 13.3303C71.5975 13.2213 71.652 13.1123 71.652 12.9489V10.0608C71.652 9.92455 71.5975 9.78832 71.4885 9.67934C71.3795 9.57036 71.2706 9.51586 71.1071 9.51586H64.5136C64.3773 9.51586 64.2411 9.57036 64.1321 9.67934C64.0231 9.78832 63.9686 9.89731 63.9686 10.0608V12.9489C63.9686 13.0851 64.0231 13.2213 64.1321 13.3303C64.2139 13.4393 64.3501 13.4938 64.4863 13.4938Z" fill="#AFAFAF"/>
<path d="M78.6621 8.39893H88.5524V9.51601H84.1658V18.2892H83.0487V9.51601H78.6621V8.39893Z" fill="#AFAFAF"/>
<path d="M94.5469 18.3165V8.39893H95.664V18.2892H94.5469V18.3165Z" fill="#AFAFAF"/>
<path d="M110.506 8.39893H111.923L107.782 13.3577L111.923 18.3165H110.479L106.801 13.9299H103.613V18.3165H102.496V8.39893H103.613V12.7855H106.801L110.506 8.39893Z" fill="#AFAFAF"/>
</g>
<defs>
<clipPath id="clip0_78_5487">
<rect width="111.954" height="26.701" fill="white" transform="translate(0 0.00732422)"/>
</clipPath>
</defs>
</svg>
