<svg width="111" height="27" viewBox="0 0 111 27" fill="none" xmlns="http://www.w3.org/2000/svg">
<g clip-path="url(#clip0_78_5501)">
<path d="M10.827 0.668549C9.05701 2.07115 5.85106 3.1732 1.77683 3.8411L0.507812 4.04147L0.641394 7.94872C0.80837 12.3235 1.64325 15.2289 3.64697 18.6352C4.8492 20.7057 9.52454 25.5814 11.0273 26.3495C11.8622 26.7837 12.096 26.7837 13.031 26.2827C14.1999 25.6482 16.6043 23.5777 16.6043 23.2104C16.6043 22.8764 17.506 22.0415 17.8734 22.0415C18.0403 22.0415 18.3743 21.6742 18.6081 21.2067C18.8418 20.7391 19.1758 20.3718 19.3428 20.3718C19.4763 20.3718 19.6099 20.138 19.6099 19.8708C19.6099 19.6037 19.7435 19.3699 19.9105 19.3699C20.2444 19.3699 22.5153 14.8949 22.7157 13.8597C22.7825 13.4923 22.9495 12.958 23.0496 12.6909C23.9179 10.42 24.2519 4.44222 23.5506 3.74092C23.3168 3.50715 22.5153 3.34017 21.7806 3.34017C20.1109 3.34017 17.2389 2.4051 14.6674 1.0025C12.4633 -0.166334 11.9624 -0.233124 10.827 0.668549ZM14.7676 2.93943C16.0366 3.57394 19.5097 4.5424 21.2797 4.74277C22.1146 4.84296 22.1146 4.84296 22.0812 8.41626C22.0478 10.4534 21.8808 12.4571 21.6136 13.0916C21.1127 14.394 19.7435 17.266 19.1758 18.1677C18.0069 20.0712 14.3335 23.8115 12.8975 24.5796C11.929 25.0805 11.8288 25.0471 10.2592 23.8783C5.31674 20.2716 1.94381 13.4923 1.91042 7.31421C1.91042 5.2437 2.11079 5.00994 4.01432 5.00994C5.5505 4.97654 9.25738 3.60733 10.9605 2.4051C12.1962 1.57022 12.4967 1.47004 12.9309 1.83738C13.198 2.07115 14.0329 2.57208 14.7676 2.93943Z" fill="#BCBCBC"/>
<path d="M11.4279 3.10652C10.3927 4.14178 7.65424 5.27722 5.18299 5.67796L2.91211 6.0787V8.14921C2.91211 10.3867 3.64681 13.8598 4.4149 15.3292C4.98262 16.4646 6.41862 17.1325 7.9548 16.9656C8.92326 16.8988 9.12363 16.7318 9.19043 15.9637C9.29061 15.1622 9.09024 14.9619 7.65424 14.2272C5.8509 13.2921 4.58187 11.9563 4.58187 10.9544C4.58187 9.88577 5.48355 8.51656 6.48541 8.04903C6.98634 7.81526 8.35554 7.5147 9.52438 7.41452C11.4613 7.28094 11.5949 7.31433 11.5949 7.94884C11.5949 9.45163 11.2943 9.6854 9.25722 9.6854C7.78782 9.6854 7.28689 9.81898 7.11992 10.2197C6.75257 11.1548 6.88615 11.3218 8.92326 12.357C11.1274 13.4591 11.5949 14.0936 11.5949 15.8301C11.5949 17.4331 10.4594 18.6353 8.48912 19.1363L6.88615 19.537L7.55406 20.4387C7.9548 20.9396 9.02345 21.8747 9.92512 22.5426C12.0624 24.1122 12.6301 23.9786 15.3352 21.2736C18.4409 18.2346 18.5745 18.0008 20.6116 13.1919C20.8454 12.6242 21.1125 10.7207 21.2127 8.9173L21.3797 5.67796H20.3445C19.042 5.67796 14.9344 4.27536 13.6988 3.44048C12.196 2.40522 12.1292 2.37183 11.4279 3.10652ZM17.2721 7.68168C19.2424 8.2494 19.7099 8.81712 19.8769 10.754C19.9771 12.1566 19.8769 12.691 19.376 13.2253C18.5745 14.1604 16.8379 15.0286 15.7693 15.0286C14.9678 15.0286 14.9344 15.0954 14.9344 17.0324V19.0361H13.7656H12.5967V15.8635V12.691H14.7674C16.8046 12.691 16.9715 12.6242 17.3389 11.8227C18.0068 10.3867 17.3723 9.85237 14.8008 9.75219L12.5967 9.652V8.51656V7.34772H14.3667C15.3018 7.34772 16.6376 7.5147 17.2721 7.68168Z" fill="#BCBCBC"/>
<path d="M29.0612 6.71349C27.4582 7.18103 26.2894 8.784 26.2894 10.4872C26.2894 12.3573 27.2245 13.5595 29.5288 14.5614C31.4991 15.4631 31.8998 16.4315 30.4972 17.066C29.8627 17.3666 29.3952 17.2998 28.1929 16.7655L26.6568 16.0976L26.3228 17.0994C25.7551 18.669 25.8887 19.2367 26.7903 19.6375C30.5306 21.3406 34.6048 19.6041 34.6382 16.2645L34.6716 14.8619L35.1392 16.1978C36.4416 19.9046 41.0167 21.4074 44.3563 19.2033C47.8962 16.8991 47.8962 9.78586 44.3897 7.44819C40.0817 4.60959 34.6382 7.98252 34.6382 13.5595V14.4612L33.9369 13.5595C33.5362 13.0586 32.4007 12.2905 31.4323 11.8564C30.1299 11.2886 29.6289 10.8879 29.6289 10.4204C29.6289 9.5187 30.7978 9.28493 32.2338 9.88605C32.8683 10.1198 33.436 10.3536 33.4694 10.3536C33.6364 10.3536 34.3043 8.28307 34.3043 7.81554C34.3043 6.84708 30.9647 6.11238 29.0612 6.71349ZM41.7848 9.68568C44.4231 10.6875 44.1559 16.4983 41.4509 17.1662C39.5473 17.6672 37.7106 14.9955 38.1781 12.3907C38.4119 11.2553 39.9147 9.35172 40.616 9.35172C40.783 9.35172 41.3173 9.4853 41.7848 9.68568Z" fill="#BCBCBC"/>
<path d="M47.6621 13.5251V20.3711H53.5063H59.3505V13.4917V6.64563L57.7809 6.74581L56.1779 6.846L56.0777 12.0891L55.9775 17.3655H53.5063H51.0016V12.0223V6.67902H49.3319H47.6621V13.5251Z" fill="#BCBCBC"/>
<path d="M61.2925 6.88027C60.7582 7.04725 60.6914 7.64836 60.6914 13.5259V20.0046L62.4948 20.205C66.3352 20.7059 69.5412 19.5037 70.9772 17.0992C71.7119 15.7968 71.8788 15.1289 71.8788 13.1586C71.8788 11.1549 71.7453 10.5871 70.9772 9.45171C69.7081 7.54817 68.1386 6.88027 64.6988 6.78008C63.1293 6.74669 61.5931 6.81348 61.2925 6.88027ZM67.0031 10.1864C67.9382 10.6539 68.7063 12.1233 68.7063 13.4257C68.7063 15.3627 66.6692 17.3664 64.7322 17.3664C64.0643 17.3664 64.0309 17.1994 64.0309 13.5259V9.68547H65.0328C65.6005 9.68547 66.5022 9.91924 67.0031 10.1864Z" fill="#BCBCBC"/>
<path d="M73.7129 13.3585C73.7129 19.0691 73.7797 20.0376 74.2138 20.0376C74.6146 20.0376 74.7147 19.5033 74.7147 17.366V14.6944H77.1526C78.9226 14.6944 79.8242 14.5274 80.5923 14.0598C82.5292 12.8576 82.8966 9.58487 81.2602 8.04869C80.225 7.08022 78.6888 6.67948 75.9838 6.67948H73.7129V13.3585ZM80.5589 8.51622C81.7946 9.75185 81.7946 11.7222 80.5255 13.0246C79.8576 13.7259 79.3567 13.8595 77.2194 13.9597L74.7147 14.0932V10.8873V7.68134H77.2194C79.4569 7.68134 79.8576 7.78152 80.5589 8.51622Z" fill="#BCBCBC"/>
<path d="M108.312 7.2138C108.011 7.51436 107.777 8.28245 107.777 9.05054C107.777 10.1192 107.677 10.353 107.109 10.353C106.742 10.353 106.441 10.4865 106.441 10.6869C106.441 10.8539 106.742 11.0209 107.109 11.0209C107.744 11.0209 107.777 11.2546 107.777 15.5292C107.777 18.301 107.911 20.0376 108.111 20.0376C108.312 20.0376 108.445 18.301 108.445 15.5292V11.0209H109.614C110.248 11.0209 110.783 10.8539 110.783 10.6869C110.783 10.4865 110.248 10.353 109.614 10.353C108.512 10.353 108.445 10.2862 108.445 9.25092C108.445 7.9485 108.946 7.34738 110.015 7.34738C110.449 7.34738 110.783 7.18041 110.783 7.01343C110.783 6.47911 108.879 6.61269 108.312 7.2138Z" fill="#BCBCBC"/>
<path d="M83.7285 15.1953C83.7285 19.2695 83.7953 20.0376 84.2294 20.0376C84.6302 20.0376 84.7304 19.4031 84.7304 16.3975C84.7304 13.1916 84.8306 12.6906 85.4317 11.8558C85.9994 11.1544 86.3667 10.9875 87.1014 11.0877C87.7693 11.1878 88.0699 11.0877 88.0699 10.7871C88.0699 10.1526 86.0662 10.2194 85.3315 10.9207C84.7638 11.4216 84.7304 11.4216 84.7304 10.9207C84.7304 10.5867 84.4966 10.353 84.2294 10.353C83.7953 10.353 83.7285 11.1211 83.7285 15.1953Z" fill="#BCBCBC"/>
<path d="M90.1408 10.8212C88.7382 11.5893 88.0703 13.0253 88.0703 15.2294C88.0703 17.8343 88.972 19.337 90.9757 20.005C93.8811 21.0402 96.4191 18.9029 96.4191 15.4632C96.4191 13.2591 95.7512 11.6895 94.4488 10.9214C93.3134 10.2535 91.2429 10.1867 90.1408 10.8212ZM94.0147 11.5559C97.087 13.6932 95.8848 19.3704 92.3115 19.3704C90.6084 19.3704 89.7735 18.8695 89.2058 17.5337C87.9033 14.4279 89.5063 11.0216 92.2447 11.0216C92.8124 11.0216 93.6139 11.2554 94.0147 11.5559Z" fill="#BCBCBC"/>
<path d="M99.3945 10.8541C97.3908 11.9227 96.7229 16.2307 98.1923 18.4014C99.2609 20.0044 101.231 20.6723 102.968 20.0044C104.838 19.3031 105.773 17.7335 105.773 15.2956C105.773 12.958 105.138 11.5554 103.769 10.8541C102.567 10.2195 100.53 10.2195 99.3945 10.8541ZM103.369 11.5554C105.005 12.6908 105.573 15.2956 104.638 17.5331C104.07 18.9023 103.235 19.3699 101.432 19.3699C99.0939 19.3699 97.6913 17.099 98.2591 14.1268C98.7266 11.5888 101.465 10.2195 103.369 11.5554Z" fill="#BCBCBC"/>
</g>
<defs>
<clipPath id="clip0_78_5501">
<rect width="110.204" height="26.7162" fill="white" transform="translate(0.568359)"/>
</clipPath>
</defs>
</svg>
