<svg width="20" height="20" viewBox="0 0 20 20" fill="none" xmlns="http://www.w3.org/2000/svg">
<g id="Icon">
<path d="M19.2031 17.6249C19.2031 18.9102 18.1612 19.9521 16.8759 19.9521L7.56676 19.9521C6.28144 19.9521 5.23949 18.9102 5.23949 17.6249L5.23949 8.31578C5.23949 7.03047 6.28144 5.98851 7.56676 5.98851L16.8759 5.98851C18.1612 5.98851 19.2031 7.03047 19.2031 8.31578L19.2031 17.6249Z" fill="#E6AE00"/>
<path d="M12.8849 4.24306C13.1611 4.24306 13.3849 4.0192 13.3849 3.74306L13.3849 3.66124C13.3849 2.37592 12.343 0.752147 11.0577 0.752147L2.3304 0.752146C1.04508 0.752146 0.00312582 1.7941 0.00312571 3.07942L0.00312485 12.9703C0.00312474 14.2556 1.04508 15.2976 2.3304 15.2976L2.99403 15.2976C3.27018 15.2976 3.49403 15.0737 3.49403 14.7976L3.49403 8.31578C3.49403 6.06648 5.31746 4.24306 7.56676 4.24306L12.8849 4.24306Z" fill="#E6AE00"/>
</g>
</svg>
