<svg width="38" height="39" viewBox="0 0 38 39" fill="none" xmlns="http://www.w3.org/2000/svg">
<path d="M19.0323 6.73022C26.1638 6.73022 31.9297 12.4961 31.9297 19.6276C31.9297 26.759 26.1638 32.5249 19.0323 32.5249C11.9009 32.5249 6.13501 26.759 6.13501 19.6276C6.13501 12.4961 11.9009 6.73022 19.0323 6.73022ZM19.0323 31.0076C25.3293 31.0076 30.4124 25.9245 30.4124 19.6276C30.4124 13.3306 25.3293 8.24756 19.0323 8.24756C12.7354 8.24756 7.65234 13.3306 7.65234 19.6276C7.65235 25.9245 12.7354 31.0076 19.0323 31.0076Z" fill="#E5AE00"/>
<path d="M26 19.998C26 20.5503 25.5523 20.998 25 20.998H22C20.8954 20.998 20 21.8935 20 22.998V25.998C20 26.5503 19.5523 26.998 19 26.998C18.4477 26.998 18 26.5503 18 25.998V22.998C18 21.8935 17.1046 20.998 16 20.998H13C12.4477 20.998 12 20.5503 12 19.998C12 19.4458 12.4477 18.998 13 18.998H16C17.1046 18.998 18 18.1026 18 16.998V13.998C18 13.4458 18.4477 12.998 19 12.998C19.5523 12.998 20 13.4458 20 13.998V16.998C20 18.1026 20.8954 18.998 22 18.998H25C25.5523 18.998 26 19.4458 26 19.998Z" fill="#E5AE00"/>
</svg>
