<svg width="217" height="49" viewBox="0 0 217 49" fill="none" xmlns="http://www.w3.org/2000/svg">
<path d="M55.4175 31.8789V13.9322H62.7789C63.6082 13.9322 64.3697 14.0083 65.0635 14.1606C65.7743 14.296 66.3835 14.5414 66.8912 14.8968C67.4158 15.2522 67.822 15.726 68.1097 16.3183C68.3973 16.9106 68.5412 17.6467 68.5412 18.5267C68.5412 19.339 68.355 20.0836 67.9827 20.7606C67.6104 21.4206 67.0604 21.9198 66.3328 22.2582C67.3143 22.5121 68.0674 23.0028 68.592 23.7305C69.1166 24.4413 69.3789 25.372 69.3789 26.5228C69.3789 27.5551 69.1843 28.4182 68.795 29.112C68.4227 29.7889 67.8981 30.3305 67.2212 30.7366C66.5612 31.1428 65.7912 31.4389 64.9112 31.6251C64.0312 31.7943 63.092 31.8789 62.0936 31.8789H55.4175ZM58.5905 28.9851H62.3728C62.8466 28.9851 63.312 28.9512 63.7689 28.8836C64.2259 28.8159 64.6405 28.6974 65.0128 28.5282C65.3851 28.3589 65.6728 28.1136 65.8758 27.792C66.0958 27.4536 66.2058 27.022 66.2058 26.4974C66.2058 26.0236 66.1212 25.6344 65.952 25.3297C65.7828 25.0251 65.5458 24.7882 65.2412 24.619C64.9535 24.4328 64.6066 24.3059 64.2005 24.2382C63.7943 24.1536 63.3712 24.1113 62.9313 24.1113H58.5905V28.9851ZM58.5905 21.4459H61.9413C62.4659 21.4459 62.9397 21.3952 63.3628 21.2936C63.7859 21.1921 64.1497 21.0398 64.4543 20.8367C64.7589 20.6167 64.9958 20.3544 65.1651 20.0498C65.3343 19.7283 65.4189 19.339 65.4189 18.8821C65.4189 18.2898 65.2835 17.8498 65.0128 17.5621C64.742 17.2575 64.3697 17.0629 63.8959 16.9783C63.4389 16.8767 62.9228 16.826 62.3474 16.826H58.5905V21.4459ZM71.9159 31.8789V13.9322H75.0128V31.8789H71.9159ZM84.1317 32.0566C82.761 32.0566 81.5764 31.7774 80.5779 31.2189C79.5964 30.6605 78.8349 29.8651 78.2933 28.8328C77.7687 27.8005 77.5064 26.5905 77.5064 25.2028C77.5064 23.7982 77.7772 22.5882 78.3187 21.5729C78.8603 20.5406 79.6218 19.7367 80.6033 19.1613C81.5849 18.586 82.761 18.2983 84.1317 18.2983C85.4856 18.2983 86.6533 18.586 87.6348 19.1613C88.6163 19.7367 89.3694 20.549 89.894 21.5982C90.4186 22.6305 90.6809 23.849 90.6809 25.2536C90.6809 26.6243 90.4186 27.8259 89.894 28.8582C89.3863 29.8735 88.6417 30.6605 87.6602 31.2189C86.6786 31.7774 85.5025 32.0566 84.1317 32.0566ZM84.1064 29.2389C84.9525 29.2389 85.6294 29.0528 86.1371 28.6805C86.6617 28.3082 87.0425 27.8174 87.2794 27.2082C87.5163 26.599 87.6348 25.939 87.6348 25.2282C87.6348 24.5174 87.5163 23.849 87.2794 23.2228C87.0425 22.5967 86.6617 22.0975 86.1371 21.7252C85.6294 21.3359 84.9525 21.1413 84.1064 21.1413C83.2602 21.1413 82.5748 21.3359 82.0502 21.7252C81.5256 22.0975 81.1449 22.5967 80.9079 23.2228C80.671 23.8321 80.5526 24.5005 80.5526 25.2282C80.5526 25.939 80.671 26.6074 80.9079 27.2336C81.1618 27.8428 81.5425 28.3336 82.0502 28.7059C82.5748 29.0612 83.2602 29.2389 84.1064 29.2389ZM99.0496 32.0566C97.6619 32.0566 96.4943 31.7774 95.5466 31.2189C94.5989 30.6435 93.8797 29.8397 93.3889 28.8074C92.8981 27.7751 92.6528 26.582 92.6528 25.2282C92.6528 23.8744 92.9066 22.6813 93.4143 21.649C93.922 20.5998 94.6666 19.779 95.6481 19.1867C96.6296 18.5944 97.8227 18.2983 99.2273 18.2983C100.26 18.2983 101.173 18.476 101.969 18.8313C102.781 19.1867 103.433 19.7113 103.923 20.4052C104.431 21.0821 104.753 21.9282 104.888 22.9436H101.842C101.639 22.3005 101.3 21.8352 100.827 21.5475C100.37 21.2429 99.8196 21.0906 99.1765 21.0906C98.3135 21.0906 97.6281 21.3021 97.1204 21.7252C96.6296 22.1313 96.2743 22.6475 96.0543 23.2736C95.8343 23.8998 95.7243 24.5513 95.7243 25.2282C95.7243 25.939 95.8427 26.6074 96.0797 27.2336C96.3166 27.8428 96.6804 28.3336 97.1712 28.7059C97.6789 29.0782 98.3304 29.2643 99.1258 29.2643C99.7688 29.2643 100.344 29.1205 100.852 28.8328C101.377 28.5451 101.715 28.0797 101.867 27.4366H105.015C104.896 28.4689 104.55 29.332 103.974 30.0258C103.416 30.7028 102.705 31.2105 101.842 31.5489C100.979 31.8874 100.048 32.0566 99.0496 32.0566ZM107.34 31.8789V13.9322H110.437V23.8574H112.366L115.895 18.5013H119.372L115.031 24.8728L119.728 31.8789H116.123L112.544 26.5736H110.437V31.8789H107.34ZM127.086 32.0566C125.699 32.0566 124.531 31.7774 123.583 31.2189C122.636 30.6435 121.917 29.8397 121.426 28.8074C120.935 27.7751 120.69 26.582 120.69 25.2282C120.69 23.8744 120.943 22.6813 121.451 21.649C121.959 20.5998 122.703 19.779 123.685 19.1867C124.666 18.5944 125.86 18.2983 127.264 18.2983C128.296 18.2983 129.21 18.476 130.006 18.8313C130.818 19.1867 131.469 19.7113 131.96 20.4052C132.468 21.0821 132.789 21.9282 132.925 22.9436H129.879C129.676 22.3005 129.337 21.8352 128.863 21.5475C128.406 21.2429 127.856 21.0906 127.213 21.0906C126.35 21.0906 125.665 21.3021 125.157 21.7252C124.666 22.1313 124.311 22.6475 124.091 23.2736C123.871 23.8998 123.761 24.5513 123.761 25.2282C123.761 25.939 123.88 26.6074 124.116 27.2336C124.353 27.8428 124.717 28.3336 125.208 28.7059C125.716 29.0782 126.367 29.2643 127.163 29.2643C127.806 29.2643 128.381 29.1205 128.889 28.8328C129.413 28.5451 129.752 28.0797 129.904 27.4366H133.052C132.933 28.4689 132.586 29.332 132.011 30.0258C131.453 30.7028 130.742 31.2105 129.879 31.5489C129.016 31.8874 128.085 32.0566 127.086 32.0566ZM135.377 31.8789V13.9322H138.474V20.2275C138.829 19.7706 139.244 19.3983 139.718 19.1106C140.191 18.8229 140.691 18.6198 141.215 18.5013C141.74 18.366 142.239 18.2983 142.713 18.2983C143.982 18.2983 144.981 18.5775 145.708 19.136C146.436 19.6944 146.944 20.439 147.231 21.3698C147.536 22.3005 147.688 23.3498 147.688 24.5174V31.8789H144.591V25.0505C144.591 24.5936 144.557 24.1282 144.49 23.6544C144.422 23.1805 144.287 22.7575 144.084 22.3852C143.898 21.9959 143.61 21.6829 143.221 21.4459C142.848 21.209 142.349 21.0906 141.723 21.0906C141.131 21.0906 140.623 21.2175 140.2 21.4713C139.777 21.7082 139.438 22.0382 139.184 22.4613C138.948 22.8844 138.77 23.3498 138.651 23.8574C138.533 24.3651 138.474 24.8728 138.474 25.3805V31.8789H135.377ZM154.862 32.0566C154.236 32.0566 153.644 31.972 153.085 31.8028C152.527 31.6335 152.028 31.3881 151.588 31.0666C151.148 30.7281 150.792 30.3135 150.521 29.8228C150.268 29.3151 150.141 28.7228 150.141 28.0459C150.141 27.1828 150.31 26.4805 150.648 25.939C150.987 25.3805 151.444 24.9574 152.019 24.6697C152.611 24.3821 153.28 24.1874 154.024 24.0859C154.769 23.9674 155.547 23.9082 156.36 23.9082H158.974C158.974 23.3159 158.881 22.8082 158.695 22.3852C158.509 21.9452 158.213 21.5982 157.807 21.3444C157.417 21.0906 156.91 20.9636 156.284 20.9636C155.877 20.9636 155.497 21.0144 155.141 21.1159C154.803 21.2006 154.507 21.3444 154.253 21.5475C154.016 21.7336 153.847 21.979 153.745 22.2836H150.572C150.691 21.5898 150.928 20.9975 151.283 20.5067C151.655 19.999 152.104 19.5844 152.628 19.2629C153.17 18.9413 153.762 18.7044 154.405 18.5521C155.048 18.3829 155.7 18.2983 156.36 18.2983C158.306 18.2983 159.719 18.8567 160.599 19.9736C161.496 21.0906 161.944 22.6559 161.944 24.6697V31.8789H159.203L159.127 30.1528C158.737 30.7281 158.272 31.1512 157.731 31.422C157.189 31.6928 156.664 31.862 156.157 31.9297C155.649 32.0143 155.217 32.0566 154.862 32.0566ZM155.471 29.5435C156.148 29.5435 156.749 29.4166 157.274 29.1628C157.798 28.9089 158.213 28.5536 158.517 28.0966C158.839 27.6397 159 27.1151 159 26.5228V26.0913H156.563C156.157 26.0913 155.751 26.1082 155.344 26.142C154.955 26.159 154.6 26.2267 154.278 26.3451C153.957 26.4467 153.694 26.6074 153.491 26.8274C153.305 27.0474 153.212 27.3605 153.212 27.7666C153.212 28.1728 153.314 28.5028 153.517 28.7566C153.737 29.0105 154.016 29.2051 154.354 29.3405C154.71 29.4759 155.082 29.5435 155.471 29.5435ZM164.901 31.8789V18.5013H167.998V31.8789H164.901ZM166.449 16.9529C165.857 16.9529 165.383 16.7752 165.028 16.4198C164.673 16.0645 164.495 15.5991 164.495 15.0237C164.495 14.4652 164.681 14.0083 165.053 13.6529C165.426 13.2806 165.891 13.0945 166.449 13.0945C166.991 13.0945 167.456 13.2722 167.846 13.6276C168.235 13.9829 168.429 14.4483 168.429 15.0237C168.429 15.5991 168.243 16.0645 167.871 16.4198C167.499 16.7752 167.025 16.9529 166.449 16.9529ZM170.999 31.8789V18.5013H173.893L174.071 20.2021C174.426 19.7283 174.841 19.356 175.315 19.0852C175.788 18.8144 176.288 18.6198 176.812 18.5013C177.337 18.366 177.828 18.2983 178.285 18.2983C179.554 18.2983 180.552 18.5775 181.28 19.136C182.024 19.6944 182.549 20.439 182.854 21.3698C183.158 22.3005 183.311 23.3413 183.311 24.4921V31.8789H180.214V24.9997C180.214 24.509 180.18 24.0351 180.112 23.5782C180.044 23.1044 179.909 22.6813 179.706 22.309C179.52 21.9367 179.249 21.6405 178.894 21.4206C178.538 21.2006 178.065 21.0906 177.472 21.0906C176.745 21.0906 176.127 21.2852 175.619 21.6744C175.111 22.0636 174.731 22.5882 174.477 23.2482C174.223 23.8913 174.096 24.6274 174.096 25.4567V31.8789H170.999ZM186.728 31.8789V13.9322H199.267V16.826H189.901V22.1821H197.922V25.0759H189.901V31.8789H186.728ZM200.196 31.8789L206.212 22.8928L200.399 13.9322H204.206L208.217 20.5067L212.177 13.9322H215.909L210.121 22.8675L216.112 31.8789H212.304L208.116 25.279L203.851 31.8789H200.196Z" fill="white"/>
<circle cx="24.023" cy="23.5464" r="22.5464" stroke="#ECB300" stroke-width="1.52857"/>
<path d="M27.4095 12.37C28.4238 12.6759 29.1197 13.1284 29.5271 13.4007C30.0321 13.7359 30.4182 14.0669 30.6771 14.3141C31.4876 15.2568 31.755 16.2581 31.9035 16.8112C32.209 17.9466 32.1751 18.927 32.103 19.5345C31.721 19.17 31.0633 18.6421 30.1169 18.265C29.3658 17.9675 28.6911 17.867 28.2158 17.8335C28.2285 17.6323 28.2498 16.9955 27.8254 16.3838C27.261 15.571 26.3656 15.4327 26.2128 15.4118H19.6353V18.7636H28.0461C28.4704 18.7929 29.1027 18.8809 29.8072 19.1616C31.0123 19.6392 31.7295 20.3934 32.1581 20.8584C33.0153 21.7844 34.9377 23.8541 34.8401 27.0048C34.8273 27.474 34.6534 31.0185 31.6149 33.0505C29.7478 34.3033 27.7957 34.3075 27.0616 34.2698H16.6647V24.2144H26.6372C26.9512 23.8248 27.2653 23.4351 27.5793 23.0455C27.9273 23.1335 28.5723 23.3471 29.2046 23.875C29.8411 24.4071 30.1636 25.0063 30.3079 25.3289C30.1467 25.6305 29.9175 25.9741 29.5823 26.3093C28.5086 27.3777 27.1295 27.5327 26.633 27.5662H19.631V30.918H27.906C28.3686 30.8509 29.6332 30.6037 30.5456 29.5479C31.912 27.9726 31.6149 25.5886 30.6347 24.118C30.554 23.9965 29.4337 22.3709 27.6047 22.1195C27.1295 22.0525 26.7603 22.1195 26.633 22.1195C23.9807 22.1195 16.8175 22.1195 16.6562 22.1195V12.0642C16.6562 12.0642 17.6068 12.06 19.4698 12.0642C21.2096 12.0432 22.975 12.0474 24.7615 12.0726C25.118 12.0768 25.4745 12.0851 25.8267 12.0893C26.4887 12.1354 27.0234 12.2611 27.3968 12.3742L27.4095 12.37Z" fill="#ECB300"/>
</svg>
