<svg width="292" height="66" viewBox="0 0 292 66" fill="none" xmlns="http://www.w3.org/2000/svg">
<path d="M74.5396 44.2559V20.1032H84.4467C85.5626 20.1032 86.5875 20.2057 87.5213 20.4107C88.4778 20.5929 89.2977 20.9231 89.9809 21.4014C90.6869 21.8797 91.2335 22.5174 91.6207 23.3145C92.0079 24.1116 92.2015 25.1023 92.2015 26.2866C92.2015 27.3798 91.9509 28.3819 91.4499 29.2928C90.9489 30.1811 90.2087 30.8529 89.2294 31.3084C90.5503 31.65 91.5638 32.3105 92.2698 33.2898C92.9758 34.2464 93.3288 35.499 93.3288 37.0476C93.3288 38.4369 93.0669 39.5984 92.5431 40.5322C92.042 41.4432 91.336 42.172 90.425 42.7186C89.5368 43.2652 88.5006 43.6637 87.3163 43.9142C86.132 44.142 84.868 44.2559 83.5243 44.2559H74.5396ZM78.8099 40.3614H83.9001C84.5378 40.3614 85.1641 40.3158 85.779 40.2247C86.3939 40.1336 86.9519 39.9742 87.4529 39.7465C87.954 39.5187 88.3411 39.1885 88.6144 38.7558C88.9105 38.3003 89.0586 37.7195 89.0586 37.0135C89.0586 36.3758 88.9447 35.852 88.7169 35.442C88.4892 35.0321 88.1703 34.7132 87.7604 34.4855C87.3732 34.235 86.9063 34.0642 86.3597 33.9731C85.8131 33.8592 85.2438 33.8022 84.6516 33.8022H78.8099V40.3614ZM78.8099 30.2152H83.3193C84.0253 30.2152 84.663 30.1469 85.2324 30.0103C85.8018 29.8736 86.2914 29.6686 86.7014 29.3953C87.1113 29.0993 87.4302 28.7463 87.6579 28.3363C87.8857 27.9036 87.9995 27.3798 87.9995 26.7648C87.9995 25.9677 87.8173 25.3756 87.4529 24.9884C87.0885 24.5785 86.5875 24.3166 85.9498 24.2027C85.3349 24.066 84.6402 23.9977 83.8659 23.9977H78.8099V30.2152ZM96.7432 44.2559V20.1032H100.911V44.2559H96.7432ZM113.183 44.495C111.338 44.495 109.744 44.1192 108.4 43.3676C107.08 42.6161 106.055 41.5457 105.326 40.1564C104.62 38.7671 104.267 37.1387 104.267 35.2712C104.267 33.3809 104.631 31.7525 105.36 30.386C106.089 28.9968 107.114 27.915 108.435 27.1406C109.756 26.3663 111.338 25.9791 113.183 25.9791C115.005 25.9791 116.577 26.3663 117.898 27.1406C119.218 27.915 120.232 29.0082 120.938 30.4202C121.644 31.8095 121.997 33.4492 121.997 35.3395C121.997 37.1843 121.644 38.8013 120.938 40.1906C120.255 41.5571 119.253 42.6161 117.932 43.3676C116.611 44.1192 115.028 44.495 113.183 44.495ZM113.149 40.703C114.288 40.703 115.199 40.4525 115.882 39.9514C116.588 39.4504 117.1 38.7899 117.419 37.97C117.738 37.1501 117.898 36.2619 117.898 35.3054C117.898 34.3488 117.738 33.4492 117.419 32.6066C117.1 31.7639 116.588 31.0921 115.882 30.591C115.199 30.0672 114.288 29.8053 113.149 29.8053C112.01 29.8053 111.088 30.0672 110.382 30.591C109.676 31.0921 109.163 31.7639 108.845 32.6066C108.526 33.4265 108.366 34.3261 108.366 35.3054C108.366 36.2619 108.526 37.1615 108.845 38.0042C109.186 38.8241 109.699 39.4845 110.382 39.9856C111.088 40.4639 112.01 40.703 113.149 40.703ZM133.26 44.495C131.392 44.495 129.821 44.1192 128.545 43.3676C127.27 42.5933 126.302 41.5115 125.641 40.1222C124.981 38.733 124.651 37.1274 124.651 35.3054C124.651 33.4834 124.992 31.8778 125.676 30.4885C126.359 29.0765 127.361 27.9719 128.682 27.1748C130.003 26.3777 131.608 25.9791 133.499 25.9791C134.888 25.9791 136.118 26.2183 137.188 26.6965C138.281 27.1748 139.158 27.8808 139.819 28.8146C140.502 29.7256 140.935 30.8643 141.117 32.2308H137.017C136.744 31.3653 136.289 30.739 135.651 30.3519C135.036 29.9419 134.296 29.737 133.43 29.737C132.269 29.737 131.346 30.0216 130.663 30.591C130.003 31.1376 129.524 31.8322 129.228 32.6749C128.932 33.5176 128.784 34.3944 128.784 35.3054C128.784 36.2619 128.944 37.1615 129.263 38.0042C129.581 38.8241 130.071 39.4845 130.732 39.9856C131.415 40.4866 132.292 40.7372 133.362 40.7372C134.227 40.7372 135.002 40.5436 135.685 40.1564C136.391 39.7692 136.847 39.1429 137.052 38.2775H141.288C141.128 39.6667 140.661 40.8283 139.887 41.762C139.135 42.673 138.179 43.3563 137.017 43.8118C135.856 44.2672 134.603 44.495 133.26 44.495ZM144.417 44.2559V20.1032H148.584V33.4606H151.181L155.929 26.2524H160.61L154.768 34.8271L161.088 44.2559H156.237L151.42 37.116H148.584V44.2559H144.417ZM170.991 44.495C169.124 44.495 167.552 44.1192 166.277 43.3676C165.002 42.5933 164.034 41.5115 163.373 40.1222C162.713 38.733 162.382 37.1274 162.382 35.3054C162.382 33.4834 162.724 31.8778 163.407 30.4885C164.091 29.0765 165.093 27.9719 166.414 27.1748C167.735 26.3777 169.34 25.9791 171.23 25.9791C172.62 25.9791 173.85 26.2183 174.92 26.6965C176.013 27.1748 176.89 27.8808 177.55 28.8146C178.234 29.7256 178.666 30.8643 178.849 32.2308H174.749C174.476 31.3653 174.02 30.739 173.383 30.3519C172.768 29.9419 172.028 29.737 171.162 29.737C170.001 29.737 169.078 30.0216 168.395 30.591C167.735 31.1376 167.256 31.8322 166.96 32.6749C166.664 33.5176 166.516 34.3944 166.516 35.3054C166.516 36.2619 166.676 37.1615 166.994 38.0042C167.313 38.8241 167.803 39.4845 168.463 39.9856C169.147 40.4866 170.023 40.7372 171.094 40.7372C171.959 40.7372 172.734 40.5436 173.417 40.1564C174.123 39.7692 174.578 39.1429 174.783 38.2775H179.019C178.86 39.6667 178.393 40.8283 177.619 41.762C176.867 42.673 175.911 43.3563 174.749 43.8118C173.588 44.2672 172.335 44.495 170.991 44.495ZM182.148 44.2559V20.1032H186.316V28.5754C186.795 27.9605 187.353 27.4595 187.99 27.0723C188.628 26.6851 189.3 26.4118 190.006 26.2524C190.712 26.0702 191.384 25.9791 192.021 25.9791C193.729 25.9791 195.073 26.3549 196.052 27.1065C197.032 27.858 197.715 28.8601 198.102 30.1127C198.512 31.3653 198.717 32.7774 198.717 34.3488V44.2559H194.549V35.0662C194.549 34.4513 194.504 33.825 194.413 33.1873C194.322 32.5496 194.139 31.9803 193.866 31.4792C193.616 30.9554 193.228 30.5341 192.705 30.2152C192.204 29.8964 191.532 29.737 190.689 29.737C189.892 29.737 189.209 29.9078 188.639 30.2494C188.07 30.5682 187.614 31.0123 187.273 31.5817C186.954 32.1511 186.715 32.7774 186.555 33.4606C186.396 34.1439 186.316 34.8271 186.316 35.5104V44.2559H182.148ZM208.372 44.495C207.529 44.495 206.732 44.3811 205.98 44.1534C205.229 43.9256 204.557 43.5954 203.965 43.1627C203.373 42.7072 202.894 42.1492 202.53 41.4887C202.188 40.8055 202.017 40.0084 202.017 39.0974C202.017 37.9359 202.245 36.9907 202.701 36.2619C203.156 35.5104 203.771 34.941 204.545 34.5538C205.343 34.1666 206.242 33.9047 207.244 33.7681C208.246 33.6087 209.294 33.529 210.387 33.529H213.906C213.906 32.7318 213.781 32.0486 213.53 31.4792C213.28 30.8871 212.881 30.4202 212.334 30.0786C211.811 29.737 211.127 29.5661 210.285 29.5661C209.738 29.5661 209.226 29.6345 208.747 29.7711C208.292 29.885 207.893 30.0786 207.552 30.3519C207.233 30.6024 207.005 30.9326 206.869 31.3426H202.598C202.758 30.4088 203.077 29.6117 203.555 28.9512C204.056 28.268 204.659 27.71 205.365 27.2773C206.094 26.8446 206.891 26.5257 207.757 26.3207C208.622 26.093 209.499 25.9791 210.387 25.9791C213.006 25.9791 214.908 26.7307 216.092 28.2338C217.299 29.737 217.903 31.8436 217.903 34.5538V44.2559H214.213L214.111 41.9328C213.587 42.7072 212.961 43.2765 212.232 43.6409C211.503 44.0053 210.797 44.2331 210.114 44.3242C209.431 44.4381 208.85 44.495 208.372 44.495ZM209.192 41.1129C210.103 41.1129 210.911 40.9421 211.617 40.6005C212.323 40.2589 212.881 39.7806 213.291 39.1657C213.724 38.5508 213.94 37.8448 213.94 37.0476V36.4669H210.661C210.114 36.4669 209.567 36.4897 209.021 36.5352C208.497 36.558 208.019 36.6491 207.586 36.8085C207.153 36.9452 206.8 37.1615 206.527 37.4576C206.276 37.7537 206.151 38.175 206.151 38.7216C206.151 39.2682 206.288 39.7123 206.561 40.0539C206.857 40.3955 207.233 40.6574 207.688 40.8396C208.167 41.0218 208.668 41.1129 209.192 41.1129ZM221.882 44.2559V26.2524H226.05V44.2559H221.882ZM223.966 24.1685C223.169 24.1685 222.531 23.9294 222.053 23.4511C221.575 22.9729 221.335 22.3465 221.335 21.5722C221.335 20.8206 221.586 20.2057 222.087 19.7274C222.588 19.2264 223.214 18.9759 223.966 18.9759C224.695 18.9759 225.321 19.215 225.845 19.6933C226.369 20.1716 226.631 20.7979 226.631 21.5722C226.631 22.3465 226.38 22.9729 225.879 23.4511C225.378 23.9294 224.74 24.1685 223.966 24.1685ZM230.089 44.2559V26.2524H233.983L234.223 28.5413C234.701 27.9036 235.259 27.4025 235.896 27.0381C236.534 26.6737 237.206 26.4118 237.912 26.2524C238.618 26.0702 239.279 25.9791 239.893 25.9791C241.602 25.9791 242.945 26.3549 243.925 27.1065C244.927 27.858 245.633 28.8601 246.043 30.1127C246.453 31.3653 246.658 32.766 246.658 34.3147V44.2559H242.49V34.9979C242.49 34.3375 242.444 33.6998 242.353 33.0848C242.262 32.4471 242.08 31.8778 241.807 31.3767C241.556 30.8757 241.192 30.4771 240.713 30.1811C240.235 29.885 239.597 29.737 238.8 29.737C237.821 29.737 236.99 29.9989 236.306 30.5227C235.623 31.0465 235.111 31.7525 234.769 32.6407C234.427 33.5062 234.257 34.4969 234.257 35.6128V44.2559H230.089ZM251.256 44.2559V20.1032H268.132V23.9977H255.526V31.2059H266.322V35.1004H255.526V44.2559H251.256ZM269.381 44.2559L277.478 32.1625L269.655 20.1032H274.779L280.176 28.9512L285.506 20.1032H290.528L282.739 32.1283L290.801 44.2559H285.677L280.04 35.3737L274.301 44.2559H269.381Z" fill="white"/>
<circle cx="32.296" cy="32.3429" r="30.3429" stroke="#ECB300" stroke-width="2.05714"/>
<path d="M36.8467 17.3008C38.2116 17.7124 39.1482 18.3213 39.6965 18.6878C40.3761 19.1389 40.8958 19.5844 41.2442 19.917C42.335 21.1857 42.6948 22.5333 42.8947 23.2776C43.3059 24.8056 43.2602 26.125 43.1631 26.9426C42.6491 26.4521 41.7639 25.7416 40.4903 25.2341C39.4795 24.8338 38.5714 24.6985 37.9318 24.6534C37.9489 24.3827 37.9775 23.5257 37.4064 22.7025C36.6468 21.6086 35.4418 21.4225 35.2362 21.3943H26.3841V25.9051H37.7034C38.2745 25.9446 39.1254 26.063 40.0734 26.4408C41.6954 27.0836 42.6605 28.0985 43.2373 28.7244C44.391 29.9705 46.978 32.7559 46.8467 36.9961C46.8296 37.6276 46.5954 42.3978 42.5063 45.1325C39.9935 46.8184 37.3664 46.824 36.3784 46.7733H22.3864V33.2408H35.8073C36.2299 32.7164 36.6525 32.1921 37.0751 31.6677C37.5435 31.7861 38.4115 32.0737 39.2625 32.7841C40.1191 33.5002 40.5532 34.3065 40.7473 34.7407C40.5303 35.1466 40.2219 35.609 39.7707 36.0601C38.3259 37.4979 36.4698 37.7065 35.8016 37.7516H26.3784V42.2625H37.5149C38.1374 42.1722 39.8393 41.8396 41.0672 40.4187C42.9061 38.2986 42.5063 35.0903 41.1871 33.1111C41.0786 32.9476 39.5709 30.7599 37.1094 30.4216C36.4698 30.3314 35.9729 30.4216 35.8016 30.4216C32.2322 30.4216 22.592 30.4216 22.375 30.4216V16.8891C22.375 16.8891 23.6543 16.8835 26.1614 16.8891C28.5029 16.861 30.8787 16.8666 33.283 16.9004C33.7628 16.9061 34.2425 16.9173 34.7165 16.923C35.6074 16.985 36.327 17.1542 36.8296 17.3064L36.8467 17.3008Z" fill="#ECB300"/>
</svg>
