<svg width="122" height="36" viewBox="0 0 122 36" fill="none" xmlns="http://www.w3.org/2000/svg">
<g clip-path="url(#clip0_3610_20987)">
<path d="M25.8301 9.411C25.8301 9.57738 25.8452 9.63788 25.8603 9.53956C25.8755 9.44881 25.8755 9.31269 25.8603 9.23706C25.8377 9.169 25.8225 9.24463 25.8301 9.411Z" fill="white"/>
<path d="M67.1016 18.1842V24.3477H68.2284H69.3627L69.3854 22.2453C69.4081 20.2034 69.4157 20.1429 69.5821 19.848C69.877 19.3564 70.119 19.1447 70.603 18.9783C71.1777 18.7892 71.3063 18.7892 71.813 18.9783C72.1987 19.122 72.6222 19.4925 72.8264 19.8555C73.023 20.211 73.0835 20.937 73.0608 22.631L73.0381 24.3477H74.1574H75.2691V22.389C75.2691 21.3151 75.2312 20.2488 75.1934 20.0295C75.1027 19.5379 74.6867 18.6607 74.3918 18.3052C74.1347 18.0027 73.4314 17.4658 73.1137 17.3221C72.1987 16.9137 71.2685 16.8457 70.3761 17.1255C70.0736 17.2238 69.756 17.3523 69.6577 17.4204C69.5669 17.4885 69.4611 17.5414 69.4308 17.5414C69.393 17.5414 69.3703 16.3012 69.3703 14.7811V12.0208H68.2359H67.1016V18.1842Z" fill="white"/>
<path d="M94.3203 18.1842V24.3477H95.4169H96.5134V18.1842V12.0208H95.4169H94.3203V18.1842Z" fill="white"/>
<path d="M97.7266 18.1842V24.3477H98.8609H99.9953V18.1842V12.0208H98.8609H97.7266V18.1842Z" fill="white"/>
<path d="M41.5391 13.8733V15.0455H43.165H44.7909L44.8061 19.6738L44.8287 24.3096H46.0009H47.1731L47.1958 19.6738L47.2109 15.0455H48.8369H50.4628V13.8733V12.7011H46.0009H41.5391V13.8733Z" fill="white"/>
<path d="M76.7183 16.1193L76.7409 19.5451L78.9114 19.5829L81.0743 19.6207L81.3692 19.8551C81.7322 20.1425 81.9213 20.5131 81.9213 20.9214C81.9213 21.3298 81.8003 21.6021 81.4826 21.9046C81.1877 22.1995 80.8398 22.3054 80.197 22.3054H79.7206L79.7433 23.3036L79.7659 24.3094H80.3709C81.528 24.317 82.3523 23.9994 83.0556 23.2809C83.9783 22.3356 84.3186 20.9366 83.9102 19.7266C83.7136 19.1291 83.5321 18.8342 83.0632 18.3351L82.7531 18.0023L82.9498 17.6393C83.2749 17.0268 83.3959 16.1193 83.2523 15.3781C83.1993 15.1059 82.9346 14.516 82.7153 14.1757C82.5641 13.9413 81.9213 13.3136 81.8305 13.306C81.8003 13.306 81.7322 13.2606 81.6793 13.2077C81.2633 12.8144 80.5524 12.701 78.503 12.701H76.7031L76.7183 16.1193ZM80.3634 14.8336C80.8776 15.0983 81.0894 15.4008 81.0894 15.8924C81.0894 16.3613 80.9911 16.5957 80.6734 16.9058C80.5222 17.0494 80.4012 17.1629 80.3861 17.1704C80.3785 17.178 80.0231 17.2007 79.592 17.2309L78.8206 17.2763V15.968V14.6597L79.4483 14.6748C79.8945 14.6824 80.1516 14.7278 80.3634 14.8336Z" fill="white"/>
<path d="M101.203 13.8737V15.0459H102.338H103.472V13.8737V12.7015H102.338H101.203V13.8737Z" fill="white"/>
<path d="M54.2236 16.8987C54.2085 16.9138 54.0119 16.9441 53.785 16.9668C53.1195 17.0424 52.2195 17.534 51.6826 18.1087C51.2062 18.6078 50.7751 19.3716 50.6995 19.8632C50.6314 20.2489 50.6314 21.3757 50.6995 21.6631C50.7675 21.9353 51.191 22.805 51.3574 23.0092C52.1969 24.0301 53.18 24.499 54.4732 24.499C55.2899 24.499 55.9252 24.31 56.5453 23.8713C56.9537 23.5915 57.3394 23.2588 57.3394 23.1983C57.3394 23.1831 57.2184 23.1075 57.0747 23.0319C56.931 22.9487 56.81 22.858 56.81 22.8201C56.81 22.7899 56.7646 22.7596 56.7117 22.7596C56.6512 22.7596 56.5453 22.6916 56.4697 22.6084C56.394 22.5252 56.3033 22.4571 56.2655 22.4571C56.2277 22.4571 56.0991 22.3815 55.9781 22.2908L55.7588 22.132L55.4563 22.3286C54.579 22.9109 53.5959 22.6689 53.0212 21.7387C52.938 21.6101 52.8775 21.4891 52.8775 21.4665C52.8775 21.4438 54.0572 21.4286 55.4941 21.4286C57.7477 21.4362 58.1183 21.4211 58.1712 21.3228C58.262 21.1413 58.2393 20.317 58.1183 19.8103C57.8309 18.5549 56.81 17.481 55.4941 17.0575C55.237 16.9743 54.2765 16.8533 54.2236 16.8987ZM55.3807 19.0918C55.6529 19.2658 55.8344 19.4548 55.9857 19.7271L56.1974 20.1128H54.4959H52.7943L53.006 19.7498C53.4069 19.0616 53.7699 18.8423 54.5034 18.8423C54.9194 18.8423 55.0479 18.8801 55.3807 19.0918Z" fill="white"/>
<path d="M62.183 17.1185C61.9108 17.2092 61.6083 17.3302 61.5024 17.3907C61.1319 17.5873 60.5495 18.0562 60.368 18.2982C60.2622 18.4268 60.1412 18.578 60.0958 18.6234C59.9899 18.7444 59.6194 19.5082 59.5589 19.7351C59.4908 19.9998 59.4908 21.4669 59.5589 21.7392C59.7252 22.3668 60.3756 23.3046 60.8747 23.6449C61.0487 23.7583 61.1999 23.8793 61.1999 23.902C61.1999 23.9701 61.8352 24.2348 62.357 24.386C62.6897 24.4843 62.9922 24.507 63.567 24.4768C64.4972 24.439 64.5879 24.4163 65.208 24.1138C65.6996 23.8793 65.8584 23.7432 65.745 23.6676C65.6845 23.6298 65.5332 23.3424 65.2232 22.6996C65.1551 22.571 65.0719 22.4576 65.0417 22.4576C65.0114 22.4576 64.9812 22.4122 64.9812 22.3517C64.9812 22.2988 64.9282 22.208 64.8677 22.1551C64.777 22.0795 64.7467 22.087 64.7089 22.1778C64.6862 22.2458 64.5123 22.3744 64.3232 22.4652C63.5594 22.8357 62.478 22.5786 61.9032 21.8828C61.5932 21.4972 61.4949 21.1871 61.51 20.6426C61.5478 19.8032 62.1604 19.1301 63.0981 18.9032C63.5594 18.7898 64.172 18.9108 64.535 19.1679C64.6711 19.2738 64.8072 19.357 64.8375 19.357C64.8904 19.357 65.1551 18.9108 65.5937 18.1016L65.8055 17.7083L65.5257 17.5193C64.7165 16.9597 63.1964 16.7782 62.183 17.1185Z" fill="white"/>
<path d="M107.634 17.0273C107.49 17.0651 107.339 17.1029 107.293 17.1105C106.794 17.2466 105.592 18.0104 105.44 18.2902C105.403 18.3734 105.319 18.4868 105.274 18.5398C105.138 18.691 105.009 18.8952 104.828 19.2733C104.48 19.9993 104.45 21.4211 104.767 22.0185C104.82 22.1168 104.858 22.2076 104.858 22.2303C104.828 22.442 105.652 23.4403 106.159 23.8184C106.756 24.2646 107.573 24.499 108.503 24.499C109.456 24.499 110.28 24.2646 110.832 23.8335C111.415 23.3722 112.171 22.4571 112.171 22.2076C112.171 22.1471 112.194 22.079 112.224 22.0488C112.413 21.8673 112.519 20.3775 112.39 19.8859C112.284 19.5153 111.99 18.8271 111.937 18.8271C111.899 18.8271 111.869 18.7893 111.869 18.7515C111.869 18.6608 111.846 18.6381 111.468 18.2221C111.211 17.9348 110.59 17.481 110.28 17.3373C110.129 17.2693 109.789 17.1407 109.789 17.1558C109.789 17.1558 109.638 17.1105 109.441 17.0575C109.063 16.9441 108.042 16.9214 107.634 17.0273ZM109.244 18.9633C109.501 19.0691 110.008 19.5834 110.182 19.9086C110.348 20.2262 110.348 21.1791 110.182 21.5572C109.653 22.7672 108.087 23.0168 107.195 22.0488C106.847 21.6706 106.696 21.2471 106.696 20.6724C106.703 20.0069 107.202 19.2582 107.823 18.9708C108.155 18.8196 108.874 18.8196 109.244 18.9633Z" fill="white"/>
<path d="M116.816 17.1103C116.574 17.1935 116.211 17.375 116.022 17.5112C115.825 17.6548 115.651 17.7683 115.636 17.7683C115.613 17.7683 115.538 17.6322 115.462 17.4658L115.326 17.1633H114.464H113.609V20.7555V24.3477H114.668H115.727L115.742 22.51C115.742 21.5042 115.75 20.6269 115.742 20.5664C115.727 20.2639 115.999 19.6967 116.332 19.3564C116.755 18.9178 117.202 18.7892 117.799 18.9178C118.412 19.0463 119.032 19.7875 119.092 20.453C119.107 20.574 119.115 21.5042 119.122 22.51L119.13 24.3477H120.159H121.179L121.149 22.1318C121.134 20.9218 121.096 19.8253 121.066 19.7043C120.945 19.2052 120.529 18.4943 120.121 18.0859C119.546 17.5036 119.455 17.4431 118.865 17.2011C118.185 16.9288 117.436 16.8986 116.816 17.1103Z" fill="white"/>
<path d="M85.4947 17.2768C85.472 17.3449 85.472 18.3205 85.4871 19.4548C85.5249 21.5043 85.5249 21.5118 85.7367 22.0412C85.8577 22.3286 85.9787 22.5782 86.0165 22.5933C86.0467 22.6084 86.077 22.6613 86.077 22.7143C86.077 22.9487 87.045 23.8108 87.7332 24.189C88.2777 24.4915 89.4877 24.5898 90.1985 24.3932C90.8867 24.2041 91.2044 24.0075 91.953 23.3344C92.2631 23.0546 92.8152 22.1017 92.9362 21.6253C92.9664 21.5194 92.9967 20.4758 93.0118 19.296L93.042 17.1634H91.9455H90.8414V19.0918C90.8414 20.8237 90.8262 21.0505 90.6901 21.3908C90.5086 21.8597 90.2817 22.1244 89.9187 22.3135C89.2381 22.6613 88.3382 22.374 87.9298 21.6707C87.6878 21.2472 87.6802 21.1791 87.6727 19.0313L87.6651 17.1634H86.6064C85.7215 17.1634 85.5325 17.1861 85.4947 17.2768Z" fill="white"/>
<path d="M101.244 17.2543C101.222 17.3072 101.214 18.918 101.222 20.8313L101.244 24.3101L102.364 24.3328L103.475 24.3555V20.7557V17.1635H102.379C101.569 17.1635 101.267 17.1862 101.244 17.2543Z" fill="white"/>
<path d="M16.6563 0.836338C15.7186 0.896839 13.9112 1.16909 13.7523 1.2674C13.707 1.29009 13.6087 1.30521 13.5406 1.29765C13.465 1.28253 13.4045 1.29765 13.4045 1.33546C13.4045 1.36572 13.3288 1.40353 13.2305 1.40353C12.9961 1.41865 11.7483 1.81946 11.1357 2.07659C8.85941 3.02946 7.03684 4.23946 5.35041 5.93346C3.73959 7.54428 2.65816 9.11728 1.69772 11.2423C-0.253406 15.5681 -0.253406 20.9526 1.69772 25.2783C2.65816 27.4034 3.73959 28.9764 5.35041 30.5872C7.03684 32.2812 8.85941 33.4912 11.1357 34.4441C13.344 35.3667 16.1497 35.828 18.6982 35.6768C20.2939 35.586 21.398 35.3894 22.8954 34.9281C24.3852 34.4668 26.2229 33.5895 27.5085 32.7198C30.4579 30.7233 32.7872 27.774 34.0425 24.4465C34.8668 22.2685 35.1996 20.3022 35.1391 17.9578C35.124 17.247 35.1088 16.5815 35.1088 16.468C35.1088 16.3546 35.0786 16.2487 35.0408 16.2185C34.9954 16.1958 34.9803 16.1277 35.0105 16.0672C35.0559 15.9387 34.9425 15.2807 34.6853 14.1539C33.7627 10.1685 31.2898 6.51578 27.8488 4.03527C26.3363 2.95384 24.0071 1.86484 22.1013 1.36572C21.3224 1.15396 19.946 0.9044 19.6435 0.911964C19.462 0.919525 18.1537 0.836338 17.8285 0.798527C17.7075 0.783401 17.1782 0.806087 16.6563 0.836338ZM25.7616 7.42328C25.9658 9.12484 25.9582 9.52565 25.7616 11.4314L25.7162 11.87H23.1147H20.5132V20.5593V29.2487L20.12 29.3016C19.9007 29.3243 19.5301 29.3848 19.2957 29.4302C18.547 29.5663 15.3027 29.415 15.0002 29.2335C14.9397 29.1957 14.917 26.7379 14.917 20.5215V11.87H12.3079C10.1904 11.87 9.69884 11.8473 9.69884 11.7717C9.69884 11.7112 9.64591 11.3331 9.58541 10.9172C9.46441 10.0928 9.42659 9.02653 9.49466 8.61815C9.52491 8.47446 9.56272 8.20221 9.58541 8.01315C9.63834 7.56696 9.71397 7.15859 9.75178 7.08296C9.76691 7.05272 13.3667 7.03003 17.7453 7.03003H25.7087L25.7616 7.42328Z" fill="#15406B"/>
</g>
<defs>
<clipPath id="clip0_3610_20987">
<rect width="121" height="35.0144" fill="white" transform="translate(0.171875 0.751953)"/>
</clipPath>
</defs>
</svg>
