<svg width="256" height="31" viewBox="0 0 256 31" fill="none" xmlns="http://www.w3.org/2000/svg">
<g id="Frame 1984078080">
<g id="Group">
<path id="Vector" d="M46.2839 7.54115C46.4135 7.55983 48.4507 8.70317 48.5748 8.80629C49.1792 9.3083 49.7509 11.3436 49.6485 12.16C49.6057 12.5025 49.2784 13.6447 49.127 13.94C49.0013 14.1852 47.6914 15.1094 47.8751 15.3725C47.9214 15.439 48.8897 15.8586 49.2597 16.2209C50.9619 17.888 50.9386 21.1647 48.9901 22.5843C48.4736 22.9606 46.4855 23.6471 45.8601 23.6471H36.7476L36.4297 23.3292V7.54115C39.467 7.85636 43.3524 7.11736 46.2839 7.54115ZM44.3766 10.7202C43.3644 10.5396 41.3906 10.7202 40.2442 10.7202C40.0733 10.7202 40.2854 14.1109 40.4563 14.1109H44.4829C44.5008 14.1109 44.4482 13.8023 44.5447 13.7595C45.5063 13.3318 46.5419 13.0372 45.7647 11.6619C45.5877 11.3486 44.7218 10.7816 44.377 10.7202H44.3766ZM46.5407 17.7728C46.0212 16.9949 41.386 16.847 40.5917 17.1074C40.1095 17.2654 39.8862 20.3039 40.7738 20.4685C41.6716 20.6347 45.9998 20.5401 46.4858 19.824C46.7629 19.4162 46.8112 18.1779 46.5407 17.7728Z" fill="#F0B90B"/>
<path id="Vector_2" d="M65.9895 7.54102C66.5919 7.65621 66.8834 8.70186 67.2356 9.1455C69.174 11.5851 71.0964 14.1033 73.0258 16.5982C73.1636 16.7764 73.0216 16.9819 73.5123 16.8656V7.54141H77.3268V23.329C77.3268 24.1638 74.4237 23.9797 73.873 23.6579C73.5084 23.4446 73.2449 22.5612 73.0021 22.2491C71.1805 19.9076 69.0518 16.806 67.1379 14.7061C66.9072 14.4528 66.6838 14.0228 66.3067 14.1107V23.329L65.9887 23.647H62.8101L62.4922 23.329V7.54102H65.9895Z" fill="#F0B90B"/>
<path id="Vector_3" d="M102.856 7.54081C103.551 7.73539 108.931 15.9473 110.167 16.865V7.54081H113.982V23.5405C113.982 24.0157 111.294 23.9332 110.807 23.7386L103.607 14.267L102.962 13.8984V23.6468H99.6773L99.3594 23.3288V7.54081C100.301 7.70815 102.04 7.31238 102.856 7.54081H102.856Z" fill="#F0B90B"/>
<path id="Vector_4" d="M183.627 7.83934C186.794 9.15896 189.053 13.14 188.593 16.5576C188.465 17.5102 187.067 20.1775 187.088 20.5445C187.094 20.6394 188.502 21.6905 188.535 21.7796C188.76 22.3813 187.961 22.9168 187.6 23.3118C187.503 23.4176 187.55 23.7114 187.472 23.792C186.724 24.5605 185.601 22.5062 184.87 22.3735C184.777 22.3568 184.804 22.6942 184.602 22.7786C180.725 24.4018 176.364 24.4866 173.547 20.9356C168.042 13.9942 175.342 4.38675 183.627 7.83934H183.627ZM182.568 10.3809C175.614 7.05402 171.288 18.2018 178.334 20.764C178.4 20.7881 178.421 21.0617 178.563 21.0951C178.982 21.1932 180.792 21.1749 181.28 21.1138C181.794 21.0492 182.976 20.6713 182.604 20.0822C182.367 19.7058 180.306 18.5843 180.107 18.0301C180.075 17.9414 181.412 16.9432 181.535 16.7965C181.735 16.5587 181.306 15.7886 182.496 16.4439C183.331 16.9039 184.824 19.6124 185.299 17.5063C185.874 14.9519 185.117 11.6009 182.567 10.3813L182.568 10.3809Z" fill="white"/>
<path id="Vector_5" d="M147.471 7.54102V10.7196H138.782V13.6866H146.411V17.289H138.782V20.2559H147.365C147.846 20.2559 147.846 23.6466 147.365 23.6466H135.498L135.18 23.3286V7.54102H147.471Z" fill="#F0B90B"/>
<path id="Vector_6" d="M79.6562 23.6473L86.4205 7.63046C86.7673 7.19733 89.7579 7.18994 90.0615 7.46585C92.1976 11.8777 94.548 17.2978 96.3685 21.9195C96.572 22.453 96.8238 23.0643 96.8215 23.6473H93.3249C92.7007 23.6473 91.9707 20.7135 91.7107 20.071L84.9511 20.1476L83.4707 23.6473H79.6562ZM86.226 16.8659H90.2526C89.8463 15.9405 89.6003 14.6131 88.9991 13.9449L88.2395 11.9894L86.2264 16.8659H86.226Z" fill="#F0B90B"/>
<path id="Vector_7" d="M235.741 7.54085C236.878 7.67005 238.884 8.91457 239.414 10.0073C239.662 10.5194 239.557 10.8245 239.676 11.1962C239.734 11.3771 240.042 11.3546 240.078 11.5048C240.526 13.3727 239.546 15.4644 238.065 16.6467C237.835 17.1884 236.409 17.1382 236.479 17.6091C236.472 18.5411 240.656 22.8782 240.296 23.6456C240.18 23.7589 237.443 23.6807 237.054 23.4472C235.842 21.5617 234.294 19.9288 233.304 17.9251H229.913C229.885 17.9251 229.701 18.4263 229.701 18.4547V23.3289C229.701 23.9192 226.734 23.5873 226.734 23.4347V7.54085C229.594 7.77707 232.943 7.22252 235.741 7.54085ZM235.529 10.2961C234.119 9.93921 231.283 10.5607 229.702 10.2961V15.3819H235.105C235.827 15.3819 237.077 13.9203 237.105 13.1287C237.137 12.1807 236.573 10.5599 235.529 10.2957V10.2961Z" fill="white"/>
<path id="Vector_8" d="M131.486 8.90098C131.608 9.00411 132.185 9.53258 132.199 9.57967C132.355 10.1113 130.062 12.5618 129.683 12.3999C129.663 12.3913 129.686 12.1376 129.509 11.999C127.434 10.3728 124.138 9.99607 122.391 12.2602C119.306 16.2572 122.734 22.1291 128.09 20.0538C128.675 19.8269 129.758 18.7252 130.168 18.8054C130.3 18.8314 132.028 20.5184 132.105 20.6823C132.571 21.6769 130.369 22.9078 129.599 23.2589C125.355 25.1945 119.388 23.2713 117.793 18.6742C114.793 10.021 125.092 3.51196 131.486 8.90098Z" fill="#F0B90B"/>
<path id="Vector_9" d="M255.336 7.54102C255.429 7.63402 255.432 10.0841 255.018 10.0841H246.542L246.224 10.4021V14.1107H254.276V16.8656H246.224V20.7859L246.542 21.1038H255.548C255.507 21.556 255.733 23.647 255.23 23.647H243.469V7.54102H255.336Z" fill="white"/>
<path id="Vector_10" d="M194.514 7.54102V17.3952C194.514 18.3257 195.541 20.1909 196.385 20.6583C198.713 21.9475 202.567 20.8163 202.567 17.819V7.54102H205.534V17.819C205.534 19.4316 203.994 21.8981 202.632 22.7581C198 25.6819 191.547 23.0426 191.547 17.1835V7.54141H194.514V7.54102Z" fill="white"/>
<path id="Vector_11" d="M217.482 8.52532C219.777 12.9652 222.021 18.1806 223.874 22.7898C223.938 22.9875 224.051 23.5642 223.971 23.6455C223.892 23.7269 222.026 23.6954 221.736 23.6564C220.266 23.4591 220.064 19.7069 219.211 19.6053C218.404 19.5092 212.55 19.4633 212.025 19.6081C211.772 19.6777 210.753 23.1147 210.277 23.4498C209.911 23.707 208.013 23.7662 207.641 23.5471C207.092 23.2245 208.03 22.2773 208.058 22.2072C210.012 17.2825 212.235 12.4799 214.275 7.59485C214.564 7.25706 216.386 7.23682 216.83 7.37186C217.462 7.56449 217.262 8.12215 217.482 8.52571L217.482 8.52532ZM213.163 17.2891C213.338 17.4665 217.45 17.2891 218.143 17.2891C218.166 17.2891 218.567 16.9809 218.355 16.8727L215.913 11.1432C215.074 11.3012 215.371 11.7837 215.116 12.3503C214.829 12.9913 212.915 17.0373 213.163 17.2891Z" fill="white"/>
<path id="Vector_12" d="M10.4512 18.8963C11.1291 19.5054 14.8016 23.3366 15.1222 23.381C15.6912 23.46 20.2688 17.9523 20.6556 17.9145C21.0759 17.8736 24.3351 20.96 24.3296 21.2099C24.316 21.8539 16.1068 29.3105 15.1242 30.2235L5.90625 21.2091C6.55458 21.0071 8.98252 17.9312 9.21562 17.9157C9.9558 17.8662 10.0515 18.5375 10.4508 18.8967L10.4512 18.8963Z" fill="#F0B90B"/>
<path id="Vector_13" d="M15.7282 1.53295C18.5364 4.21968 21.2908 6.88889 24.0324 9.65034C24.1359 9.80833 24.1604 9.9819 24.1406 10.1667C24.1196 10.3613 21.5469 12.8504 21.3718 12.9391C21.069 13.0924 20.981 13.0496 20.6791 13.0142C19.9167 12.9251 15.3029 7.26715 15.0223 7.54306C15.0063 7.55863 15.0367 7.77266 14.8476 7.9544C13.1937 9.5476 11.5689 11.1731 9.9878 12.834C9.62822 13.0916 9.32157 13.0496 8.92852 12.9072C8.74873 12.8418 6.23206 10.4357 6.16941 10.2547C6.08457 10.0095 6.08068 9.87527 6.21611 9.64995L15.0231 0.762035C15.2356 0.65852 15.571 1.38274 15.7282 1.53295Z" fill="#F0B90B"/>
<path id="Vector_14" d="M168.366 9.78645C168.22 10.0238 167.364 11.3598 167.269 11.3734C166.877 11.4299 164.91 10.0211 164.099 9.88646C162.167 9.5658 159.361 10.183 160.458 12.6853C160.952 13.8103 164.659 14.3178 165.951 14.8163C168.893 15.9514 170.165 18.7323 168.454 21.5856C165.975 25.2818 159.721 23.8474 156.831 21.4992C156.569 21.0385 157.899 19.5788 158.267 19.4974C159.176 19.2962 159.353 20.0243 159.988 20.3462C161.534 21.1292 164.631 21.8997 165.881 20.3294C167.419 18.3953 164.934 17.4279 163.416 16.9282C162.449 16.6099 161.357 16.6126 160.222 16.0954C157.6 14.8996 156.346 12.4428 157.898 9.8024C160.081 6.23074 165.578 6.86895 168.478 9.12527C168.75 9.46695 168.532 9.5191 168.367 9.78645H168.366Z" fill="white"/>
<path id="Vector_15" d="M58.0411 7.54102V23.329L57.7231 23.647H54.5441L54.2266 23.329V7.54102H58.0411Z" fill="#F0B90B"/>
<path id="Vector_16" d="M30.053 15.7886L26.5806 18.9792C26.0805 18.1406 23.1486 16.0867 23.2692 15.292L26.5662 12.2375C26.8833 12.2064 30.1425 15.4776 30.0534 15.7886H30.053Z" fill="#F0B90B"/>
<path id="Vector_17" d="M4.14377 12.4961C4.4049 12.6763 6.98927 15.2661 6.97604 15.4712C6.94374 15.9748 3.93324 18.9678 3.68496 18.9261C3.36118 18.8716 0.351068 15.916 0.439406 15.5214L3.57133 12.2961C3.78419 12.1809 3.97994 12.3829 4.14377 12.4961Z" fill="#F0B90B"/>
<path id="Vector_18" d="M15.5882 12.4951C15.8696 13.038 18.4263 15.1452 18.4224 15.4729C18.4166 15.9613 15.3863 18.9668 15.1279 18.9306C14.8823 18.8963 11.7461 15.8442 11.8298 15.292C11.8539 15.132 12.317 15.0573 12.4948 14.8705C12.9817 14.3595 13.2194 14.2732 13.5471 13.9653C14.0153 13.526 15.0029 11.8312 15.5878 12.4951H15.5882Z" fill="#F0B90B"/>
</g>
</g>
</svg>
