<svg width="191" height="36" viewBox="0 0 191 36" fill="none" xmlns="http://www.w3.org/2000/svg">
<path d="M28.3423 21.0441C27.7731 21.4169 27.109 21.4847 26.603 21.1797C25.9705 20.773 25.5911 19.8579 25.5911 18.604V14.7744C25.5911 12.9443 24.9269 11.6226 23.7885 11.2837C21.8594 10.6737 20.4047 13.2154 19.8671 14.1644L16.4517 20.0274V12.8088C16.4201 11.1481 15.9141 10.1653 14.9654 9.86031C14.3329 9.65696 13.3842 9.75864 12.4671 11.2498L4.8457 24.3315C3.83373 22.2641 3.29613 19.9596 3.29613 17.6212C3.29613 9.72474 9.20982 3.31947 16.4517 3.31947C23.6936 3.31947 29.6073 9.72474 29.6073 17.6212V17.6551V17.689C29.6705 19.214 29.2278 20.4341 28.3423 21.0441ZM32.5167 17.6212V17.5873V17.5534C32.4851 7.96244 25.2748 0.133789 16.4517 0.133789C7.59699 0.133789 0.386719 7.96245 0.386719 17.6212C0.386719 27.246 7.59699 35.1086 16.4517 35.1086C20.5312 35.1086 24.3893 33.4479 27.362 30.4317C27.9629 29.8217 27.9945 28.8389 27.4252 28.195C26.8876 27.551 25.9705 27.5171 25.3697 28.0933C25.3697 28.0933 25.3697 28.0933 25.3381 28.1272C22.9346 30.5673 19.709 31.9568 16.3885 31.9568C12.4987 31.9568 9.02007 30.1267 6.61665 27.2121L13.4791 15.4183V20.8747C13.4791 23.4842 14.4278 24.3315 15.2184 24.5687C16.009 24.8059 17.2107 24.6365 18.5073 22.4336L22.2705 15.8928C22.397 15.6894 22.4919 15.4861 22.6184 15.3505V18.6718C22.6184 21.1119 23.5355 23.0775 25.1167 24.0264C26.5398 24.9076 28.3423 24.8059 29.8287 23.8231C31.6629 22.5353 32.6432 20.2985 32.5167 17.6212ZM54.9065 11.6565C55.286 11.8937 55.6339 12.4699 55.6339 12.9782C55.6339 13.7916 55.0014 14.4694 54.274 14.4694C54.0843 14.4694 53.9262 14.4016 53.768 14.3677C52.9142 13.6899 51.839 13.2493 50.7005 13.2493C48.0125 13.2493 46.1783 15.5878 46.1783 18.5023C46.1783 21.4169 48.0441 23.7214 50.7005 23.7214C52.0287 23.7214 53.2304 23.1453 54.1159 22.2303C54.3373 22.0608 54.6219 21.9591 54.9065 21.9591C55.6339 21.9591 56.2031 22.5692 56.2031 23.3486C56.2031 23.857 55.9185 24.2976 55.5706 24.5348C54.274 25.721 52.5347 26.5004 50.7321 26.5004C46.621 26.5004 43.2689 22.8742 43.2689 18.4007C43.2689 13.9271 46.621 10.3009 50.7321 10.3009C52.2501 10.267 53.7048 10.7753 54.9065 11.6565ZM62.433 15.0455C65.2476 15.0455 67.5877 17.5873 67.5877 20.7391C67.5877 23.857 65.2159 26.5343 62.433 26.5343C59.492 26.5343 57.0569 23.8909 57.0569 20.7391C57.0569 17.5873 59.492 15.0455 62.433 15.0455ZM62.4014 23.7214C63.6347 23.7214 64.6783 22.4675 64.6783 20.773C64.6783 19.0785 63.6347 17.994 62.4014 17.994C61.0732 17.994 59.9664 19.0446 59.9664 20.773C59.9664 22.4336 61.0732 23.7214 62.4014 23.7214ZM69.3587 24.772V16.7739C69.3587 15.8928 69.9912 15.1811 70.8134 15.1811C71.604 15.1811 72.2681 15.8928 72.2681 16.7739V24.772C72.2681 25.6532 71.604 26.3649 70.8134 26.3649C70.0228 26.3649 69.3587 25.6193 69.3587 24.772ZM69.1373 12.1648C69.1373 11.1142 69.8963 10.3009 70.8134 10.3009C71.7621 10.3009 72.5211 11.1481 72.5211 12.1648C72.5211 13.1816 71.7621 13.9949 70.8134 13.9949C69.8647 13.961 69.1373 13.1477 69.1373 12.1648ZM77.8339 20.4341V24.772C77.8339 25.6532 77.1698 26.3649 76.3792 26.3649C75.5886 26.3649 74.9245 25.6532 74.9245 24.772V16.4011C74.9245 15.7233 75.4305 15.1811 76.063 15.1811C76.6954 15.1811 77.1698 15.7572 77.1698 16.4011C78.3399 15.215 79.3835 15.0455 80.3638 15.0455C83.2732 15.0455 84.5698 17.384 84.5698 20.0613V24.772C84.5698 25.6532 83.9057 26.3649 83.1151 26.3649C82.3245 26.3649 81.6604 25.6532 81.6604 24.772V20.4341C81.6604 19.0785 81.5023 17.9262 79.6681 17.9262C78.3715 17.9262 77.8339 19.0785 77.8339 20.4341ZM93.9938 22.0947C93.6459 22.0947 93.4245 21.9252 93.2348 21.688L89.851 17.7567V24.772C89.851 25.6532 89.1869 26.3649 88.3963 26.3649C87.6057 26.3649 86.9416 25.6532 86.9416 24.772V10.877C87.0365 10.6398 87.2579 10.4703 87.4792 10.4703C87.7322 10.4703 87.9536 10.7076 88.1117 10.877L93.5194 17.3839C93.6775 17.5873 93.8673 17.689 93.9938 17.689C94.0887 17.689 94.31 17.5873 94.4681 17.3839L99.8758 10.877C100.034 10.7076 100.224 10.4703 100.508 10.4703C100.761 10.4703 100.983 10.6398 101.046 10.877V24.772C101.046 25.6532 100.413 26.3649 99.5912 26.3649C98.8006 26.3649 98.1365 25.6532 98.1365 24.772V17.7567L94.7528 21.688C94.4998 21.9252 94.2784 22.0947 93.9938 22.0947ZM107.972 23.7214C109.268 23.7214 110.375 22.4675 110.375 20.773C110.375 19.0785 109.237 17.9601 107.972 17.9601C106.707 17.9601 105.663 19.1123 105.663 20.773C105.663 22.3997 106.675 23.7214 107.972 23.7214ZM111.071 25.1448L111.007 24.772C110.438 25.9582 108.636 26.5004 107.497 26.5004C104.778 26.5004 102.754 23.857 102.754 20.7052C102.754 17.5873 104.809 15.0116 107.655 15.0116C108.13 15.0116 109.774 15.1472 111.039 16.74L111.102 16.3672C111.102 15.6894 111.577 15.1472 112.209 15.1472C112.842 15.1472 113.348 15.7233 113.348 16.3672V25.1109C113.348 25.7887 112.842 26.331 112.209 26.331C111.545 26.3649 111.071 25.7887 111.071 25.1448ZM121.349 17.9262H121.032C119.198 18.0279 118.85 19.1462 118.85 20.4341V24.772C118.85 25.6532 118.186 26.3649 117.396 26.3649C116.605 26.3649 115.941 25.6532 115.941 24.772V16.4011C115.941 15.7233 116.447 15.1811 117.079 15.1811C117.712 15.1811 118.186 15.7572 118.186 16.4011C119.261 15.3166 120.147 15.0794 121.032 15.0455H121.317C122.013 15.0455 122.645 15.6894 122.645 16.5028C122.677 17.2484 122.044 17.9262 121.349 17.9262ZM132.575 24.0264C132.702 24.2637 132.796 24.5009 132.796 24.772C132.796 25.5854 132.101 26.331 131.342 26.331C130.836 26.331 130.393 25.9243 130.045 25.4498L126.693 21.2813V24.7381C126.693 25.6193 126.029 26.331 125.238 26.331C124.448 26.331 123.784 25.6193 123.784 24.7381V12.0293C123.784 11.1481 124.416 10.4364 125.238 10.4364C126.061 10.4364 126.693 11.1481 126.693 12.0293V19.9596L130.045 15.9945C130.393 15.5878 130.804 15.1472 131.31 15.1472C132.037 15.1472 132.702 15.8589 132.702 16.6723C132.702 16.9095 132.638 17.1806 132.512 17.3839L129.855 20.5019L132.575 24.0264ZM138.267 17.9601C137.477 17.9601 136.18 18.4007 136.18 19.7224H140.386C140.355 18.4007 139.026 17.9601 138.267 17.9601ZM142.062 21.7219H136.18C136.18 23.5859 137.856 23.8909 138.584 23.8909C139.121 23.8909 139.88 23.7892 140.481 23.4842C140.671 23.3486 140.955 23.247 141.24 23.247C141.873 23.247 142.41 23.8231 142.41 24.5348C142.41 25.0093 142.126 25.416 141.778 25.6532C140.892 26.3649 139.722 26.5343 138.615 26.5343C135.674 26.5343 133.239 24.8398 133.239 20.8747C133.239 17.7567 134.725 15.0455 138.204 15.0455C141.019 15.0455 143.137 17.0112 143.201 20.5019C143.201 21.1458 142.695 21.7219 142.062 21.7219ZM150.158 26.5004H149.367C147.154 26.5004 145.857 25.4498 145.857 21.7558V17.9262H145.098C144.402 17.9262 143.802 17.2484 143.802 16.5028C143.802 15.6894 144.434 15.0455 145.098 15.0455H145.857V12.0971C145.857 11.2159 146.49 10.5042 147.312 10.5042C148.102 10.5042 148.767 11.2159 148.767 12.0971V15.0455H149.968C150.664 15.0455 151.265 15.6894 151.265 16.5028C151.265 17.2484 150.632 17.9262 149.968 17.9262H148.767V21.1458C148.767 23.2809 148.861 23.7214 149.747 23.7214H150.158C150.854 23.7214 151.455 24.3315 151.455 25.1109C151.455 25.8565 150.854 26.5004 150.158 26.5004ZM164.231 11.6565C164.61 11.8937 164.958 12.4699 164.958 12.9782C164.958 13.7916 164.326 14.4694 163.598 14.4694C163.408 14.4694 163.25 14.4016 163.092 14.3677C162.238 13.6899 161.163 13.2493 160.025 13.2493C157.337 13.2493 155.502 15.5878 155.502 18.5023C155.502 21.4169 157.368 23.7214 160.025 23.7214C161.353 23.7214 162.555 23.1453 163.44 22.2303C163.661 22.0608 163.946 21.9591 164.231 21.9591C164.958 21.9591 165.527 22.5692 165.527 23.3486C165.527 23.857 165.243 24.2976 164.895 24.5348C163.598 25.721 161.859 26.5004 160.056 26.5004C155.945 26.5004 152.593 22.8742 152.593 18.4007C152.593 13.9271 155.945 10.3009 160.056 10.3009C161.574 10.267 163.061 10.7753 164.231 11.6565ZM171.599 23.7214C172.896 23.7214 174.003 22.4675 174.003 20.773C174.003 19.0785 172.864 17.9601 171.599 17.9601C170.302 17.9601 169.291 19.1123 169.291 20.773C169.291 22.3997 170.334 23.7214 171.599 23.7214ZM174.698 25.1448L174.635 24.772C174.066 25.9582 172.263 26.5004 171.125 26.5004C168.405 26.5004 166.381 23.857 166.381 20.7052C166.381 17.5873 168.437 15.0116 171.283 15.0116C171.757 15.0116 173.402 15.1472 174.667 16.74L174.73 16.3672C174.73 15.6894 175.204 15.1472 175.837 15.1472C176.469 15.1472 176.975 15.7233 176.975 16.3672V25.1109C176.975 25.7887 176.469 26.331 175.837 26.331C175.173 26.3649 174.698 25.7887 174.698 25.1448ZM184.913 23.7214C186.209 23.7214 187.221 22.3997 187.221 20.773C187.221 19.0785 186.178 17.9601 184.913 17.9601C183.616 17.9601 182.509 19.0785 182.509 20.773C182.509 22.4675 183.616 23.7214 184.913 23.7214ZM182.509 25.5854V29.5506C182.509 30.4317 181.845 31.1434 181.055 31.1434C180.264 31.1434 179.6 30.4317 179.6 29.5506V16.4011C179.6 15.7233 180.106 15.1811 180.738 15.1811C181.371 15.1811 181.845 15.7572 181.845 16.5367C182.92 15.3505 184.249 15.0455 185.261 15.0455C188.075 15.0455 190.162 17.5873 190.162 20.7391C190.162 23.857 188.17 26.5343 185.419 26.5343C184.565 26.5004 183.3 26.2293 182.509 25.5854Z" fill="#3861FA"/>
</svg>
