<svg width="75" height="76" viewBox="0 0 75 76" fill="none" xmlns="http://www.w3.org/2000/svg">
<rect y="0.479492" width="75" height="75" rx="37.5" fill="url(#paint0_linear_3536_47991)"/>
<rect x="0.334821" y="0.814314" width="74.3304" height="74.3304" rx="37.1652" stroke="white" stroke-opacity="0.15" stroke-width="0.669643"/>
<path d="M32.8281 42.1807C32.8281 43.7974 34.0781 45.0974 35.6115 45.0974H38.7448C40.0781 45.0974 41.1615 43.9641 41.1615 42.5474C41.1615 41.0307 40.4948 40.4807 39.5115 40.1307L34.4948 38.3807C33.5115 38.0307 32.8448 37.4974 32.8448 35.9641C32.8448 34.5641 33.9281 33.4141 35.2614 33.4141H38.3948C39.9281 33.4141 41.1781 34.7141 41.1781 36.3307" stroke="#E6AF03" stroke-width="2.5" stroke-linecap="round" stroke-linejoin="round"/>
<path d="M36.9922 31.7637V46.7637" stroke="#E6AF03" stroke-width="2.5" stroke-linecap="round" stroke-linejoin="round"/>
<path d="M53.6693 39.2638C53.6693 48.4638 46.2026 55.9305 37.0026 55.9305C27.8026 55.9305 20.3359 48.4638 20.3359 39.2638C20.3359 30.0638 27.8026 22.5972 37.0026 22.5972" stroke="#E6AF03" stroke-width="2.5" stroke-linecap="round" stroke-linejoin="round"/>
<path d="M51.2684 31.1628C51.1797 31.1629 51.0924 31.1403 51.015 31.097L48.9969 29.9819L46.9788 31.097C46.8927 31.1448 46.7949 31.1674 46.6965 31.1621C46.5982 31.1567 46.5034 31.1238 46.423 31.0669C46.3426 31.01 46.2797 30.9317 46.2414 30.8409C46.2032 30.7501 46.1912 30.6504 46.2067 30.5531L46.5987 28.1556L44.946 26.4623C44.8786 26.3932 44.8316 26.3069 44.8101 26.2128C44.7886 26.1187 44.7934 26.0205 44.8241 25.929C44.8548 25.8375 44.9101 25.7562 44.9839 25.694C45.0578 25.6319 45.1474 25.5914 45.2428 25.5768L47.5052 25.231L48.5216 23.0652C48.6938 22.697 49.2993 22.697 49.4715 23.0652L50.4879 25.231L52.7503 25.5768C52.8458 25.5911 52.9356 25.6316 53.0096 25.6937C53.0836 25.7558 53.139 25.8371 53.1697 25.9287C53.2004 26.0203 53.2052 26.1186 53.1836 26.2128C53.1619 26.307 53.1147 26.3933 53.0471 26.4623L51.3944 28.1556L51.7864 30.5531C51.7986 30.6282 51.7944 30.7051 51.7741 30.7784C51.7537 30.8517 51.7176 30.9197 51.6683 30.9777C51.6191 31.0357 51.5578 31.0823 51.4887 31.1143C51.4197 31.1462 51.3445 31.1628 51.2684 31.1628ZM48.9969 28.8577C49.0844 28.8577 49.1719 28.8794 49.2503 28.9235L50.5761 29.6557L50.3164 28.0632C50.3032 27.9821 50.3092 27.899 50.3339 27.8206C50.3586 27.7422 50.4012 27.6707 50.4585 27.6117L51.582 26.4595L50.0525 26.2257C49.9674 26.2127 49.8868 26.1789 49.8178 26.1274C49.7489 26.0759 49.6936 26.0082 49.657 25.9303L48.9969 24.524L48.3368 25.931C48.3003 26.009 48.2451 26.0768 48.1761 26.1283C48.1071 26.1799 48.0264 26.2135 47.9413 26.2264L46.4118 26.4602L47.5353 27.6124C47.6515 27.7314 47.704 27.8994 47.6774 28.0639L47.4177 29.6564L48.7435 28.9242C48.8207 28.8803 48.908 28.8574 48.9969 28.8577Z" fill="#E6AE00"/>
<path d="M49 36.3133C49.0668 36.3134 49.1334 36.3047 49.1979 36.2874C49.2614 36.2706 51.005 35.7868 52.7417 34.4991C54.4905 33.2025 56.25 31.0752 56.25 27.7858V22.1851C56.25 21.8606 56.0483 21.5711 55.7438 21.4586C55.7437 21.4585 55.7437 21.4585 55.7436 21.4585L49.2688 19.0618L49.2685 19.0617C49.095 18.9977 48.9043 18.9977 48.7308 19.0617L48.7305 19.0618L42.2555 21.4586L42.2553 21.4586C42.107 21.5137 41.9791 21.6128 41.8888 21.7427C41.7985 21.8725 41.75 22.0269 41.75 22.1851V22.1851V27.7858C41.75 31.0749 43.5095 33.2021 45.2583 34.4988C47.002 35.7918 48.7527 36.2745 48.8028 36.2876L48.8663 36.0458M49 36.3133C48.9329 36.3134 48.8661 36.3047 48.8013 36.2872L48.8663 36.0458M49 36.3133C48.9998 36.3133 48.9995 36.3133 48.9993 36.3133L49 36.0633M49 36.3133C49.0002 36.3133 49.0005 36.3133 49.0007 36.3133L49 36.0633M48.8663 36.0458C48.9099 36.0576 48.9549 36.0634 49 36.0633M48.8663 36.0458C48.797 36.0276 42 34.1565 42 27.7858L49 36.0633M43.3 27.7858V22.7246L49 20.6149L54.7 22.7246V27.7858C54.7 30.2694 53.4941 31.9349 52.1643 33.0227C50.8951 34.0609 49.5209 34.5649 49.0033 34.7294C48.4978 34.5637 47.1237 34.0488 45.8506 33.0058C44.5142 31.9109 43.3 30.2447 43.3 27.7858Z" fill="#E6AE00" stroke="#E6AE00" stroke-width="0.5"/>
<defs>
<linearGradient id="paint0_linear_3536_47991" x1="37.5" y1="0.479492" x2="37.5" y2="75.4795" gradientUnits="userSpaceOnUse">
<stop stop-color="white" stop-opacity="0"/>
<stop offset="1" stop-color="#E5AE00" stop-opacity="0.2"/>
</linearGradient>
</defs>
</svg>
