<svg width="75" height="76" viewBox="0 0 75 76" fill="none" xmlns="http://www.w3.org/2000/svg">
<rect y="0.0727539" width="75" height="75" rx="37.5" fill="url(#paint0_linear_3536_47973)"/>
<rect x="0.334821" y="0.407575" width="74.3304" height="74.3304" rx="37.1652" stroke="white" stroke-opacity="0.15" stroke-width="0.669643"/>
<mask id="path-3-outside-1_3536_47973" maskUnits="userSpaceOnUse" x="17" y="24.2637" width="42" height="26" fill="black">
<rect fill="white" x="17" y="24.2637" width="42" height="26"/>
<path d="M37.711 27.353H38.22C43.5713 27.353 48.9227 27.3531 54.2741 27.3532C55.4058 27.3533 55.8602 27.8077 55.8602 28.9372C55.8604 34.2873 55.8605 39.6374 55.8603 44.9875V45.538C56.1367 45.538 56.3908 45.5337 56.6447 45.5388C56.8367 45.5262 57.029 45.5574 57.2071 45.6299C57.3853 45.7024 57.5448 45.8144 57.6735 45.9574C57.8022 46.1004 57.8967 46.2708 57.9501 46.4556C58.0035 46.6404 58.0142 46.835 57.9815 47.0245C57.9268 47.6277 57.6685 48.1943 57.249 48.6311C56.8295 49.0679 56.2739 49.349 55.6735 49.4281C55.4841 49.4533 55.2934 49.4665 55.1024 49.4677C43.5123 49.4718 31.9222 49.4742 20.3322 49.4748C19.8018 49.5143 19.2756 49.3567 18.8543 49.0322C18.4329 48.7077 18.1461 48.2391 18.0489 47.7163C18.0172 47.5281 18.0039 47.3373 18.0092 47.1466C18.0072 40.6364 18.0069 34.1262 18.0081 27.6161C17.9808 27.301 18.0228 26.9837 18.1313 26.6866C18.2397 26.3895 18.4119 26.1197 18.6358 25.8963C18.8596 25.6729 19.1298 25.5012 19.4271 25.3934C19.7245 25.2856 20.0418 25.2442 20.3568 25.2722C25.2441 25.2693 30.1313 25.269 35.0185 25.2711C36.6685 25.271 37.2837 25.7386 37.711 27.353ZM21.2234 48.1559C21.2234 47.7525 21.2226 47.3992 21.2236 47.046C21.2267 46.0176 21.6995 45.539 22.7208 45.5382C24.9181 45.5364 27.1154 45.5362 29.3127 45.5376H29.8142V44.9882C29.8142 42.0137 29.8077 39.0392 29.8169 36.0647C29.7933 35.2779 30.0628 34.5104 30.573 33.9111C31.0833 33.3117 31.798 32.9232 32.5784 32.821C33.0675 32.7759 33.559 32.7638 34.0497 32.7848C34.8092 32.7802 35.5688 32.7836 36.3604 32.7836V32.2931C36.3604 30.7785 36.3604 29.264 36.3603 27.7495C36.3602 26.8416 36.1012 26.5819 35.1922 26.5818C30.2927 26.5814 25.3931 26.5814 20.4935 26.5818C19.5778 26.5818 19.3186 26.8383 19.3186 27.7419C19.3184 34.1685 19.3184 40.5951 19.3186 47.0217C19.3186 47.1172 19.3153 47.2129 19.3203 47.3081C19.3133 47.5232 19.3914 47.7323 19.5378 47.89C19.6842 48.0476 19.8871 48.1411 20.102 48.15C20.4517 48.1802 20.8061 48.1559 21.2234 48.1559ZM54.5262 45.5171V28.6737H37.6713V32.7836C37.9257 32.7836 38.128 32.7835 38.3303 32.7836C38.8028 32.7396 39.2792 32.8003 39.7255 32.9615C40.1719 33.1227 40.5771 33.3804 40.9124 33.7161C41.2477 34.0519 41.5049 34.4575 41.6654 34.9041C41.826 35.3506 41.8862 35.8271 41.8415 36.2995C41.8421 39.2067 41.8421 42.114 41.8416 45.0212V45.5171L54.5262 45.5171ZM34.8285 48.1334C34.9355 48.142 35.0392 48.1575 35.1429 48.1576C36.2616 48.1593 37.3804 48.1669 38.499 48.1564C38.7733 48.1755 39.0484 48.135 39.3056 48.0377C39.5627 47.9403 39.7958 47.7885 39.9887 47.5926C40.1816 47.3967 40.3298 47.1614 40.4232 46.9028C40.5166 46.6442 40.5529 46.3684 40.5296 46.0945C40.5326 42.7801 40.5326 39.4657 40.5296 36.1512C40.5533 35.874 40.5159 35.5949 40.42 35.3337C40.3241 35.0724 40.1721 34.8354 39.9747 34.6394C39.7773 34.4433 39.5392 34.2929 39.2774 34.1988C39.0155 34.1048 38.7361 34.0693 38.459 34.0949C36.7127 34.092 34.9665 34.0919 33.2202 34.0947C32.9361 34.0651 32.649 34.0996 32.38 34.1957C32.1111 34.2918 31.8671 34.447 31.6661 34.6499C31.4651 34.8528 31.3122 35.0982 31.2187 35.3681C31.1251 35.6379 31.0932 35.9253 31.1255 36.2091C31.1241 39.1689 31.124 42.1287 31.1251 45.0884V45.5376C31.3671 45.5495 31.6097 45.5482 31.8516 45.5336C32.2506 45.4885 32.6547 45.526 33.0386 45.6438C33.4225 45.7616 33.778 45.9572 34.083 46.2184C34.9051 46.8592 35.0506 47.1163 34.8285 48.1334ZM41.295 48.1361C41.4304 48.1439 41.5609 48.1578 41.6914 48.1578C46.1407 48.1589 50.5901 48.1585 55.0395 48.1565C55.2439 48.1605 55.4482 48.1421 55.6487 48.1017C55.9313 48.038 56.183 47.8782 56.3609 47.6496C56.5388 47.421 56.6319 47.1378 56.6242 46.8482H56.2224C51.5547 46.8482 46.8869 46.8482 42.2192 46.8483C42.1382 46.8367 42.0558 46.839 41.9756 46.8551C41.8821 46.8821 41.8009 46.9407 41.746 47.0211C41.5875 47.3767 41.4516 47.7423 41.295 48.1361ZM33.6298 47.433C33.1861 47.2193 32.7855 46.8661 32.3766 46.8563C30.183 46.8037 27.9874 46.8357 25.7925 46.8412C25.5942 46.8417 25.3959 46.8613 25.1634 46.8739C25.1634 47.171 25.1848 47.43 25.1583 47.684C25.1201 48.0507 25.2379 48.1718 25.6256 48.1681C27.7114 48.1484 29.7982 48.1268 31.8829 48.1767C32.2095 48.1787 32.533 48.1138 32.8334 47.9858C33.1339 47.8579 33.4049 47.6698 33.6298 47.433ZM22.565 46.868V48.1215H23.8234V46.868H22.565Z"/>
<path d="M48.618 30.7897C48.4277 30.7999 48.237 30.7972 48.0471 30.7815C47.9659 30.7703 47.897 30.6694 47.8226 30.6093C47.8931 30.5625 47.9625 30.4776 48.0344 30.4752C48.4291 30.4625 48.8244 30.4645 49.2191 30.4762C49.2814 30.4781 49.3416 30.5553 49.4027 30.5977C49.3454 30.66 49.2934 30.7686 49.2297 30.7759C49.0261 30.7904 48.8219 30.7933 48.618 30.7845V30.7897Z"/>
<path d="M51.9227 30.4706C52.1134 30.4706 52.305 30.46 52.4943 30.4764C52.5584 30.482 52.6166 30.5557 52.6775 30.5983C52.6199 30.6605 52.5644 30.7739 52.5044 30.7763C52.0965 30.793 51.6874 30.7937 51.2794 30.7789C51.2166 30.7766 51.1576 30.668 51.0969 30.6086C51.1678 30.562 51.2356 30.482 51.3102 30.4752C51.5128 30.4565 51.7183 30.4688 51.9227 30.4688V30.4706Z"/>
<path d="M35.7957 36.7147C35.4817 36.7144 35.1674 36.7234 34.8538 36.7122C34.7648 36.7164 34.676 36.7026 34.5925 36.6718C34.5089 36.6409 34.4325 36.5936 34.3676 36.5326C34.3027 36.4716 34.2506 36.3982 34.2147 36.3168C34.1787 36.2353 34.1595 36.1474 34.1582 36.0584C34.1587 35.9692 34.1775 35.881 34.2133 35.7993C34.2491 35.7176 34.3011 35.6441 34.3664 35.5832C34.4316 35.5224 34.5087 35.4755 34.5927 35.4455C34.6767 35.4155 34.7659 35.4029 34.855 35.4086C35.51 35.3978 36.1656 35.3969 36.8206 35.4097C36.9063 35.4065 36.9918 35.4203 37.0722 35.4502C37.1526 35.4801 37.2263 35.5256 37.2891 35.5841C37.3519 35.6425 37.4025 35.7128 37.438 35.7909C37.4736 35.8689 37.4934 35.9533 37.4963 36.039C37.4965 36.1279 37.4792 36.2159 37.4453 36.298C37.4114 36.3801 37.3614 36.4547 37.2985 36.5175C37.2356 36.5802 37.1608 36.6299 37.0786 36.6636C36.9964 36.6973 36.9083 36.7144 36.8194 36.7139C36.7922 36.7157 36.7649 36.715 36.7376 36.715C36.4236 36.7151 36.1097 36.715 35.7957 36.7147Z"/>
</mask>
<path d="M37.711 27.353H38.22C43.5713 27.353 48.9227 27.3531 54.2741 27.3532C55.4058 27.3533 55.8602 27.8077 55.8602 28.9372C55.8604 34.2873 55.8605 39.6374 55.8603 44.9875V45.538C56.1367 45.538 56.3908 45.5337 56.6447 45.5388C56.8367 45.5262 57.029 45.5574 57.2071 45.6299C57.3853 45.7024 57.5448 45.8144 57.6735 45.9574C57.8022 46.1004 57.8967 46.2708 57.9501 46.4556C58.0035 46.6404 58.0142 46.835 57.9815 47.0245C57.9268 47.6277 57.6685 48.1943 57.249 48.6311C56.8295 49.0679 56.2739 49.349 55.6735 49.4281C55.4841 49.4533 55.2934 49.4665 55.1024 49.4677C43.5123 49.4718 31.9222 49.4742 20.3322 49.4748C19.8018 49.5143 19.2756 49.3567 18.8543 49.0322C18.4329 48.7077 18.1461 48.2391 18.0489 47.7163C18.0172 47.5281 18.0039 47.3373 18.0092 47.1466C18.0072 40.6364 18.0069 34.1262 18.0081 27.6161C17.9808 27.301 18.0228 26.9837 18.1313 26.6866C18.2397 26.3895 18.4119 26.1197 18.6358 25.8963C18.8596 25.6729 19.1298 25.5012 19.4271 25.3934C19.7245 25.2856 20.0418 25.2442 20.3568 25.2722C25.2441 25.2693 30.1313 25.269 35.0185 25.2711C36.6685 25.271 37.2837 25.7386 37.711 27.353ZM21.2234 48.1559C21.2234 47.7525 21.2226 47.3992 21.2236 47.046C21.2267 46.0176 21.6995 45.539 22.7208 45.5382C24.9181 45.5364 27.1154 45.5362 29.3127 45.5376H29.8142V44.9882C29.8142 42.0137 29.8077 39.0392 29.8169 36.0647C29.7933 35.2779 30.0628 34.5104 30.573 33.9111C31.0833 33.3117 31.798 32.9232 32.5784 32.821C33.0675 32.7759 33.559 32.7638 34.0497 32.7848C34.8092 32.7802 35.5688 32.7836 36.3604 32.7836V32.2931C36.3604 30.7785 36.3604 29.264 36.3603 27.7495C36.3602 26.8416 36.1012 26.5819 35.1922 26.5818C30.2927 26.5814 25.3931 26.5814 20.4935 26.5818C19.5778 26.5818 19.3186 26.8383 19.3186 27.7419C19.3184 34.1685 19.3184 40.5951 19.3186 47.0217C19.3186 47.1172 19.3153 47.2129 19.3203 47.3081C19.3133 47.5232 19.3914 47.7323 19.5378 47.89C19.6842 48.0476 19.8871 48.1411 20.102 48.15C20.4517 48.1802 20.8061 48.1559 21.2234 48.1559ZM54.5262 45.5171V28.6737H37.6713V32.7836C37.9257 32.7836 38.128 32.7835 38.3303 32.7836C38.8028 32.7396 39.2792 32.8003 39.7255 32.9615C40.1719 33.1227 40.5771 33.3804 40.9124 33.7161C41.2477 34.0519 41.5049 34.4575 41.6654 34.9041C41.826 35.3506 41.8862 35.8271 41.8415 36.2995C41.8421 39.2067 41.8421 42.114 41.8416 45.0212V45.5171L54.5262 45.5171ZM34.8285 48.1334C34.9355 48.142 35.0392 48.1575 35.1429 48.1576C36.2616 48.1593 37.3804 48.1669 38.499 48.1564C38.7733 48.1755 39.0484 48.135 39.3056 48.0377C39.5627 47.9403 39.7958 47.7885 39.9887 47.5926C40.1816 47.3967 40.3298 47.1614 40.4232 46.9028C40.5166 46.6442 40.5529 46.3684 40.5296 46.0945C40.5326 42.7801 40.5326 39.4657 40.5296 36.1512C40.5533 35.874 40.5159 35.5949 40.42 35.3337C40.3241 35.0724 40.1721 34.8354 39.9747 34.6394C39.7773 34.4433 39.5392 34.2929 39.2774 34.1988C39.0155 34.1048 38.7361 34.0693 38.459 34.0949C36.7127 34.092 34.9665 34.0919 33.2202 34.0947C32.9361 34.0651 32.649 34.0996 32.38 34.1957C32.1111 34.2918 31.8671 34.447 31.6661 34.6499C31.4651 34.8528 31.3122 35.0982 31.2187 35.3681C31.1251 35.6379 31.0932 35.9253 31.1255 36.2091C31.1241 39.1689 31.124 42.1287 31.1251 45.0884V45.5376C31.3671 45.5495 31.6097 45.5482 31.8516 45.5336C32.2506 45.4885 32.6547 45.526 33.0386 45.6438C33.4225 45.7616 33.778 45.9572 34.083 46.2184C34.9051 46.8592 35.0506 47.1163 34.8285 48.1334ZM41.295 48.1361C41.4304 48.1439 41.5609 48.1578 41.6914 48.1578C46.1407 48.1589 50.5901 48.1585 55.0395 48.1565C55.2439 48.1605 55.4482 48.1421 55.6487 48.1017C55.9313 48.038 56.183 47.8782 56.3609 47.6496C56.5388 47.421 56.6319 47.1378 56.6242 46.8482H56.2224C51.5547 46.8482 46.8869 46.8482 42.2192 46.8483C42.1382 46.8367 42.0558 46.839 41.9756 46.8551C41.8821 46.8821 41.8009 46.9407 41.746 47.0211C41.5875 47.3767 41.4516 47.7423 41.295 48.1361ZM33.6298 47.433C33.1861 47.2193 32.7855 46.8661 32.3766 46.8563C30.183 46.8037 27.9874 46.8357 25.7925 46.8412C25.5942 46.8417 25.3959 46.8613 25.1634 46.8739C25.1634 47.171 25.1848 47.43 25.1583 47.684C25.1201 48.0507 25.2379 48.1718 25.6256 48.1681C27.7114 48.1484 29.7982 48.1268 31.8829 48.1767C32.2095 48.1787 32.533 48.1138 32.8334 47.9858C33.1339 47.8579 33.4049 47.6698 33.6298 47.433ZM22.565 46.868V48.1215H23.8234V46.868H22.565Z" fill="#E6AE00"/>
<path d="M48.618 30.7897C48.4277 30.7999 48.237 30.7972 48.0471 30.7815C47.9659 30.7703 47.897 30.6694 47.8226 30.6093C47.8931 30.5625 47.9625 30.4776 48.0344 30.4752C48.4291 30.4625 48.8244 30.4645 49.2191 30.4762C49.2814 30.4781 49.3416 30.5553 49.4027 30.5977C49.3454 30.66 49.2934 30.7686 49.2297 30.7759C49.0261 30.7904 48.8219 30.7933 48.618 30.7845V30.7897Z" fill="#E6AE00"/>
<path d="M51.9227 30.4706C52.1134 30.4706 52.305 30.46 52.4943 30.4764C52.5584 30.482 52.6166 30.5557 52.6775 30.5983C52.6199 30.6605 52.5644 30.7739 52.5044 30.7763C52.0965 30.793 51.6874 30.7937 51.2794 30.7789C51.2166 30.7766 51.1576 30.668 51.0969 30.6086C51.1678 30.562 51.2356 30.482 51.3102 30.4752C51.5128 30.4565 51.7183 30.4688 51.9227 30.4688V30.4706Z" fill="#E6AE00"/>
<path d="M35.7957 36.7147C35.4817 36.7144 35.1674 36.7234 34.8538 36.7122C34.7648 36.7164 34.676 36.7026 34.5925 36.6718C34.5089 36.6409 34.4325 36.5936 34.3676 36.5326C34.3027 36.4716 34.2506 36.3982 34.2147 36.3168C34.1787 36.2353 34.1595 36.1474 34.1582 36.0584C34.1587 35.9692 34.1775 35.881 34.2133 35.7993C34.2491 35.7176 34.3011 35.6441 34.3664 35.5832C34.4316 35.5224 34.5087 35.4755 34.5927 35.4455C34.6767 35.4155 34.7659 35.4029 34.855 35.4086C35.51 35.3978 36.1656 35.3969 36.8206 35.4097C36.9063 35.4065 36.9918 35.4203 37.0722 35.4502C37.1526 35.4801 37.2263 35.5256 37.2891 35.5841C37.3519 35.6425 37.4025 35.7128 37.438 35.7909C37.4736 35.8689 37.4934 35.9533 37.4963 36.039C37.4965 36.1279 37.4792 36.2159 37.4453 36.298C37.4114 36.3801 37.3614 36.4547 37.2985 36.5175C37.2356 36.5802 37.1608 36.6299 37.0786 36.6636C36.9964 36.6973 36.9083 36.7144 36.8194 36.7139C36.7922 36.7157 36.7649 36.715 36.7376 36.715C36.4236 36.7151 36.1097 36.715 35.7957 36.7147Z" fill="#E6AE00"/>
<path d="M37.711 27.353H38.22C43.5713 27.353 48.9227 27.3531 54.2741 27.3532C55.4058 27.3533 55.8602 27.8077 55.8602 28.9372C55.8604 34.2873 55.8605 39.6374 55.8603 44.9875V45.538C56.1367 45.538 56.3908 45.5337 56.6447 45.5388C56.8367 45.5262 57.029 45.5574 57.2071 45.6299C57.3853 45.7024 57.5448 45.8144 57.6735 45.9574C57.8022 46.1004 57.8967 46.2708 57.9501 46.4556C58.0035 46.6404 58.0142 46.835 57.9815 47.0245C57.9268 47.6277 57.6685 48.1943 57.249 48.6311C56.8295 49.0679 56.2739 49.349 55.6735 49.4281C55.4841 49.4533 55.2934 49.4665 55.1024 49.4677C43.5123 49.4718 31.9222 49.4742 20.3322 49.4748C19.8018 49.5143 19.2756 49.3567 18.8543 49.0322C18.4329 48.7077 18.1461 48.2391 18.0489 47.7163C18.0172 47.5281 18.0039 47.3373 18.0092 47.1466C18.0072 40.6364 18.0069 34.1262 18.0081 27.6161C17.9808 27.301 18.0228 26.9837 18.1313 26.6866C18.2397 26.3895 18.4119 26.1197 18.6358 25.8963C18.8596 25.6729 19.1298 25.5012 19.4271 25.3934C19.7245 25.2856 20.0418 25.2442 20.3568 25.2722C25.2441 25.2693 30.1313 25.269 35.0185 25.2711C36.6685 25.271 37.2837 25.7386 37.711 27.353ZM21.2234 48.1559C21.2234 47.7525 21.2226 47.3992 21.2236 47.046C21.2267 46.0176 21.6995 45.539 22.7208 45.5382C24.9181 45.5364 27.1154 45.5362 29.3127 45.5376H29.8142V44.9882C29.8142 42.0137 29.8077 39.0392 29.8169 36.0647C29.7933 35.2779 30.0628 34.5104 30.573 33.9111C31.0833 33.3117 31.798 32.9232 32.5784 32.821C33.0675 32.7759 33.559 32.7638 34.0497 32.7848C34.8092 32.7802 35.5688 32.7836 36.3604 32.7836V32.2931C36.3604 30.7785 36.3604 29.264 36.3603 27.7495C36.3602 26.8416 36.1012 26.5819 35.1922 26.5818C30.2927 26.5814 25.3931 26.5814 20.4935 26.5818C19.5778 26.5818 19.3186 26.8383 19.3186 27.7419C19.3184 34.1685 19.3184 40.5951 19.3186 47.0217C19.3186 47.1172 19.3153 47.2129 19.3203 47.3081C19.3133 47.5232 19.3914 47.7323 19.5378 47.89C19.6842 48.0476 19.8871 48.1411 20.102 48.15C20.4517 48.1802 20.8061 48.1559 21.2234 48.1559ZM54.5262 45.5171V28.6737H37.6713V32.7836C37.9257 32.7836 38.128 32.7835 38.3303 32.7836C38.8028 32.7396 39.2792 32.8003 39.7255 32.9615C40.1719 33.1227 40.5771 33.3804 40.9124 33.7161C41.2477 34.0519 41.5049 34.4575 41.6654 34.9041C41.826 35.3506 41.8862 35.8271 41.8415 36.2995C41.8421 39.2067 41.8421 42.114 41.8416 45.0212V45.5171L54.5262 45.5171ZM34.8285 48.1334C34.9355 48.142 35.0392 48.1575 35.1429 48.1576C36.2616 48.1593 37.3804 48.1669 38.499 48.1564C38.7733 48.1755 39.0484 48.135 39.3056 48.0377C39.5627 47.9403 39.7958 47.7885 39.9887 47.5926C40.1816 47.3967 40.3298 47.1614 40.4232 46.9028C40.5166 46.6442 40.5529 46.3684 40.5296 46.0945C40.5326 42.7801 40.5326 39.4657 40.5296 36.1512C40.5533 35.874 40.5159 35.5949 40.42 35.3337C40.3241 35.0724 40.1721 34.8354 39.9747 34.6394C39.7773 34.4433 39.5392 34.2929 39.2774 34.1988C39.0155 34.1048 38.7361 34.0693 38.459 34.0949C36.7127 34.092 34.9665 34.0919 33.2202 34.0947C32.9361 34.0651 32.649 34.0996 32.38 34.1957C32.1111 34.2918 31.8671 34.447 31.6661 34.6499C31.4651 34.8528 31.3122 35.0982 31.2187 35.3681C31.1251 35.6379 31.0932 35.9253 31.1255 36.2091C31.1241 39.1689 31.124 42.1287 31.1251 45.0884V45.5376C31.3671 45.5495 31.6097 45.5482 31.8516 45.5336C32.2506 45.4885 32.6547 45.526 33.0386 45.6438C33.4225 45.7616 33.778 45.9572 34.083 46.2184C34.9051 46.8592 35.0506 47.1163 34.8285 48.1334ZM41.295 48.1361C41.4304 48.1439 41.5609 48.1578 41.6914 48.1578C46.1407 48.1589 50.5901 48.1585 55.0395 48.1565C55.2439 48.1605 55.4482 48.1421 55.6487 48.1017C55.9313 48.038 56.183 47.8782 56.3609 47.6496C56.5388 47.421 56.6319 47.1378 56.6242 46.8482H56.2224C51.5547 46.8482 46.8869 46.8482 42.2192 46.8483C42.1382 46.8367 42.0558 46.839 41.9756 46.8551C41.8821 46.8821 41.8009 46.9407 41.746 47.0211C41.5875 47.3767 41.4516 47.7423 41.295 48.1361ZM33.6298 47.433C33.1861 47.2193 32.7855 46.8661 32.3766 46.8563C30.183 46.8037 27.9874 46.8357 25.7925 46.8412C25.5942 46.8417 25.3959 46.8613 25.1634 46.8739C25.1634 47.171 25.1848 47.43 25.1583 47.684C25.1201 48.0507 25.2379 48.1718 25.6256 48.1681C27.7114 48.1484 29.7982 48.1268 31.8829 48.1767C32.2095 48.1787 32.533 48.1138 32.8334 47.9858C33.1339 47.8579 33.4049 47.6698 33.6298 47.433ZM22.565 46.868V48.1215H23.8234V46.868H22.565Z" stroke="#E6AE00" stroke-width="0.6" mask="url(#path-3-outside-1_3536_47973)"/>
<path d="M48.618 30.7897C48.4277 30.7999 48.237 30.7972 48.0471 30.7815C47.9659 30.7703 47.897 30.6694 47.8226 30.6093C47.8931 30.5625 47.9625 30.4776 48.0344 30.4752C48.4291 30.4625 48.8244 30.4645 49.2191 30.4762C49.2814 30.4781 49.3416 30.5553 49.4027 30.5977C49.3454 30.66 49.2934 30.7686 49.2297 30.7759C49.0261 30.7904 48.8219 30.7933 48.618 30.7845V30.7897Z" stroke="#E6AE00" stroke-width="0.6" mask="url(#path-3-outside-1_3536_47973)"/>
<path d="M51.9227 30.4706C52.1134 30.4706 52.305 30.46 52.4943 30.4764C52.5584 30.482 52.6166 30.5557 52.6775 30.5983C52.6199 30.6605 52.5644 30.7739 52.5044 30.7763C52.0965 30.793 51.6874 30.7937 51.2794 30.7789C51.2166 30.7766 51.1576 30.668 51.0969 30.6086C51.1678 30.562 51.2356 30.482 51.3102 30.4752C51.5128 30.4565 51.7183 30.4688 51.9227 30.4688V30.4706Z" stroke="#E6AE00" stroke-width="0.6" mask="url(#path-3-outside-1_3536_47973)"/>
<path d="M35.7957 36.7147C35.4817 36.7144 35.1674 36.7234 34.8538 36.7122C34.7648 36.7164 34.676 36.7026 34.5925 36.6718C34.5089 36.6409 34.4325 36.5936 34.3676 36.5326C34.3027 36.4716 34.2506 36.3982 34.2147 36.3168C34.1787 36.2353 34.1595 36.1474 34.1582 36.0584C34.1587 35.9692 34.1775 35.881 34.2133 35.7993C34.2491 35.7176 34.3011 35.6441 34.3664 35.5832C34.4316 35.5224 34.5087 35.4755 34.5927 35.4455C34.6767 35.4155 34.7659 35.4029 34.855 35.4086C35.51 35.3978 36.1656 35.3969 36.8206 35.4097C36.9063 35.4065 36.9918 35.4203 37.0722 35.4502C37.1526 35.4801 37.2263 35.5256 37.2891 35.5841C37.3519 35.6425 37.4025 35.7128 37.438 35.7909C37.4736 35.8689 37.4934 35.9533 37.4963 36.039C37.4965 36.1279 37.4792 36.2159 37.4453 36.298C37.4114 36.3801 37.3614 36.4547 37.2985 36.5175C37.2356 36.5802 37.1608 36.6299 37.0786 36.6636C36.9964 36.6973 36.9083 36.7144 36.8194 36.7139C36.7922 36.7157 36.7649 36.715 36.7376 36.715C36.4236 36.7151 36.1097 36.715 35.7957 36.7147Z" stroke="#E6AE00" stroke-width="0.6" mask="url(#path-3-outside-1_3536_47973)"/>
<defs>
<linearGradient id="paint0_linear_3536_47973" x1="37.5" y1="0.0727539" x2="37.5" y2="75.0728" gradientUnits="userSpaceOnUse">
<stop stop-color="white" stop-opacity="0"/>
<stop offset="1" stop-color="#E5AE00" stop-opacity="0.2"/>
</linearGradient>
</defs>
</svg>
