<svg width="14" height="13" viewBox="0 0 14 13" fill="none" xmlns="http://www.w3.org/2000/svg">
<circle cx="7.28754" cy="6.31195" r="6.14692" fill="white"/>
<g clip-path="url(#clip0_4351_9727)">
<path d="M7.35524 1.80176C7.77185 1.93604 7.65868 2.31913 7.67414 2.66291C8.30773 2.78862 8.86771 3.23168 9.13236 3.82052C9.24862 4.07919 9.41619 4.66561 9.24052 4.9097C9.08941 5.11967 8.77933 5.13738 8.60583 4.94544C8.47025 4.79545 8.51131 4.64989 8.48108 4.47139C8.40593 4.02755 8.09238 3.66375 7.6724 3.50985V5.93992C8.35322 6.07689 8.94074 6.56892 9.18328 7.22103C9.62748 8.4153 8.91024 9.69998 7.67414 9.9565C7.64493 10.2373 7.77109 10.5841 7.47914 10.7566C7.21113 10.9149 6.88783 10.7472 6.86125 10.4397C6.85507 10.3682 6.87591 9.97481 6.86014 9.9565C6.2166 9.82734 5.65283 9.37732 5.39117 8.77442C5.24402 8.43536 5.01296 7.5687 5.60158 7.54157C6.101 7.51855 6.00327 8.0342 6.10361 8.34416C6.21808 8.69776 6.51671 8.98262 6.86187 9.10957V6.6795C5.6242 6.42053 4.90688 5.14258 5.35099 3.94572C5.59268 3.29437 6.17864 2.79833 6.86013 2.66291C6.87559 2.31913 6.76243 1.93604 7.17904 1.80176L7.35524 1.80176ZM6.86187 5.81665V3.50985C6.08964 3.79249 5.78905 4.71526 6.27317 5.39246C6.40842 5.58165 6.63327 5.76253 6.86187 5.81665ZM7.6724 9.10957C8.43739 8.83228 8.74462 7.91008 8.26851 7.23717C8.13123 7.04316 7.90647 6.85829 7.6724 6.80277V9.10957Z" fill="black"/>
</g>
<defs>
<clipPath id="clip0_4351_9727">
<rect width="4.09794" height="9.83506" fill="white" transform="translate(5.21875 0.984375)"/>
</clipPath>
</defs>
</svg>
