<svg width="10" height="10" viewBox="0 0 10 10" fill="none" xmlns="http://www.w3.org/2000/svg">
<path d="M2.04151 2.19793C2.06101 2.21544 2.47178 2.07958 2.55011 2.071C3.07695 2.01329 3.19988 2.65096 2.72743 2.81954C2.28374 2.97785 1.74202 3.03192 1.29029 3.18838C1.03581 3.23411 0.862016 3.09247 0.811512 2.84743C0.707036 2.34052 0.693906 1.77763 0.585023 1.26646C0.582801 0.884771 1.07371 0.711936 1.29384 1.03826C1.40875 1.20859 1.35306 1.51444 1.4425 1.70009C2.19155 0.758975 3.3361 0.151199 4.53859 0.0420519C8.24756 -0.294604 10.7598 3.7766 8.76813 6.9437C6.61868 10.3617 1.32625 9.40383 0.535713 5.46362C0.478858 5.18024 0.362445 4.67063 0.780654 4.61383C1.27924 4.5461 1.23294 5.07717 1.31005 5.40798C1.83653 7.66662 4.32293 8.90319 6.45819 7.96927C8.6857 6.995 9.4032 4.16961 7.90892 2.23678C6.49469 0.407485 3.69935 0.297937 2.16094 2.03191C2.14566 2.04913 2.02831 2.18607 2.04151 2.19793Z" fill="white"/>
<path d="M5.35414 4.37129L6.69576 5.43437C7.03079 5.77142 6.63625 6.29941 6.19903 6.02325C5.70041 5.70831 5.21817 5.16641 4.71484 4.83532C4.62762 4.76177 4.58519 4.64489 4.57547 4.53242C4.51009 3.77545 4.62404 2.92345 4.57817 2.15656C4.63486 1.68223 5.29143 1.68215 5.34807 2.15656L5.35414 4.37129Z" fill="white"/>
</svg>
