<svg width="11" height="15" viewBox="0 0 11 15" fill="none" xmlns="http://www.w3.org/2000/svg">
<path d="M5.3789 0.973633C6.63193 1.10527 7.73432 1.92634 8.17055 3.1116C8.49932 4.00487 8.33757 4.95598 8.37496 5.89073H8.95112C9.42516 5.89073 10.0102 6.52683 10.0134 7.00517L10.0148 12.9472C9.95899 13.5549 9.48138 14.0313 8.87523 14.0868L1.34458 14.0871C0.720061 14.0432 0.240101 13.5652 0.179688 12.9472L0.183763 6.9823C0.195727 6.51252 0.777711 5.89073 1.24332 5.89073H1.81948C1.8605 5.08191 1.72286 4.20868 1.92382 3.42129C2.25605 2.11956 3.46772 1.07985 4.81554 0.973633H5.3789ZM7.27384 5.89073V3.95718C7.27384 3.80196 7.10189 3.35822 7.02208 3.21018C6.20482 1.6942 3.98417 1.6914 3.17235 3.21018C3.09247 3.35961 2.92059 3.80074 2.92059 3.95718V5.89073H7.27384ZM5.04148 8.07448C4.36491 8.10524 3.87273 8.77148 4.03368 9.42572C4.11074 9.73894 4.31225 9.94198 4.55467 10.134C4.59172 10.5468 4.52199 11.0033 4.55843 11.4107C4.61657 12.0607 5.57852 12.0547 5.63601 11.4107C5.67238 11.0032 5.60276 10.5469 5.63977 10.134C5.8014 9.99116 5.94163 9.893 6.04895 9.69805C6.4635 8.94494 5.89796 8.03554 5.04148 8.07448Z" fill="white"/>
</svg>
