<svg width="66" height="65" viewBox="0 0 66 65" fill="none" xmlns="http://www.w3.org/2000/svg">
<rect x="0.78125" width="64.4306" height="64.4306" rx="32.2153" fill="#0F2E2A"/>
<g clip-path="url(#clip0_405_3437)">
<path d="M56.5669 32.1148C56.5669 48.0214 46.8325 53.1255 41.7036 48.5807C37.4819 44.875 36.2258 37.0442 29.8758 36.2401C21.8161 35.2263 21.1183 45.9589 15.815 45.9589C9.6394 45.9589 8.45312 36.9742 8.45312 32.3595C8.45312 27.64 9.77896 21.2074 15.0474 21.2074C21.1881 21.2074 21.537 30.4018 29.2129 29.9124C36.8538 29.388 36.9934 19.809 41.948 15.7187C46.2742 12.1878 56.5669 15.9984 56.5669 32.1148Z" fill="#97FCE4"/>
</g>
<defs>
<clipPath id="clip0_405_3437">
<rect width="48.1138" height="48.1138" fill="white" transform="translate(8.45312 8.1582)"/>
</clipPath>
</defs>
</svg>
