<svg width="66" height="65" viewBox="0 0 66 65" fill="none" xmlns="http://www.w3.org/2000/svg">
<g clip-path="url(#clip0_405_3382)">
<path d="M64.8632 32.2153C64.8632 49.8148 50.596 64.0819 32.9965 64.0819C15.3971 64.0819 1.1299 49.8148 1.1299 32.2153C1.1299 14.6158 15.3971 0.34865 32.9965 0.34865C50.596 0.34865 64.8632 14.6158 64.8632 32.2153Z" fill="#E6AE00" stroke="black" stroke-width="0.697301"/>
<circle cx="33.1071" cy="31.7692" r="20.2399" stroke="white" stroke-width="3"/>
<path d="M36.1376 21.7358C37.0481 22.0104 37.6728 22.4166 38.0385 22.6611C38.4918 22.9619 38.8385 23.2591 39.0709 23.481C39.7985 24.3272 40.0385 25.2261 40.1718 25.7226C40.4461 26.7419 40.4156 27.622 40.3509 28.1673C40.008 27.8401 39.4175 27.3662 38.568 27.0277C37.8938 26.7607 37.2881 26.6704 36.8614 26.6403C36.8728 26.4598 36.8919 25.8881 36.5109 25.339C36.0043 24.6093 35.2005 24.4852 35.0633 24.4664H29.1586V27.4753H36.709C37.09 27.5016 37.6576 27.5806 38.2899 27.8326C39.3718 28.2614 40.0156 28.9384 40.4004 29.3558C41.1699 30.187 42.8956 32.045 42.808 34.8734C42.7966 35.2946 42.6404 38.4766 39.9128 40.3007C38.2366 41.4253 36.4843 41.429 35.8252 41.3952H26.492V32.3685H35.4443C35.7262 32.0187 36.0081 31.6689 36.29 31.3191C36.6023 31.3981 37.1814 31.5899 37.749 32.0638C38.3204 32.5415 38.6099 33.0793 38.7395 33.369C38.5947 33.6398 38.389 33.9482 38.088 34.2491C37.1242 35.2081 35.8862 35.3473 35.4405 35.3774H29.1548V38.3863H36.5833C36.9985 38.3261 38.1338 38.1042 38.9528 37.1564C40.1794 35.7422 39.9128 33.6021 39.0328 32.282C38.9604 32.1729 37.9547 30.7136 36.3128 30.4879C35.8862 30.4278 35.5547 30.4879 35.4405 30.4879C33.0595 30.4879 26.6291 30.4879 26.4844 30.4879V21.4613C26.4844 21.4613 27.3377 21.4575 29.0101 21.4613C30.5719 21.4425 32.1567 21.4462 33.7605 21.4688C34.0805 21.4725 34.4005 21.4801 34.7167 21.4838C35.3109 21.5252 35.7909 21.638 36.1262 21.7396L36.1376 21.7358Z" fill="white"/>
</g>
<defs>
<clipPath id="clip0_405_3382">
<rect width="64.4306" height="64.4306" fill="white" transform="translate(0.78125)"/>
</clipPath>
</defs>
</svg>
