<svg width="68" height="68" viewBox="0 0 68 68" fill="none" xmlns="http://www.w3.org/2000/svg">
<circle cx="34" cy="34" r="34" fill="#E6AE00"/>
<path d="M23.5733 33.6143C23.5733 32.9771 23.5793 32.354 23.5715 31.731C23.5655 31.2471 23.8024 30.9122 24.4701 30.9231C25.0898 30.9332 25.3172 31.2565 25.3133 31.7106C25.308 32.3346 25.312 32.9587 25.312 33.6344C25.6552 33.6496 25.9223 33.6603 26.1892 33.6736C26.9046 33.6771 27.589 33.9025 28.0924 34.3005C28.5959 34.6984 28.8772 35.2365 28.8747 35.7966C28.9015 36.2286 28.8821 36.6624 28.8821 37.0955C28.8824 42.768 28.8825 48.4406 28.8824 54.1132C28.8824 56.5494 28.4339 56.9638 25.3125 57.3253C25.3125 57.9323 25.3059 58.5538 25.3148 59.1751C25.3217 59.6536 25.1036 60.0028 24.4344 59.9998C23.7604 59.9967 23.5626 59.6367 23.5705 59.163C23.5805 58.5601 23.573 57.957 23.573 57.2904C23.2167 57.2743 22.9242 57.2653 22.6327 57.2473C21.9295 57.2387 21.2594 57.0121 20.7695 56.6171C20.2795 56.2221 20.0097 55.6911 20.0192 55.1405C19.9868 51.0487 20.0054 46.9566 20.0045 42.8646C20.0044 42.3651 20.2419 41.9865 20.9494 42.012C21.6014 42.0355 21.7928 42.4008 21.7918 42.8762C21.7839 46.8167 21.7826 50.7572 21.7879 54.6977C21.7881 55.711 21.9746 55.8551 23.2764 55.8563C24.0784 55.8571 24.8803 55.857 25.6823 55.8562C26.8714 55.854 27.097 55.6832 27.0975 54.7695C27.0992 51.0238 27.0995 47.2782 27.0982 43.5326C27.0982 41.0643 27.098 38.5961 27.0973 36.1279C27.0964 35.2548 26.8563 35.0707 25.7327 35.0678C24.8478 35.0656 23.9629 35.0643 23.078 35.0682C22.0553 35.0727 21.7931 35.271 21.7892 36.0556C21.7832 37.268 21.776 38.4806 21.793 39.6929C21.7999 40.1919 21.6167 40.5857 20.9146 40.5959C20.2066 40.6061 20.0017 40.207 20.0031 39.7141C20.0065 38.5017 19.9982 37.2892 20.0049 36.0768C20.0135 34.529 21.0022 33.7398 23.0022 33.6688C23.1631 33.6631 23.323 33.6388 23.5733 33.6143Z" fill="white"/>
<path d="M44.9108 20.5806V19.7569C44.9108 16.0462 44.9109 12.3354 44.9109 8.62472C44.9109 8.4598 44.9157 8.29485 44.9123 8.12998C44.9035 7.69614 45.1392 7.39142 45.7577 7.38488C46.4247 7.37782 46.6618 7.7001 46.6492 8.15898C46.6447 8.32382 46.65 8.48881 46.65 8.65373C46.6501 12.3438 46.6501 16.0339 46.6501 19.724V20.5395C46.9816 20.5549 47.2706 20.5713 47.5601 20.5813C48.2327 20.5713 48.8838 20.759 49.3729 21.1039C49.862 21.4489 50.1501 21.9236 50.1752 22.4258C50.2599 23.7627 50.2133 25.1048 50.2006 26.4445C50.1966 26.8705 49.9038 27.1699 49.2906 27.1544C48.6868 27.1391 48.4304 26.8449 48.431 26.4089C48.4326 25.2339 48.4322 24.0588 48.4299 22.8837C48.4273 22.0863 48.1716 21.8865 47.1323 21.8797C46.1663 21.8733 45.2001 21.876 44.234 21.88C44.0821 21.8636 43.9272 21.8741 43.7817 21.9107C43.6362 21.9472 43.5043 22.0088 43.3965 22.0904C43.2887 22.172 43.2081 22.2714 43.1611 22.3806C43.1142 22.4897 43.1022 22.6056 43.1262 22.7188C43.1358 25.2545 43.137 27.7901 43.1299 30.3258C43.1081 30.4341 43.1205 30.5447 43.1661 30.6488C43.2118 30.753 43.2894 30.8476 43.3927 30.9254C43.4961 31.0031 43.6223 31.0617 43.7613 31.0965C43.9004 31.1313 44.0485 31.1413 44.1936 31.1258C45.2425 31.1254 46.2914 31.123 47.3402 31.1267C48.1031 31.1294 48.447 30.8418 48.4324 30.2831C48.4232 29.9328 48.4302 29.5822 48.4327 29.2318C48.4358 28.7952 48.6884 28.5159 49.311 28.5088C49.4297 28.5008 49.5492 28.5123 49.6613 28.5426C49.7734 28.5728 49.8753 28.6211 49.9596 28.684C50.044 28.7468 50.1088 28.8228 50.1496 28.9064C50.1903 28.9901 50.2059 29.0794 50.1954 29.168C50.2373 29.6618 50.2295 30.1572 50.1719 30.65C50.1143 31.1281 49.8256 31.5743 49.3598 31.905C48.8939 32.2357 48.2827 32.4284 47.6404 32.4471C47.3424 32.4674 47.0426 32.4719 46.65 32.4874C46.65 33.0077 46.6512 33.4975 46.6498 33.9874C46.6473 34.7975 46.4053 35.1108 45.7586 35.0742C44.8388 35.0222 44.9117 34.4976 44.91 34.017C44.9085 33.5636 44.9015 33.1103 44.8923 32.657C44.8733 32.5981 44.8448 32.5412 44.8073 32.4875C44.5742 32.4771 44.3083 32.4662 44.0426 32.4533C42.4692 32.3767 41.3806 31.6028 41.3641 30.4345C41.3268 27.8167 41.3266 25.1986 41.3633 22.5803C41.3542 22.316 41.4172 22.053 41.5485 21.8074C41.6797 21.5618 41.8766 21.3388 42.1269 21.1518C42.3773 20.9648 42.676 20.8179 43.0048 20.7199C43.3336 20.6218 43.6857 20.5748 44.0397 20.5816C44.2841 20.5743 44.5293 20.5806 44.9108 20.5806Z" fill="white"/>
<path d="M34.2282 28.9717C34.2282 27.8351 34.2282 26.765 34.2282 25.6948C34.2282 23.6126 34.2328 21.5303 34.225 19.4481C34.2232 18.9672 34.2398 18.4695 35.0828 18.461C35.9208 18.4527 35.9729 18.9362 35.9716 19.4261C35.9637 22.3742 35.9625 25.3224 35.9678 28.2705C35.9678 28.4924 35.9678 28.7143 35.9678 28.9788C36.3219 28.9953 36.5887 29.011 36.8558 29.0198C37.2023 29.0162 37.5463 29.064 37.8678 29.1603C38.1894 29.2567 38.4823 29.3997 38.7295 29.5812C38.9766 29.7626 39.1731 29.9789 39.3077 30.2174C39.4423 30.456 39.5123 30.7121 39.5136 30.9709C39.5668 31.8556 39.5648 32.7448 39.5154 33.6297C39.5145 33.8938 39.443 34.1551 39.3052 34.3983C39.1674 34.6414 38.9661 34.8616 38.7129 35.0459C38.4598 35.2302 38.1599 35.3749 37.831 35.4716C37.502 35.5682 37.1506 35.6148 36.7972 35.6086C36.5539 35.6142 36.3101 35.6094 35.9678 35.6094C35.9678 35.8816 35.9678 36.1024 35.9678 36.3232C35.9678 39.1889 35.9678 42.0546 35.9676 44.9203C35.9676 45.1058 35.9665 45.2914 35.9614 45.4768C35.95 45.8923 35.6887 46.1444 35.1108 46.1492C34.9927 46.1596 34.873 46.1498 34.7607 46.1207C34.6484 46.0916 34.5464 46.0439 34.4623 45.9811C34.3782 45.9184 34.3142 45.8422 34.2751 45.7584C34.2359 45.6745 34.2227 45.5851 34.2363 45.4969C34.2261 45.2085 34.2285 44.9198 34.2284 44.6311C34.2279 41.8685 34.2279 39.1059 34.2282 36.3433V35.6501C33.9903 35.6329 33.8325 35.6148 33.674 35.611C31.6373 35.5622 30.6745 34.818 30.6665 33.28C30.6631 32.6203 30.6633 31.9605 30.6669 31.3008C30.6773 29.8119 31.6361 29.0783 33.6419 29.017C33.8022 29.012 33.9617 28.9927 34.2282 28.9717ZM35.0245 34.2779C35.5762 34.2779 36.128 34.2747 36.6796 34.2787C36.8244 34.2965 36.9727 34.2884 37.1125 34.2552C37.2523 34.2219 37.3796 34.1644 37.4839 34.0874C37.5882 34.0104 37.6666 33.916 37.7127 33.8119C37.7589 33.7079 37.7715 33.5972 37.7494 33.4889C37.7457 32.7057 37.741 31.9225 37.7512 31.1394C37.7739 31.0311 37.7628 30.9203 37.7187 30.8157C37.6746 30.7111 37.5989 30.6155 37.4972 30.5365C37.3956 30.4574 37.2708 30.3969 37.1327 30.3598C36.9946 30.3226 36.8469 30.3099 36.7011 30.3224C35.6255 30.3115 34.5493 30.31 33.4737 30.3234C33.3348 30.3113 33.1939 30.3228 33.0618 30.3573C32.9298 30.3917 32.8099 30.448 32.7111 30.522C32.6124 30.5961 32.5374 30.6858 32.4918 30.7846C32.4462 30.8834 32.4311 30.9887 32.4478 31.0924C32.4491 31.8962 32.449 32.7 32.4475 33.5037C32.4265 33.6069 32.4378 33.7123 32.4804 33.8116C32.523 33.911 32.5958 34.0017 32.693 34.0765C32.7903 34.1514 32.9094 34.2084 33.0411 34.2432C33.1728 34.2779 33.3135 34.2894 33.4521 34.2768C33.9762 34.2797 34.5004 34.2774 35.0245 34.2779Z" fill="white"/>
</svg>
