<svg width="68" height="68" viewBox="0 0 68 68" fill="none" xmlns="http://www.w3.org/2000/svg">
<circle cx="34" cy="34" r="34" fill="#E6AE00"/>
<circle cx="34.2399" cy="34.2399" r="20.2399" stroke="white" stroke-width="3"/>
<path d="M37.2704 24.2065C38.1809 24.4811 38.8056 24.8873 39.1713 25.1318C39.6247 25.4326 39.9713 25.7298 40.2037 25.9517C40.9313 26.7979 41.1713 27.6968 41.3046 28.1933C41.5789 29.2126 41.5484 30.0927 41.4837 30.638C41.1408 30.3108 40.5504 29.8369 39.7008 29.4984C39.0266 29.2314 38.4209 29.1411 37.9942 29.111C38.0056 28.9305 38.0247 28.3588 37.6437 27.8097C37.1371 27.08 36.3333 26.9559 36.1961 26.9371H30.2914V29.946H37.8418C38.2228 29.9723 38.7904 30.0513 39.4228 30.3033C40.5046 30.7321 41.1484 31.4091 41.5332 31.8265C42.3027 32.6578 44.0284 34.5157 43.9408 37.3441C43.9294 37.7654 43.7732 40.9473 41.0456 42.7714C39.3694 43.896 37.6171 43.8997 36.958 43.8659H27.6248V34.8392H36.5771C36.859 34.4894 37.1409 34.1396 37.4228 33.7898C37.7352 33.8688 38.3142 34.0606 38.8818 34.5345C39.4532 35.0122 39.7428 35.5501 39.8723 35.8397C39.7275 36.1105 39.5218 36.4189 39.2209 36.7198C38.2571 37.6788 37.019 37.818 36.5733 37.8481H30.2876V40.857H37.7161C38.1313 40.7968 39.2666 40.5749 40.0856 39.6271C41.3123 38.2129 41.0456 36.0728 40.1656 34.7527C40.0932 34.6436 39.0875 33.1843 37.4456 32.9586C37.019 32.8985 36.6876 32.9586 36.5733 32.9586C34.1923 32.9586 27.7619 32.9586 27.6172 32.9586V23.932C27.6172 23.932 28.4705 23.9282 30.1429 23.932C31.7048 23.9132 33.2895 23.9169 34.8933 23.9395C35.2133 23.9432 35.5333 23.9508 35.8495 23.9545C36.4437 23.9959 36.9237 24.1087 37.259 24.2103L37.2704 24.2065Z" fill="white"/>
</svg>
