<svg width="36" height="19" viewBox="0 0 36 19" fill="none" xmlns="http://www.w3.org/2000/svg">
<g id="Frame 2147223611">
<rect x="0.634766" width="35" height="19" rx="2.66957" fill="white" fill-opacity="0.35"/>
<g id="Group">
<path id="Vector" d="M15.6587 5.66846L14.3455 13.3384H16.4458L17.7601 5.66846H15.6587ZM12.5844 5.67706L10.5273 10.9077L10.308 10.1179C9.9023 9.16631 8.75058 7.79964 7.39844 6.93835L9.27944 13.3346L11.5018 13.3308L14.8095 5.67545L12.5844 5.67706Z" fill="black"/>
<path id="Vector_2" d="M9.50513 6.22636C9.38304 5.75915 9.02921 5.6199 8.59002 5.60324H5.33365L5.30664 5.75593C7.84075 6.36775 9.51755 7.84195 10.2133 9.61453L9.50513 6.22636ZM22.0115 7.13926C22.5503 7.12732 23.0857 7.2273 23.5835 7.43281L23.7731 7.52152L24.0572 5.85915C23.6413 5.70378 22.9892 5.53711 22.1757 5.53711C20.1002 5.53711 18.6373 6.57743 18.626 8.06829C18.6125 9.1699 19.668 9.78496 20.4654 10.1522C21.2838 10.5285 21.5582 10.7678 21.5544 11.1038C21.548 11.6172 20.9019 11.8527 20.2985 11.8527C19.4574 11.8527 19.0106 11.7371 18.3208 11.4511L18.0501 11.3285L17.7546 13.0452C18.2462 13.2597 19.1532 13.4441 20.0948 13.4538C22.3026 13.4538 23.7374 12.4258 23.7525 10.8328C23.7617 9.9613 23.2015 9.29625 21.9877 8.75055C21.253 8.39464 20.8036 8.15808 20.8079 7.79894C20.8079 7.48012 21.1893 7.13926 22.0115 7.13926ZM29.4474 5.67743H27.8246C27.3206 5.67743 26.9457 5.81399 26.7242 6.31399L23.6056 13.343H25.8113C25.8113 13.343 26.1711 12.3979 26.2526 12.1909L28.9423 12.1941C29.005 12.4618 29.1984 13.343 29.1984 13.343H31.1469L29.4474 5.67743ZM26.8571 10.621C27.03 10.1807 27.6939 8.47743 27.6939 8.47743C27.6826 8.4984 27.8651 8.03388 27.9737 7.74517L28.1153 8.40646L28.602 10.621H26.8571Z" fill="black"/>
</g>
</g>
</svg>
